  0
SECTION
  2
BLOCKS
  0
ENDSEC
  0
SECTION
  2
ENTITIES
  0
LINE
  8
0
 10
128.673
 20
-119.194
 11
195.771
 21
-105.525
  0
LINE
  8
0
 10
195.771
 20
-105.525
 11
313.639
 21
-105.525
  0
LINE
  8
0
 10
313.639
 20
-105.525
 11
316.757
 21
-105.198
  0
LINE
  8
0
 10
316.757
 20
-105.198
 11
319.74
 21
-104.229
  0
LINE
  8
0
 10
319.74
 20
-104.229
 11
322.455
 21
-102.661
  0
LINE
  8
0
 10
322.455
 20
-102.661
 11
324.786
 21
-100.562
  0
LINE
  8
0
 10
324.786
 20
-100.562
 11
326.629
 21
-98.0254
  0
LINE
  8
0
 10
326.629
 20
-98.0254
 11
327.905
 21
-95.1606
  0
LINE
  8
0
 10
327.905
 20
-95.1606
 11
328.639
 21
-90.5254
  0
LINE
  8
0
 10
328.639
 20
-90.5254
 11
328.639
 21
12.3447
  0
LINE
  8
0
 10
328.639
 20
12.3447
 11
328.311
 21
15.4634
  0
LINE
  8
0
 10
328.311
 20
15.4634
 11
327.342
 21
18.4458
  0
LINE
  8
0
 10
327.342
 20
18.4458
 11
325.774
 21
21.1615
  0
LINE
  8
0
 10
325.774
 20
21.1615
 11
323.676
 21
23.4919
  0
LINE
  8
0
 10
323.676
 20
23.4919
 11
321.139
 21
25.3351
  0
LINE
  8
0
 10
321.139
 20
25.3351
 11
318.274
 21
26.6106
  0
LINE
  8
0
 10
318.274
 20
26.6106
 11
313.639
 21
27.3447
  0
LINE
  8
0
 10
313.639
 20
27.3447
 11
-25.6406
 21
27.3447
  0
LINE
  8
0
 10
-25.6406
 20
27.3447
 11
-28.7593
 21
27.0169
  0
LINE
  8
0
 10
-28.7593
 20
27.0169
 11
-31.7417
 21
26.0479
  0
LINE
  8
0
 10
-31.7417
 20
26.0479
 11
-34.4574
 21
24.48
  0
LINE
  8
0
 10
-34.4574
 20
24.48
 11
-36.7878
 21
22.3817
  0
LINE
  8
0
 10
-36.7878
 20
22.3817
 11
-38.631
 21
19.8447
  0
LINE
  8
0
 10
-38.631
 20
19.8447
 11
-39.9065
 21
16.98
  0
LINE
  8
0
 10
-39.9065
 20
16.98
 11
-40.6406
 21
12.3447
  0
LINE
  8
0
 10
-40.6406
 20
12.3447
 11
-40.6406
 21
-90.5322
  0
LINE
  8
0
 10
-40.6406
 20
-90.5322
 11
-40.3128
 21
-93.6509
  0
LINE
  8
0
 10
-40.3128
 20
-93.6509
 11
-39.3438
 21
-96.6333
  0
LINE
  8
0
 10
-39.3438
 20
-96.6333
 11
-37.7759
 21
-99.349
  0
LINE
  8
0
 10
-37.7759
 20
-99.349
 11
-35.6776
 21
-101.679
  0
LINE
  8
0
 10
-35.6776
 20
-101.679
 11
-33.1406
 21
-103.523
  0
LINE
  8
0
 10
-33.1406
 20
-103.523
 11
-30.2759
 21
-104.798
  0
LINE
  8
0
 10
-30.2759
 20
-104.798
 11
-25.6406
 21
-105.532
  0
LINE
  8
0
 10
-25.6406
 20
-105.532
 11
56.8797
 21
-105.532
  0
LINE
  8
0
 10
56.8797
 20
-105.532
 11
120.538
 21
-119.164
  0
LINE
  8
0
 10
120.538
 20
-119.164
 11
123.679
 21
-119.496
  0
LINE
  8
0
 10
123.679
 20
-119.496
 11
125.679
 21
-119.496
  0
LINE
  8
0
 10
125.679
 20
-119.496
 11
128.673
 21
-119.194
  0
LINE
  8
0
 10
-27.8399
 20
16.9538
 11
-28.1466
 21
17.1101
  0
LINE
  8
0
 10
-28.1466
 20
17.1101
 11
-28.3899
 21
17.3534
  0
LINE
  8
0
 10
-28.3899
 20
17.3534
 11
-28.5462
 21
17.6601
  0
LINE
  8
0
 10
-28.5462
 20
17.6601
 11
-28.6
 21
18
  0
LINE
  8
0
 10
-28.6
 20
18
 11
-28.5462
 21
18.3399
  0
LINE
  8
0
 10
-28.5462
 20
18.3399
 11
-28.3899
 21
18.6466
  0
LINE
  8
0
 10
-28.3899
 20
18.6466
 11
-28.1466
 21
18.8899
  0
LINE
  8
0
 10
-28.1466
 20
18.8899
 11
-27.8399
 21
19.0462
  0
LINE
  8
0
 10
-27.8399
 20
19.0462
 11
-27.5
 21
19.1
  0
LINE
  8
0
 10
-27.5
 20
19.1
 11
-27.1601
 21
19.0462
  0
LINE
  8
0
 10
-27.1601
 20
19.0462
 11
-26.8534
 21
18.8899
  0
LINE
  8
0
 10
-26.8534
 20
18.8899
 11
-26.6101
 21
18.6466
  0
LINE
  8
0
 10
-26.6101
 20
18.6466
 11
-26.4538
 21
18.3399
  0
LINE
  8
0
 10
-26.4538
 20
18.3399
 11
-26.4
 21
18
  0
LINE
  8
0
 10
-26.4
 20
18
 11
-26.4538
 21
17.6601
  0
LINE
  8
0
 10
-26.4538
 20
17.6601
 11
-26.6101
 21
17.3534
  0
LINE
  8
0
 10
-26.6101
 20
17.3534
 11
-26.8534
 21
17.1101
  0
LINE
  8
0
 10
-26.8534
 20
17.1101
 11
-27.1601
 21
16.9538
  0
LINE
  8
0
 10
-27.1601
 20
16.9538
 11
-27.5
 21
16.9
  0
LINE
  8
0
 10
-27.5
 20
16.9
 11
-27.8399
 21
16.9538
  0
LINE
  8
0
 10
319.66
 20
16.9538
 11
319.353
 21
17.1101
  0
LINE
  8
0
 10
319.353
 20
17.1101
 11
319.11
 21
17.3534
  0
LINE
  8
0
 10
319.11
 20
17.3534
 11
318.954
 21
17.6601
  0
LINE
  8
0
 10
318.954
 20
17.6601
 11
318.9
 21
18
  0
LINE
  8
0
 10
318.9
 20
18
 11
318.954
 21
18.3399
  0
LINE
  8
0
 10
318.954
 20
18.3399
 11
319.11
 21
18.6466
  0
LINE
  8
0
 10
319.11
 20
18.6466
 11
319.353
 21
18.8899
  0
LINE
  8
0
 10
319.353
 20
18.8899
 11
319.66
 21
19.0462
  0
LINE
  8
0
 10
319.66
 20
19.0462
 11
320
 21
19.1
  0
LINE
  8
0
 10
320
 20
19.1
 11
320.34
 21
19.0462
  0
LINE
  8
0
 10
320.34
 20
19.0462
 11
320.647
 21
18.8899
  0
LINE
  8
0
 10
320.647
 20
18.8899
 11
320.89
 21
18.6466
  0
LINE
  8
0
 10
320.89
 20
18.6466
 11
321.046
 21
18.3399
  0
LINE
  8
0
 10
321.046
 20
18.3399
 11
321.1
 21
18
  0
LINE
  8
0
 10
321.1
 20
18
 11
321.046
 21
17.6601
  0
LINE
  8
0
 10
321.046
 20
17.6601
 11
320.89
 21
17.3534
  0
LINE
  8
0
 10
320.89
 20
17.3534
 11
320.647
 21
17.1101
  0
LINE
  8
0
 10
320.647
 20
17.1101
 11
320.34
 21
16.9538
  0
LINE
  8
0
 10
320.34
 20
16.9538
 11
320
 21
16.9
  0
LINE
  8
0
 10
320
 20
16.9
 11
319.66
 21
16.9538
  0
LINE
  8
0
 10
199.66
 20
16.9538
 11
199.353
 21
17.1101
  0
LINE
  8
0
 10
199.353
 20
17.1101
 11
199.11
 21
17.3534
  0
LINE
  8
0
 10
199.11
 20
17.3534
 11
198.954
 21
17.6601
  0
LINE
  8
0
 10
198.954
 20
17.6601
 11
198.9
 21
18
  0
LINE
  8
0
 10
198.9
 20
18
 11
198.954
 21
18.3399
  0
LINE
  8
0
 10
198.954
 20
18.3399
 11
199.11
 21
18.6466
  0
LINE
  8
0
 10
199.11
 20
18.6466
 11
199.353
 21
18.8899
  0
LINE
  8
0
 10
199.353
 20
18.8899
 11
199.66
 21
19.0462
  0
LINE
  8
0
 10
199.66
 20
19.0462
 11
200
 21
19.1
  0
LINE
  8
0
 10
200
 20
19.1
 11
200.34
 21
19.0462
  0
LINE
  8
0
 10
200.34
 20
19.0462
 11
200.647
 21
18.8899
  0
LINE
  8
0
 10
200.647
 20
18.8899
 11
200.89
 21
18.6466
  0
LINE
  8
0
 10
200.89
 20
18.6466
 11
201.046
 21
18.3399
  0
LINE
  8
0
 10
201.046
 20
18.3399
 11
201.1
 21
18
  0
LINE
  8
0
 10
201.1
 20
18
 11
201.046
 21
17.6601
  0
LINE
  8
0
 10
201.046
 20
17.6601
 11
200.89
 21
17.3534
  0
LINE
  8
0
 10
200.89
 20
17.3534
 11
200.647
 21
17.1101
  0
LINE
  8
0
 10
200.647
 20
17.1101
 11
200.34
 21
16.9538
  0
LINE
  8
0
 10
200.34
 20
16.9538
 11
200
 21
16.9
  0
LINE
  8
0
 10
200
 20
16.9
 11
199.66
 21
16.9538
  0
LINE
  8
0
 10
47.6601
 20
16.9538
 11
47.3534
 21
17.1101
  0
LINE
  8
0
 10
47.3534
 20
17.1101
 11
47.1101
 21
17.3534
  0
LINE
  8
0
 10
47.1101
 20
17.3534
 11
46.9538
 21
17.6601
  0
LINE
  8
0
 10
46.9538
 20
17.6601
 11
46.9
 21
18
  0
LINE
  8
0
 10
46.9
 20
18
 11
46.9538
 21
18.3399
  0
LINE
  8
0
 10
46.9538
 20
18.3399
 11
47.1101
 21
18.6466
  0
LINE
  8
0
 10
47.1101
 20
18.6466
 11
47.3534
 21
18.8899
  0
LINE
  8
0
 10
47.3534
 20
18.8899
 11
47.6601
 21
19.0462
  0
LINE
  8
0
 10
47.6601
 20
19.0462
 11
48
 21
19.1
  0
LINE
  8
0
 10
48
 20
19.1
 11
48.3399
 21
19.0462
  0
LINE
  8
0
 10
48.3399
 20
19.0462
 11
48.6466
 21
18.8899
  0
LINE
  8
0
 10
48.6466
 20
18.8899
 11
48.8899
 21
18.6466
  0
LINE
  8
0
 10
48.8899
 20
18.6466
 11
49.0462
 21
18.3399
  0
LINE
  8
0
 10
49.0462
 20
18.3399
 11
49.1
 21
18
  0
LINE
  8
0
 10
49.1
 20
18
 11
49.0462
 21
17.6601
  0
LINE
  8
0
 10
49.0462
 20
17.6601
 11
48.8899
 21
17.3534
  0
LINE
  8
0
 10
48.8899
 20
17.3534
 11
48.6466
 21
17.1101
  0
LINE
  8
0
 10
48.6466
 20
17.1101
 11
48.3399
 21
16.9538
  0
LINE
  8
0
 10
48.3399
 20
16.9538
 11
48
 21
16.9
  0
LINE
  8
0
 10
48
 20
16.9
 11
47.6601
 21
16.9538
  0
LINE
  8
0
 10
288.246
 20
-2.1377
 11
288.246
 21
11.6621
  0
LINE
  8
0
 10
288.246
 20
11.6621
 11
302.046
 21
11.6621
  0
LINE
  8
0
 10
302.046
 20
11.6621
 11
302.046
 21
-2.1377
  0
LINE
  8
0
 10
302.046
 20
-2.1377
 11
288.246
 21
-2.1377
  0
LINE
  8
0
 10
29.7461
 20
-3.77148
 11
32.6152
 21
9.72656
  0
LINE
  8
0
 10
32.6152
 20
9.72656
 11
46.1133
 21
6.85742
  0
LINE
  8
0
 10
46.1133
 20
6.85742
 11
43.2441
 21
-6.64062
  0
LINE
  8
0
 10
43.2441
 20
-6.64062
 11
29.7461
 21
-3.77148
  0
LINE
  8
0
 10
204.193
 20
6.54883
 11
217.692
 21
9.41797
  0
LINE
  8
0
 10
217.692
 20
9.41797
 11
220.561
 21
-4.08105
  0
LINE
  8
0
 10
220.561
 20
-4.08105
 11
207.063
 21
-6.9502
  0
LINE
  8
0
 10
207.063
 20
-6.9502
 11
204.193
 21
6.54883
  0
LINE
  8
0
 10
-8.90039
 20
-6.90039
 11
-8.90039
 21
6.90039
  0
LINE
  8
0
 10
-8.90039
 20
6.90039
 11
4.90039
 21
6.90039
  0
LINE
  8
0
 10
4.90039
 20
6.90039
 11
4.90039
 21
-6.90039
  0
LINE
  8
0
 10
4.90039
 20
-6.90039
 11
-8.90039
 21
-6.90039
  0
LINE
  8
0
 10
10.1504
 20
-6.90039
 11
10.1504
 21
6.90039
  0
LINE
  8
0
 10
10.1504
 20
6.90039
 11
23.9502
 21
6.90039
  0
LINE
  8
0
 10
23.9502
 20
6.90039
 11
23.9502
 21
-6.90039
  0
LINE
  8
0
 10
23.9502
 20
-6.90039
 11
10.1504
 21
-6.90039
  0
LINE
  8
0
 10
264.434
 20
-6.90039
 11
264.434
 21
6.90039
  0
LINE
  8
0
 10
264.434
 20
6.90039
 11
278.234
 21
6.90039
  0
LINE
  8
0
 10
278.234
 20
6.90039
 11
278.234
 21
-6.90039
  0
LINE
  8
0
 10
278.234
 20
-6.90039
 11
264.434
 21
-6.90039
  0
LINE
  8
0
 10
245.384
 20
-6.90039
 11
245.384
 21
6.90039
  0
LINE
  8
0
 10
245.384
 20
6.90039
 11
259.184
 21
6.90039
  0
LINE
  8
0
 10
259.184
 20
6.90039
 11
259.184
 21
-6.90039
  0
LINE
  8
0
 10
259.184
 20
-6.90039
 11
245.384
 21
-6.90039
  0
LINE
  8
0
 10
226.334
 20
-6.90039
 11
226.334
 21
6.90039
  0
LINE
  8
0
 10
226.334
 20
6.90039
 11
240.134
 21
6.90039
  0
LINE
  8
0
 10
240.134
 20
6.90039
 11
240.134
 21
-6.90039
  0
LINE
  8
0
 10
240.134
 20
-6.90039
 11
226.334
 21
-6.90039
  0
LINE
  8
0
 10
48.3799
 20
-7.73242
 11
51.249
 21
5.7666
  0
LINE
  8
0
 10
51.249
 20
5.7666
 11
64.7471
 21
2.89648
  0
LINE
  8
0
 10
64.7471
 20
2.89648
 11
61.8779
 21
-10.6016
  0
LINE
  8
0
 10
61.8779
 20
-10.6016
 11
48.3799
 21
-7.73242
  0
LINE
  8
0
 10
185.56
 20
2.58789
 11
199.058
 21
5.45703
  0
LINE
  8
0
 10
199.058
 20
5.45703
 11
201.927
 21
-8.04102
  0
LINE
  8
0
 10
201.927
 20
-8.04102
 11
188.429
 21
-10.9111
  0
LINE
  8
0
 10
188.429
 20
-10.9111
 11
185.56
 21
2.58789
  0
LINE
  8
0
 10
67.0137
 20
-11.6934
 11
69.8828
 21
1.80566
  0
LINE
  8
0
 10
69.8828
 20
1.80566
 11
83.3809
 21
-1.06348
  0
LINE
  8
0
 10
83.3809
 20
-1.06348
 11
80.5117
 21
-14.5625
  0
LINE
  8
0
 10
80.5117
 20
-14.5625
 11
67.0137
 21
-11.6934
  0
LINE
  8
0
 10
166.926
 20
-1.37305
 11
180.424
 21
1.49609
  0
LINE
  8
0
 10
180.424
 20
1.49609
 11
183.294
 21
-12.002
  0
LINE
  8
0
 10
183.294
 20
-12.002
 11
169.795
 21
-14.8711
  0
LINE
  8
0
 10
169.795
 20
-14.8711
 11
166.926
 21
-1.37305
  0
LINE
  8
0
 10
85.6475
 20
-15.6533
 11
88.5166
 21
-2.15527
  0
LINE
  8
0
 10
88.5166
 20
-2.15527
 11
102.015
 21
-5.02441
  0
LINE
  8
0
 10
102.015
 20
-5.02441
 11
99.1455
 21
-18.5225
  0
LINE
  8
0
 10
99.1455
 20
-18.5225
 11
85.6475
 21
-15.6533
  0
LINE
  8
0
 10
148.292
 20
-5.33398
 11
161.791
 21
-2.46484
  0
LINE
  8
0
 10
161.791
 20
-2.46484
 11
164.66
 21
-15.9629
  0
LINE
  8
0
 10
164.66
 20
-15.9629
 11
151.161
 21
-18.832
  0
LINE
  8
0
 10
151.161
 20
-18.832
 11
148.292
 21
-5.33398
  0
LINE
  8
0
 10
104.281
 20
-19.6143
 11
107.15
 21
-6.11621
  0
LINE
  8
0
 10
107.15
 20
-6.11621
 11
120.648
 21
-8.98535
  0
LINE
  8
0
 10
120.648
 20
-8.98535
 11
117.779
 21
-22.4834
  0
LINE
  8
0
 10
117.779
 20
-22.4834
 11
104.281
 21
-19.6143
  0
LINE
  8
0
 10
129.658
 20
-9.29395
 11
143.157
 21
-6.4248
  0
LINE
  8
0
 10
143.157
 20
-6.4248
 11
146.026
 21
-19.9238
  0
LINE
  8
0
 10
146.026
 20
-19.9238
 11
132.528
 21
-22.793
  0
LINE
  8
0
 10
132.528
 20
-22.793
 11
129.658
 21
-9.29395
  0
LINE
  8
0
 10
293.009
 20
-21.1875
 11
293.009
 21
-7.3877
  0
LINE
  8
0
 10
293.009
 20
-7.3877
 11
306.809
 21
-7.3877
  0
LINE
  8
0
 10
306.809
 20
-7.3877
 11
306.809
 21
-21.1875
  0
LINE
  8
0
 10
306.809
 20
-21.1875
 11
293.009
 21
-21.1875
  0
LINE
  8
0
 10
35.1025
 20
-24.3857
 11
37.9717
 21
-10.8867
  0
LINE
  8
0
 10
37.9717
 20
-10.8867
 11
51.4697
 21
-13.7568
  0
LINE
  8
0
 10
51.4697
 20
-13.7568
 11
48.6006
 21
-27.2549
  0
LINE
  8
0
 10
48.6006
 20
-27.2549
 11
35.1025
 21
-24.3857
  0
LINE
  8
0
 10
198.837
 20
-14.0654
 11
212.336
 21
-11.1963
  0
LINE
  8
0
 10
212.336
 20
-11.1963
 11
215.205
 21
-24.6943
  0
LINE
  8
0
 10
215.205
 20
-24.6943
 11
201.706
 21
-27.5645
  0
LINE
  8
0
 10
201.706
 20
-27.5645
 11
198.837
 21
-14.0654
  0
LINE
  8
0
 10
240.026
 20
-25.9502
 11
240.026
 21
-12.1504
  0
LINE
  8
0
 10
240.026
 20
-12.1504
 11
253.826
 21
-12.1504
  0
LINE
  8
0
 10
253.826
 20
-12.1504
 11
253.826
 21
-25.9502
  0
LINE
  8
0
 10
253.826
 20
-25.9502
 11
240.026
 21
-25.9502
  0
LINE
  8
0
 10
220.976
 20
-25.9502
 11
220.976
 21
-12.1504
  0
LINE
  8
0
 10
220.976
 20
-12.1504
 11
234.776
 21
-12.1504
  0
LINE
  8
0
 10
234.776
 20
-12.1504
 11
234.776
 21
-25.9502
  0
LINE
  8
0
 10
234.776
 20
-25.9502
 11
220.976
 21
-25.9502
  0
LINE
  8
0
 10
-8.30469
 20
-25.9502
 11
-8.30469
 21
-12.1504
  0
LINE
  8
0
 10
-8.30469
 20
-12.1504
 11
5.49512
 21
-12.1504
  0
LINE
  8
0
 10
5.49512
 20
-12.1504
 11
5.49512
 21
-25.9502
  0
LINE
  8
0
 10
5.49512
 20
-25.9502
 11
-8.30469
 21
-25.9502
  0
LINE
  8
0
 10
15.5078
 20
-25.9502
 11
15.5078
 21
-12.1504
  0
LINE
  8
0
 10
15.5078
 20
-12.1504
 11
29.3076
 21
-12.1504
  0
LINE
  8
0
 10
29.3076
 20
-12.1504
 11
29.3076
 21
-25.9502
  0
LINE
  8
0
 10
29.3076
 20
-25.9502
 11
15.5078
 21
-25.9502
  0
LINE
  8
0
 10
263.839
 20
-25.9502
 11
263.839
 21
-12.1504
  0
LINE
  8
0
 10
263.839
 20
-12.1504
 11
277.639
 21
-12.1504
  0
LINE
  8
0
 10
277.639
 20
-12.1504
 11
277.639
 21
-25.9502
  0
LINE
  8
0
 10
277.639
 20
-25.9502
 11
263.839
 21
-25.9502
  0
LINE
  8
0
 10
53.7354
 20
-28.3467
 11
56.6055
 21
-14.8477
  0
LINE
  8
0
 10
56.6055
 20
-14.8477
 11
70.1035
 21
-17.7168
  0
LINE
  8
0
 10
70.1035
 20
-17.7168
 11
67.2344
 21
-31.2158
  0
LINE
  8
0
 10
67.2344
 20
-31.2158
 11
53.7354
 21
-28.3467
  0
LINE
  8
0
 10
180.203
 20
-18.0264
 11
193.702
 21
-15.1572
  0
LINE
  8
0
 10
193.702
 20
-15.1572
 11
196.571
 21
-28.6553
  0
LINE
  8
0
 10
196.571
 20
-28.6553
 11
183.073
 21
-31.5244
  0
LINE
  8
0
 10
183.073
 20
-31.5244
 11
180.203
 21
-18.0264
  0
LINE
  8
0
 10
72.3691
 20
-32.3066
 11
75.2383
 21
-18.8086
  0
LINE
  8
0
 10
75.2383
 20
-18.8086
 11
88.7373
 21
-21.6777
  0
LINE
  8
0
 10
88.7373
 20
-21.6777
 11
85.8682
 21
-35.1768
  0
LINE
  8
0
 10
85.8682
 20
-35.1768
 11
72.3691
 21
-32.3066
  0
LINE
  8
0
 10
161.57
 20
-21.9873
 11
175.068
 21
-19.1182
  0
LINE
  8
0
 10
175.068
 20
-19.1182
 11
177.937
 21
-32.6162
  0
LINE
  8
0
 10
177.937
 20
-32.6162
 11
164.439
 21
-35.4854
  0
LINE
  8
0
 10
164.439
 20
-35.4854
 11
161.57
 21
-21.9873
  0
LINE
  8
0
 10
-27.8399
 20
-24.0462
 11
-28.1466
 21
-23.8899
  0
LINE
  8
0
 10
-28.1466
 20
-23.8899
 11
-28.3899
 21
-23.6466
  0
LINE
  8
0
 10
-28.3899
 20
-23.6466
 11
-28.5462
 21
-23.3399
  0
LINE
  8
0
 10
-28.5462
 20
-23.3399
 11
-28.6
 21
-23
  0
LINE
  8
0
 10
-28.6
 20
-23
 11
-28.5462
 21
-22.6601
  0
LINE
  8
0
 10
-28.5462
 20
-22.6601
 11
-28.3899
 21
-22.3534
  0
LINE
  8
0
 10
-28.3899
 20
-22.3534
 11
-28.1466
 21
-22.1101
  0
LINE
  8
0
 10
-28.1466
 20
-22.1101
 11
-27.8399
 21
-21.9538
  0
LINE
  8
0
 10
-27.8399
 20
-21.9538
 11
-27.5
 21
-21.9
  0
LINE
  8
0
 10
-27.5
 20
-21.9
 11
-27.1601
 21
-21.9538
  0
LINE
  8
0
 10
-27.1601
 20
-21.9538
 11
-26.8534
 21
-22.1101
  0
LINE
  8
0
 10
-26.8534
 20
-22.1101
 11
-26.6101
 21
-22.3534
  0
LINE
  8
0
 10
-26.6101
 20
-22.3534
 11
-26.4538
 21
-22.6601
  0
LINE
  8
0
 10
-26.4538
 20
-22.6601
 11
-26.4
 21
-23
  0
LINE
  8
0
 10
-26.4
 20
-23
 11
-26.4538
 21
-23.3399
  0
LINE
  8
0
 10
-26.4538
 20
-23.3399
 11
-26.6101
 21
-23.6466
  0
LINE
  8
0
 10
-26.6101
 20
-23.6466
 11
-26.8534
 21
-23.8899
  0
LINE
  8
0
 10
-26.8534
 20
-23.8899
 11
-27.1601
 21
-24.0462
  0
LINE
  8
0
 10
-27.1601
 20
-24.0462
 11
-27.5
 21
-24.1
  0
LINE
  8
0
 10
-27.5
 20
-24.1
 11
-27.8399
 21
-24.0462
  0
LINE
  8
0
 10
319.66
 20
-24.0462
 11
319.353
 21
-23.8899
  0
LINE
  8
0
 10
319.353
 20
-23.8899
 11
319.11
 21
-23.6466
  0
LINE
  8
0
 10
319.11
 20
-23.6466
 11
318.954
 21
-23.3399
  0
LINE
  8
0
 10
318.954
 20
-23.3399
 11
318.9
 21
-23
  0
LINE
  8
0
 10
318.9
 20
-23
 11
318.954
 21
-22.6601
  0
LINE
  8
0
 10
318.954
 20
-22.6601
 11
319.11
 21
-22.3534
  0
LINE
  8
0
 10
319.11
 20
-22.3534
 11
319.353
 21
-22.1101
  0
LINE
  8
0
 10
319.353
 20
-22.1101
 11
319.66
 21
-21.9538
  0
LINE
  8
0
 10
319.66
 20
-21.9538
 11
320
 21
-21.9
  0
LINE
  8
0
 10
320
 20
-21.9
 11
320.34
 21
-21.9538
  0
LINE
  8
0
 10
320.34
 20
-21.9538
 11
320.647
 21
-22.1101
  0
LINE
  8
0
 10
320.647
 20
-22.1101
 11
320.89
 21
-22.3534
  0
LINE
  8
0
 10
320.89
 20
-22.3534
 11
321.046
 21
-22.6601
  0
LINE
  8
0
 10
321.046
 20
-22.6601
 11
321.1
 21
-23
  0
LINE
  8
0
 10
321.1
 20
-23
 11
321.046
 21
-23.3399
  0
LINE
  8
0
 10
321.046
 20
-23.3399
 11
320.89
 21
-23.6466
  0
LINE
  8
0
 10
320.89
 20
-23.6466
 11
320.647
 21
-23.8899
  0
LINE
  8
0
 10
320.647
 20
-23.8899
 11
320.34
 21
-24.0462
  0
LINE
  8
0
 10
320.34
 20
-24.0462
 11
320
 21
-24.1
  0
LINE
  8
0
 10
320
 20
-24.1
 11
319.66
 21
-24.0462
  0
LINE
  8
0
 10
91.0029
 20
-36.2676
 11
93.8721
 21
-22.7695
  0
LINE
  8
0
 10
93.8721
 20
-22.7695
 11
107.371
 21
-25.6387
  0
LINE
  8
0
 10
107.371
 20
-25.6387
 11
104.502
 21
-39.1367
  0
LINE
  8
0
 10
104.502
 20
-39.1367
 11
91.0029
 21
-36.2676
  0
LINE
  8
0
 10
142.936
 20
-25.9473
 11
156.434
 21
-23.0781
  0
LINE
  8
0
 10
156.434
 20
-23.0781
 11
159.304
 21
-36.5771
  0
LINE
  8
0
 10
159.304
 20
-36.5771
 11
145.805
 21
-39.4463
  0
LINE
  8
0
 10
145.805
 20
-39.4463
 11
142.936
 21
-25.9473
  0
LINE
  8
0
 10
297.772
 20
-40.2373
 11
297.772
 21
-26.4375
  0
LINE
  8
0
 10
297.772
 20
-26.4375
 11
311.571
 21
-26.4375
  0
LINE
  8
0
 10
311.571
 20
-26.4375
 11
311.571
 21
-40.2373
  0
LINE
  8
0
 10
311.571
 20
-40.2373
 11
297.772
 21
-40.2373
  0
LINE
  8
0
 10
124.302
 20
-29.9082
 11
137.801
 21
-27.0391
  0
LINE
  8
0
 10
137.801
 20
-27.0391
 11
140.67
 21
-40.5381
  0
LINE
  8
0
 10
140.67
 20
-40.5381
 11
127.172
 21
-43.4072
  0
LINE
  8
0
 10
127.172
 20
-43.4072
 11
124.302
 21
-29.9082
  0
LINE
  8
0
 10
252.824
 20
-48.4998
 11
252.471
 21
-48.3533
  0
LINE
  8
0
 10
252.471
 20
-48.3533
 11
252.324
 21
-47.9998
  0
LINE
  8
0
 10
252.324
 20
-47.9998
 11
252.324
 21
-28.8504
  0
LINE
  8
0
 10
252.324
 20
-28.8504
 11
252.471
 21
-28.4969
  0
LINE
  8
0
 10
252.471
 20
-28.4969
 11
252.824
 21
-28.3504
  0
LINE
  8
0
 10
252.824
 20
-28.3504
 11
258.824
 21
-28.3504
  0
LINE
  8
0
 10
258.824
 20
-28.3504
 11
259.178
 21
-28.4969
  0
LINE
  8
0
 10
259.178
 20
-28.4969
 11
259.324
 21
-28.8504
  0
LINE
  8
0
 10
259.324
 20
-28.8504
 11
259.324
 21
-44.9002
  0
LINE
  8
0
 10
259.324
 20
-44.9002
 11
260.863
 21
-44.9002
  0
LINE
  8
0
 10
260.863
 20
-44.9002
 11
260.762
 21
-44.6004
  0
LINE
  8
0
 10
260.762
 20
-44.6004
 11
260.762
 21
-31.6004
  0
LINE
  8
0
 10
260.762
 20
-31.6004
 11
260.908
 21
-31.2469
  0
LINE
  8
0
 10
260.908
 20
-31.2469
 11
261.262
 21
-31.1004
  0
LINE
  8
0
 10
261.262
 20
-31.1004
 11
274.262
 21
-31.1004
  0
LINE
  8
0
 10
274.262
 20
-31.1004
 11
274.615
 21
-31.2469
  0
LINE
  8
0
 10
274.615
 20
-31.2469
 11
274.762
 21
-31.6004
  0
LINE
  8
0
 10
274.762
 20
-31.6004
 11
274.762
 21
-44.6004
  0
LINE
  8
0
 10
274.762
 20
-44.6004
 11
274.662
 21
-44.9002
  0
LINE
  8
0
 10
274.662
 20
-44.9002
 11
276.2
 21
-44.9002
  0
LINE
  8
0
 10
276.2
 20
-44.9002
 11
276.2
 21
-28.8504
  0
LINE
  8
0
 10
276.2
 20
-28.8504
 11
276.347
 21
-28.4969
  0
LINE
  8
0
 10
276.347
 20
-28.4969
 11
276.7
 21
-28.3504
  0
LINE
  8
0
 10
276.7
 20
-28.3504
 11
282.7
 21
-28.3504
  0
LINE
  8
0
 10
282.7
 20
-28.3504
 11
283.054
 21
-28.4969
  0
LINE
  8
0
 10
283.054
 20
-28.4969
 11
283.2
 21
-28.8504
  0
LINE
  8
0
 10
283.2
 20
-28.8504
 11
283.2
 21
-47.9998
  0
LINE
  8
0
 10
283.2
 20
-47.9998
 11
283.054
 21
-48.3533
  0
LINE
  8
0
 10
283.054
 20
-48.3533
 11
282.7
 21
-48.4998
  0
LINE
  8
0
 10
282.7
 20
-48.4998
 11
252.824
 21
-48.4998
  0
LINE
  8
0
 10
35.7998
 20
-44.0098
 11
38.6689
 21
-30.5107
  0
LINE
  8
0
 10
38.6689
 20
-30.5107
 11
52.167
 21
-33.3799
  0
LINE
  8
0
 10
52.167
 20
-33.3799
 11
49.2979
 21
-46.8789
  0
LINE
  8
0
 10
49.2979
 20
-46.8789
 11
35.7998
 21
-44.0098
  0
LINE
  8
0
 10
16.1035
 20
-45
 11
16.1035
 21
-31.2002
  0
LINE
  8
0
 10
16.1035
 20
-31.2002
 11
29.9033
 21
-31.2002
  0
LINE
  8
0
 10
29.9033
 20
-31.2002
 11
29.9033
 21
-45
  0
LINE
  8
0
 10
29.9033
 20
-45
 11
16.1035
 21
-45
  0
LINE
  8
0
 10
-10.0908
 20
-45
 11
-10.0908
 21
-31.2002
  0
LINE
  8
0
 10
-10.0908
 20
-31.2002
 11
3.70898
 21
-31.2002
  0
LINE
  8
0
 10
3.70898
 20
-31.2002
 11
3.70898
 21
-45
  0
LINE
  8
0
 10
3.70898
 20
-45
 11
-10.0908
 21
-45
  0
LINE
  8
0
 10
210.856
 20
-45
 11
210.856
 21
-31.2002
  0
LINE
  8
0
 10
210.856
 20
-31.2002
 11
224.656
 21
-31.2002
  0
LINE
  8
0
 10
224.656
 20
-31.2002
 11
224.656
 21
-45
  0
LINE
  8
0
 10
224.656
 20
-45
 11
210.856
 21
-45
  0
LINE
  8
0
 10
229.906
 20
-45
 11
229.906
 21
-31.2002
  0
LINE
  8
0
 10
229.906
 20
-31.2002
 11
243.706
 21
-31.2002
  0
LINE
  8
0
 10
243.706
 20
-31.2002
 11
243.706
 21
-45
  0
LINE
  8
0
 10
243.706
 20
-45
 11
229.906
 21
-45
  0
LINE
  8
0
 10
188.823
 20
-35.6699
 11
202.321
 21
-32.8008
  0
LINE
  8
0
 10
202.321
 20
-32.8008
 11
205.19
 21
-46.2988
  0
LINE
  8
0
 10
205.19
 20
-46.2988
 11
191.692
 21
-49.168
  0
LINE
  8
0
 10
191.692
 20
-49.168
 11
188.823
 21
-35.6699
  0
LINE
  8
0
 10
54.4336
 20
-47.9707
 11
57.3027
 21
-34.4717
  0
LINE
  8
0
 10
57.3027
 20
-34.4717
 11
70.8008
 21
-37.3408
  0
LINE
  8
0
 10
70.8008
 20
-37.3408
 11
67.9316
 21
-50.8398
  0
LINE
  8
0
 10
67.9316
 20
-50.8398
 11
54.4336
 21
-47.9707
  0
LINE
  8
0
 10
170.189
 20
-39.6309
 11
183.687
 21
-36.7617
  0
LINE
  8
0
 10
183.687
 20
-36.7617
 11
186.557
 21
-50.2598
  0
LINE
  8
0
 10
186.557
 20
-50.2598
 11
173.058
 21
-53.1289
  0
LINE
  8
0
 10
173.058
 20
-53.1289
 11
170.189
 21
-39.6309
  0
LINE
  8
0
 10
73.0674
 20
-51.9307
 11
75.9365
 21
-38.4326
  0
LINE
  8
0
 10
75.9365
 20
-38.4326
 11
89.4346
 21
-41.3018
  0
LINE
  8
0
 10
89.4346
 20
-41.3018
 11
86.5654
 21
-54.7998
  0
LINE
  8
0
 10
86.5654
 20
-54.7998
 11
73.0674
 21
-51.9307
  0
LINE
  8
0
 10
151.555
 20
-43.5908
 11
165.054
 21
-40.7217
  0
LINE
  8
0
 10
165.054
 20
-40.7217
 11
167.923
 21
-54.2207
  0
LINE
  8
0
 10
167.923
 20
-54.2207
 11
154.424
 21
-57.0898
  0
LINE
  8
0
 10
154.424
 20
-57.0898
 11
151.555
 21
-43.5908
  0
LINE
  8
0
 10
91.7012
 20
-55.8916
 11
94.5703
 21
-42.3936
  0
LINE
  8
0
 10
94.5703
 20
-42.3936
 11
108.069
 21
-45.2627
  0
LINE
  8
0
 10
108.069
 20
-45.2627
 11
105.199
 21
-58.7607
  0
LINE
  8
0
 10
105.199
 20
-58.7607
 11
91.7012
 21
-55.8916
  0
LINE
  8
0
 10
132.921
 20
-47.5518
 11
146.42
 21
-44.6826
  0
LINE
  8
0
 10
146.42
 20
-44.6826
 11
149.289
 21
-58.1816
  0
LINE
  8
0
 10
149.289
 20
-58.1816
 11
135.791
 21
-61.0508
  0
LINE
  8
0
 10
135.791
 20
-61.0508
 11
132.921
 21
-47.5518
  0
LINE
  8
0
 10
-17.533
 20
-67.5498
 11
-17.8865
 21
-67.4033
  0
LINE
  8
0
 10
-17.8865
 20
-67.4033
 11
-18.033
 21
-67.0498
  0
LINE
  8
0
 10
-18.033
 20
-67.0498
 11
-18.033
 21
-47.9004
  0
LINE
  8
0
 10
-18.033
 20
-47.9004
 11
-17.8865
 21
-47.5469
  0
LINE
  8
0
 10
-17.8865
 20
-47.5469
 11
-17.533
 21
-47.4004
  0
LINE
  8
0
 10
-17.533
 20
-47.4004
 11
-11.533
 21
-47.4004
  0
LINE
  8
0
 10
-11.533
 20
-47.4004
 11
-11.1795
 21
-47.5469
  0
LINE
  8
0
 10
-11.1795
 20
-47.5469
 11
-11.033
 21
-47.9004
  0
LINE
  8
0
 10
-11.033
 20
-47.9004
 11
-11.033
 21
-63.9502
  0
LINE
  8
0
 10
-11.033
 20
-63.9502
 11
-9.49492
 21
-63.9502
  0
LINE
  8
0
 10
-9.49492
 20
-63.9502
 11
-9.5955
 21
-63.6504
  0
LINE
  8
0
 10
-9.5955
 20
-63.6504
 11
-9.5955
 21
-50.6504
  0
LINE
  8
0
 10
-9.5955
 20
-50.6504
 11
-9.44902
 21
-50.2969
  0
LINE
  8
0
 10
-9.44902
 20
-50.2969
 11
-9.0955
 21
-50.1504
  0
LINE
  8
0
 10
-9.0955
 20
-50.1504
 11
3.90448
 21
-50.1504
  0
LINE
  8
0
 10
3.90448
 20
-50.1504
 11
4.258
 21
-50.2969
  0
LINE
  8
0
 10
4.258
 20
-50.2969
 11
4.40448
 21
-50.6504
  0
LINE
  8
0
 10
4.40448
 20
-50.6504
 11
4.40448
 21
-63.6504
  0
LINE
  8
0
 10
4.40448
 20
-63.6504
 11
4.30487
 21
-63.9502
  0
LINE
  8
0
 10
4.30487
 20
-63.9502
 11
5.84296
 21
-63.9502
  0
LINE
  8
0
 10
5.84296
 20
-63.9502
 11
5.84296
 21
-47.9004
  0
LINE
  8
0
 10
5.84296
 20
-47.9004
 11
5.98944
 21
-47.5469
  0
LINE
  8
0
 10
5.98944
 20
-47.5469
 11
6.34296
 21
-47.4004
  0
LINE
  8
0
 10
6.34296
 20
-47.4004
 11
12.343
 21
-47.4004
  0
LINE
  8
0
 10
12.343
 20
-47.4004
 11
12.6965
 21
-47.5469
  0
LINE
  8
0
 10
12.6965
 20
-47.5469
 11
12.843
 21
-47.9004
  0
LINE
  8
0
 10
12.843
 20
-47.9004
 11
12.843
 21
-67.0498
  0
LINE
  8
0
 10
12.843
 20
-67.0498
 11
12.6965
 21
-67.4033
  0
LINE
  8
0
 10
12.6965
 20
-67.4033
 11
12.343
 21
-67.5498
  0
LINE
  8
0
 10
12.343
 20
-67.5498
 11
-17.533
 21
-67.5498
  0
LINE
  8
0
 10
21.4609
 20
-64.0498
 11
21.4609
 21
-50.25
  0
LINE
  8
0
 10
21.4609
 20
-50.25
 11
35.2607
 21
-50.25
  0
LINE
  8
0
 10
35.2607
 20
-50.25
 11
35.2607
 21
-64.0498
  0
LINE
  8
0
 10
35.2607
 20
-64.0498
 11
21.4609
 21
-64.0498
  0
LINE
  8
0
 10
246.575
 20
-64.0498
 11
246.575
 21
-50.25
  0
LINE
  8
0
 10
246.575
 20
-50.25
 11
260.375
 21
-50.25
  0
LINE
  8
0
 10
260.375
 20
-50.25
 11
260.375
 21
-64.0498
  0
LINE
  8
0
 10
260.375
 20
-64.0498
 11
246.575
 21
-64.0498
  0
LINE
  8
0
 10
220.381
 20
-64.0498
 11
220.381
 21
-50.25
  0
LINE
  8
0
 10
220.381
 20
-50.25
 11
234.181
 21
-50.25
  0
LINE
  8
0
 10
234.181
 20
-50.25
 11
234.181
 21
-64.0498
  0
LINE
  8
0
 10
234.181
 20
-64.0498
 11
220.381
 21
-64.0498
  0
LINE
  8
0
 10
197.442
 20
-53.3135
 11
210.94
 21
-50.4443
  0
LINE
  8
0
 10
210.94
 20
-50.4443
 11
213.809
 21
-63.9424
  0
LINE
  8
0
 10
213.809
 20
-63.9424
 11
200.311
 21
-66.8115
  0
LINE
  8
0
 10
200.311
 20
-66.8115
 11
197.442
 21
-53.3135
  0
LINE
  8
0
 10
41.1562
 20
-64.624
 11
44.0254
 21
-51.125
  0
LINE
  8
0
 10
44.0254
 20
-51.125
 11
57.5234
 21
-53.9941
  0
LINE
  8
0
 10
57.5234
 20
-53.9941
 11
54.6543
 21
-67.4932
  0
LINE
  8
0
 10
54.6543
 20
-67.4932
 11
41.1562
 21
-64.624
  0
LINE
  8
0
 10
-27.8399
 20
-54.0462
 11
-28.1466
 21
-53.8899
  0
LINE
  8
0
 10
-28.1466
 20
-53.8899
 11
-28.3899
 21
-53.6466
  0
LINE
  8
0
 10
-28.3899
 20
-53.6466
 11
-28.5462
 21
-53.3399
  0
LINE
  8
0
 10
-28.5462
 20
-53.3399
 11
-28.6
 21
-53
  0
LINE
  8
0
 10
-28.6
 20
-53
 11
-28.5462
 21
-52.6601
  0
LINE
  8
0
 10
-28.5462
 20
-52.6601
 11
-28.3899
 21
-52.3534
  0
LINE
  8
0
 10
-28.3899
 20
-52.3534
 11
-28.1466
 21
-52.1101
  0
LINE
  8
0
 10
-28.1466
 20
-52.1101
 11
-27.8399
 21
-51.9538
  0
LINE
  8
0
 10
-27.8399
 20
-51.9538
 11
-27.5
 21
-51.9
  0
LINE
  8
0
 10
-27.5
 20
-51.9
 11
-27.1601
 21
-51.9538
  0
LINE
  8
0
 10
-27.1601
 20
-51.9538
 11
-26.8534
 21
-52.1101
  0
LINE
  8
0
 10
-26.8534
 20
-52.1101
 11
-26.6101
 21
-52.3534
  0
LINE
  8
0
 10
-26.6101
 20
-52.3534
 11
-26.4538
 21
-52.6601
  0
LINE
  8
0
 10
-26.4538
 20
-52.6601
 11
-26.4
 21
-53
  0
LINE
  8
0
 10
-26.4
 20
-53
 11
-26.4538
 21
-53.3399
  0
LINE
  8
0
 10
-26.4538
 20
-53.3399
 11
-26.6101
 21
-53.6466
  0
LINE
  8
0
 10
-26.6101
 20
-53.6466
 11
-26.8534
 21
-53.8899
  0
LINE
  8
0
 10
-26.8534
 20
-53.8899
 11
-27.1601
 21
-54.0462
  0
LINE
  8
0
 10
-27.1601
 20
-54.0462
 11
-27.5
 21
-54.1
  0
LINE
  8
0
 10
-27.5
 20
-54.1
 11
-27.8399
 21
-54.0462
  0
LINE
  8
0
 10
319.66
 20
-54.0462
 11
319.353
 21
-53.8899
  0
LINE
  8
0
 10
319.353
 20
-53.8899
 11
319.11
 21
-53.6466
  0
LINE
  8
0
 10
319.11
 20
-53.6466
 11
318.954
 21
-53.3399
  0
LINE
  8
0
 10
318.954
 20
-53.3399
 11
318.9
 21
-53
  0
LINE
  8
0
 10
318.9
 20
-53
 11
318.954
 21
-52.6601
  0
LINE
  8
0
 10
318.954
 20
-52.6601
 11
319.11
 21
-52.3534
  0
LINE
  8
0
 10
319.11
 20
-52.3534
 11
319.353
 21
-52.1101
  0
LINE
  8
0
 10
319.353
 20
-52.1101
 11
319.66
 21
-51.9538
  0
LINE
  8
0
 10
319.66
 20
-51.9538
 11
320
 21
-51.9
  0
LINE
  8
0
 10
320
 20
-51.9
 11
320.34
 21
-51.9538
  0
LINE
  8
0
 10
320.34
 20
-51.9538
 11
320.647
 21
-52.1101
  0
LINE
  8
0
 10
320.647
 20
-52.1101
 11
320.89
 21
-52.3534
  0
LINE
  8
0
 10
320.89
 20
-52.3534
 11
321.046
 21
-52.6601
  0
LINE
  8
0
 10
321.046
 20
-52.6601
 11
321.1
 21
-53
  0
LINE
  8
0
 10
321.1
 20
-53
 11
321.046
 21
-53.3399
  0
LINE
  8
0
 10
321.046
 20
-53.3399
 11
320.89
 21
-53.6466
  0
LINE
  8
0
 10
320.89
 20
-53.6466
 11
320.647
 21
-53.8899
  0
LINE
  8
0
 10
320.647
 20
-53.8899
 11
320.34
 21
-54.0462
  0
LINE
  8
0
 10
320.34
 20
-54.0462
 11
320
 21
-54.1
  0
LINE
  8
0
 10
320
 20
-54.1
 11
319.66
 21
-54.0462
  0
LINE
  8
0
 10
178.808
 20
-57.2744
 11
192.306
 21
-54.4053
  0
LINE
  8
0
 10
192.306
 20
-54.4053
 11
195.176
 21
-67.9033
  0
LINE
  8
0
 10
195.176
 20
-67.9033
 11
181.677
 21
-70.7725
  0
LINE
  8
0
 10
181.677
 20
-70.7725
 11
178.808
 21
-57.2744
  0
LINE
  8
0
 10
277.531
 20
-68.8125
 11
277.531
 21
-55.0127
  0
LINE
  8
0
 10
277.531
 20
-55.0127
 11
291.331
 21
-55.0127
  0
LINE
  8
0
 10
291.331
 20
-55.0127
 11
291.331
 21
-68.8125
  0
LINE
  8
0
 10
291.331
 20
-68.8125
 11
277.531
 21
-68.8125
  0
LINE
  8
0
 10
59.79
 20
-68.584
 11
62.6592
 21
-55.0859
  0
LINE
  8
0
 10
62.6592
 20
-55.0859
 11
76.1572
 21
-57.9551
  0
LINE
  8
0
 10
76.1572
 20
-57.9551
 11
73.2881
 21
-71.4531
  0
LINE
  8
0
 10
73.2881
 20
-71.4531
 11
59.79
 21
-68.584
  0
LINE
  8
0
 10
160.174
 20
-61.2344
 11
173.673
 21
-58.3652
  0
LINE
  8
0
 10
173.673
 20
-58.3652
 11
176.542
 21
-71.8643
  0
LINE
  8
0
 10
176.542
 20
-71.8643
 11
163.044
 21
-74.7334
  0
LINE
  8
0
 10
163.044
 20
-74.7334
 11
160.174
 21
-61.2344
  0
LINE
  8
0
 10
78.4238
 20
-72.5449
 11
81.293
 21
-59.0469
  0
LINE
  8
0
 10
81.293
 20
-59.0469
 11
94.791
 21
-61.916
  0
LINE
  8
0
 10
94.791
 20
-61.916
 11
91.9219
 21
-75.4141
  0
LINE
  8
0
 10
91.9219
 20
-75.4141
 11
78.4238
 21
-72.5449
  0
LINE
  8
0
 10
141.541
 20
-65.1953
 11
155.039
 21
-62.3262
  0
LINE
  8
0
 10
155.039
 20
-62.3262
 11
157.908
 21
-75.8252
  0
LINE
  8
0
 10
157.908
 20
-75.8252
 11
144.41
 21
-78.6943
  0
LINE
  8
0
 10
144.41
 20
-78.6943
 11
141.541
 21
-65.1953
  0
LINE
  8
0
 10
97.0566
 20
-76.5059
 11
99.9268
 21
-63.0068
  0
LINE
  8
0
 10
99.9268
 20
-63.0068
 11
113.425
 21
-65.877
  0
LINE
  8
0
 10
113.425
 20
-65.877
 11
110.556
 21
-79.375
  0
LINE
  8
0
 10
110.556
 20
-79.375
 11
97.0566
 21
-76.5059
  0
LINE
  8
0
 10
-16.6387
 20
-83.0996
 11
-16.6387
 21
-69.2998
  0
LINE
  8
0
 10
-16.6387
 20
-69.2998
 11
-2.83887
 21
-69.2998
  0
LINE
  8
0
 10
-2.83887
 20
-69.2998
 11
-2.83887
 21
-83.0996
  0
LINE
  8
0
 10
-2.83887
 20
-83.0996
 11
-16.6387
 21
-83.0996
  0
LINE
  8
0
 10
41.8535
 20
-84.2471
 11
44.7227
 21
-70.749
  0
LINE
  8
0
 10
44.7227
 20
-70.749
 11
58.2217
 21
-73.6182
  0
LINE
  8
0
 10
58.2217
 20
-73.6182
 11
55.3525
 21
-87.1172
  0
LINE
  8
0
 10
55.3525
 20
-87.1172
 11
41.8535
 21
-84.2471
  0
LINE
  8
0
 10
192.086
 20
-73.9277
 11
205.584
 21
-71.0586
  0
LINE
  8
0
 10
205.584
 20
-71.0586
 11
208.453
 21
-84.5566
  0
LINE
  8
0
 10
208.453
 20
-84.5566
 11
194.955
 21
-87.4258
  0
LINE
  8
0
 10
194.955
 20
-87.4258
 11
192.086
 21
-73.9277
  0
LINE
  8
0
 10
89.3618
 20
-97.2589
 11
89.0464
 21
-97.0422
  0
LINE
  8
0
 10
89.0464
 20
-97.0422
 11
88.9767
 21
-96.6659
  0
LINE
  8
0
 10
88.9767
 20
-96.6659
 11
92.3136
 21
-80.9668
  0
LINE
  8
0
 10
92.3136
 20
-80.9668
 11
90.8091
 21
-80.647
  0
LINE
  8
0
 10
90.8091
 20
-80.647
 11
90.8452
 21
-80.9612
  0
LINE
  8
0
 10
90.8452
 20
-80.9612
 11
88.1423
 21
-93.6771
  0
LINE
  8
0
 10
88.1423
 20
-93.6771
 11
87.9255
 21
-93.9925
  0
LINE
  8
0
 10
87.9255
 20
-93.9925
 11
87.5493
 21
-94.0623
  0
LINE
  8
0
 10
87.5493
 20
-94.0623
 11
74.8334
 21
-91.3594
  0
LINE
  8
0
 10
74.8334
 20
-91.3594
 11
74.5181
 21
-91.1426
  0
LINE
  8
0
 10
74.5181
 20
-91.1426
 11
74.4483
 21
-90.7664
  0
LINE
  8
0
 10
74.4483
 20
-90.7664
 11
77.1511
 21
-78.0505
  0
LINE
  8
0
 10
77.1511
 20
-78.0505
 11
77.3109
 21
-77.7779
  0
LINE
  8
0
 10
77.3109
 20
-77.7779
 11
75.8064
 21
-77.4581
  0
LINE
  8
0
 10
75.8064
 20
-77.4581
 11
72.4695
 21
-93.1572
  0
LINE
  8
0
 10
72.4695
 20
-93.1572
 11
72.2527
 21
-93.4725
  0
LINE
  8
0
 10
72.2527
 20
-93.4725
 11
71.8764
 21
-93.5423
  0
LINE
  8
0
 10
71.8764
 20
-93.5423
 11
66.0076
 21
-92.2948
  0
LINE
  8
0
 10
66.0076
 20
-92.2948
 11
65.6922
 21
-92.0781
  0
LINE
  8
0
 10
65.6922
 20
-92.0781
 11
65.6224
 21
-91.7018
  0
LINE
  8
0
 10
65.6224
 20
-91.7018
 11
69.6038
 21
-72.9709
  0
LINE
  8
0
 10
69.6038
 20
-72.9709
 11
69.8206
 21
-72.6555
  0
LINE
  8
0
 10
69.8206
 20
-72.6555
 11
70.1968
 21
-72.5858
  0
LINE
  8
0
 10
70.1968
 20
-72.5858
 11
99.42
 21
-78.7973
  0
LINE
  8
0
 10
99.42
 20
-78.7973
 11
99.7353
 21
-79.0141
  0
LINE
  8
0
 10
99.7353
 20
-79.0141
 11
99.8051
 21
-79.3904
  0
LINE
  8
0
 10
99.8051
 20
-79.3904
 11
95.8237
 21
-98.1213
  0
LINE
  8
0
 10
95.8237
 20
-98.1213
 11
95.6069
 21
-98.4366
  0
LINE
  8
0
 10
95.6069
 20
-98.4366
 11
95.2307
 21
-98.5064
  0
LINE
  8
0
 10
95.2307
 20
-98.5064
 11
89.3618
 21
-97.2589
  0
LINE
  8
0
 10
296.581
 20
-87.8623
 11
296.581
 21
-74.0625
  0
LINE
  8
0
 10
296.581
 20
-74.0625
 11
310.381
 21
-74.0625
  0
LINE
  8
0
 10
310.381
 20
-74.0625
 11
310.381
 21
-87.8623
  0
LINE
  8
0
 10
310.381
 20
-87.8623
 11
296.581
 21
-87.8623
  0
LINE
  8
0
 10
277.531
 20
-87.8623
 11
277.531
 21
-74.0625
  0
LINE
  8
0
 10
277.531
 20
-74.0625
 11
291.331
 21
-74.0625
  0
LINE
  8
0
 10
291.331
 20
-74.0625
 11
291.331
 21
-87.8623
  0
LINE
  8
0
 10
291.331
 20
-87.8623
 11
277.531
 21
-87.8623
  0
LINE
  8
0
 10
258.481
 20
-87.8623
 11
258.481
 21
-74.0625
  0
LINE
  8
0
 10
258.481
 20
-74.0625
 11
272.281
 21
-74.0625
  0
LINE
  8
0
 10
272.281
 20
-74.0625
 11
272.281
 21
-87.8623
  0
LINE
  8
0
 10
272.281
 20
-87.8623
 11
258.481
 21
-87.8623
  0
LINE
  8
0
 10
147.712
 20
-100.231
 11
147.495
 21
-99.9158
  0
LINE
  8
0
 10
147.495
 20
-99.9158
 11
143.514
 21
-81.1849
  0
LINE
  8
0
 10
143.514
 20
-81.1849
 11
143.583
 21
-80.8087
  0
LINE
  8
0
 10
143.583
 20
-80.8087
 11
143.899
 21
-80.5919
  0
LINE
  8
0
 10
143.899
 20
-80.5919
 11
173.122
 21
-74.3803
  0
LINE
  8
0
 10
173.122
 20
-74.3803
 11
173.498
 21
-74.4501
  0
LINE
  8
0
 10
173.498
 20
-74.4501
 11
173.715
 21
-74.7654
  0
LINE
  8
0
 10
173.715
 20
-74.7654
 11
177.696
 21
-93.4964
  0
LINE
  8
0
 10
177.696
 20
-93.4964
 11
177.626
 21
-93.8726
  0
LINE
  8
0
 10
177.626
 20
-93.8726
 11
177.311
 21
-94.0894
  0
LINE
  8
0
 10
177.311
 20
-94.0894
 11
171.442
 21
-95.3369
  0
LINE
  8
0
 10
171.442
 20
-95.3369
 11
171.066
 21
-95.2671
  0
LINE
  8
0
 10
171.066
 20
-95.2671
 11
170.849
 21
-94.9518
  0
LINE
  8
0
 10
170.849
 20
-94.9518
 11
167.512
 21
-79.2527
  0
LINE
  8
0
 10
167.512
 20
-79.2527
 11
166.008
 21
-79.5725
  0
LINE
  8
0
 10
166.008
 20
-79.5725
 11
166.169
 21
-79.8448
  0
LINE
  8
0
 10
166.169
 20
-79.8448
 11
168.871
 21
-92.5607
  0
LINE
  8
0
 10
168.871
 20
-92.5607
 11
168.802
 21
-92.937
  0
LINE
  8
0
 10
168.802
 20
-92.937
 11
168.486
 21
-93.1537
  0
LINE
  8
0
 10
168.486
 20
-93.1537
 11
155.77
 21
-95.8566
  0
LINE
  8
0
 10
155.77
 20
-95.8566
 11
155.394
 21
-95.7868
  0
LINE
  8
0
 10
155.394
 20
-95.7868
 11
155.177
 21
-95.4715
  0
LINE
  8
0
 10
155.177
 20
-95.4715
 11
152.474
 21
-82.7556
  0
LINE
  8
0
 10
152.474
 20
-82.7556
 11
152.51
 21
-82.4416
  0
LINE
  8
0
 10
152.51
 20
-82.4416
 11
151.005
 21
-82.7614
  0
LINE
  8
0
 10
151.005
 20
-82.7614
 11
154.342
 21
-98.4605
  0
LINE
  8
0
 10
154.342
 20
-98.4605
 11
154.272
 21
-98.8367
  0
LINE
  8
0
 10
154.272
 20
-98.8367
 11
153.957
 21
-99.0535
  0
LINE
  8
0
 10
153.957
 20
-99.0535
 11
148.088
 21
-100.301
  0
LINE
  8
0
 10
148.088
 20
-100.301
 11
147.712
 21
-100.231
  0
LINE
  8
0
 10
102.413
 20
-97.1201
 11
105.282
 21
-83.6211
  0
LINE
  8
0
 10
105.282
 20
-83.6211
 11
118.781
 21
-86.4902
  0
LINE
  8
0
 10
118.781
 20
-86.4902
 11
115.912
 21
-99.9893
  0
LINE
  8
0
 10
115.912
 20
-99.9893
 11
102.413
 21
-97.1201
  0
LINE
  8
0
 10
-27.8399
 20
-96.5462
 11
-28.1466
 21
-96.3899
  0
LINE
  8
0
 10
-28.1466
 20
-96.3899
 11
-28.3899
 21
-96.1466
  0
LINE
  8
0
 10
-28.3899
 20
-96.1466
 11
-28.5462
 21
-95.8399
  0
LINE
  8
0
 10
-28.5462
 20
-95.8399
 11
-28.6
 21
-95.5
  0
LINE
  8
0
 10
-28.6
 20
-95.5
 11
-28.5462
 21
-95.1601
  0
LINE
  8
0
 10
-28.5462
 20
-95.1601
 11
-28.3899
 21
-94.8534
  0
LINE
  8
0
 10
-28.3899
 20
-94.8534
 11
-28.1466
 21
-94.6101
  0
LINE
  8
0
 10
-28.1466
 20
-94.6101
 11
-27.8399
 21
-94.4538
  0
LINE
  8
0
 10
-27.8399
 20
-94.4538
 11
-27.5
 21
-94.4
  0
LINE
  8
0
 10
-27.5
 20
-94.4
 11
-27.1601
 21
-94.4538
  0
LINE
  8
0
 10
-27.1601
 20
-94.4538
 11
-26.8534
 21
-94.6101
  0
LINE
  8
0
 10
-26.8534
 20
-94.6101
 11
-26.6101
 21
-94.8534
  0
LINE
  8
0
 10
-26.6101
 20
-94.8534
 11
-26.4538
 21
-95.1601
  0
LINE
  8
0
 10
-26.4538
 20
-95.1601
 11
-26.4
 21
-95.5
  0
LINE
  8
0
 10
-26.4
 20
-95.5
 11
-26.4538
 21
-95.8399
  0
LINE
  8
0
 10
-26.4538
 20
-95.8399
 11
-26.6101
 21
-96.1466
  0
LINE
  8
0
 10
-26.6101
 20
-96.1466
 11
-26.8534
 21
-96.3899
  0
LINE
  8
0
 10
-26.8534
 20
-96.3899
 11
-27.1601
 21
-96.5462
  0
LINE
  8
0
 10
-27.1601
 20
-96.5462
 11
-27.5
 21
-96.6
  0
LINE
  8
0
 10
-27.5
 20
-96.6
 11
-27.8399
 21
-96.5462
  0
LINE
  8
0
 10
47.6601
 20
-96.5462
 11
47.3534
 21
-96.3899
  0
LINE
  8
0
 10
47.3534
 20
-96.3899
 11
47.1101
 21
-96.1466
  0
LINE
  8
0
 10
47.1101
 20
-96.1466
 11
46.9538
 21
-95.8399
  0
LINE
  8
0
 10
46.9538
 20
-95.8399
 11
46.9
 21
-95.5
  0
LINE
  8
0
 10
46.9
 20
-95.5
 11
46.9538
 21
-95.1601
  0
LINE
  8
0
 10
46.9538
 20
-95.1601
 11
47.1101
 21
-94.8534
  0
LINE
  8
0
 10
47.1101
 20
-94.8534
 11
47.3534
 21
-94.6101
  0
LINE
  8
0
 10
47.3534
 20
-94.6101
 11
47.6601
 21
-94.4538
  0
LINE
  8
0
 10
47.6601
 20
-94.4538
 11
48
 21
-94.4
  0
LINE
  8
0
 10
48
 20
-94.4
 11
48.3399
 21
-94.4538
  0
LINE
  8
0
 10
48.3399
 20
-94.4538
 11
48.6466
 21
-94.6101
  0
LINE
  8
0
 10
48.6466
 20
-94.6101
 11
48.8899
 21
-94.8534
  0
LINE
  8
0
 10
48.8899
 20
-94.8534
 11
49.0462
 21
-95.1601
  0
LINE
  8
0
 10
49.0462
 20
-95.1601
 11
49.1
 21
-95.5
  0
LINE
  8
0
 10
49.1
 20
-95.5
 11
49.0462
 21
-95.8399
  0
LINE
  8
0
 10
49.0462
 20
-95.8399
 11
48.8899
 21
-96.1466
  0
LINE
  8
0
 10
48.8899
 20
-96.1466
 11
48.6466
 21
-96.3899
  0
LINE
  8
0
 10
48.6466
 20
-96.3899
 11
48.3399
 21
-96.5462
  0
LINE
  8
0
 10
48.3399
 20
-96.5462
 11
48
 21
-96.6
  0
LINE
  8
0
 10
48
 20
-96.6
 11
47.6601
 21
-96.5462
  0
LINE
  8
0
 10
199.66
 20
-96.5462
 11
199.353
 21
-96.3899
  0
LINE
  8
0
 10
199.353
 20
-96.3899
 11
199.11
 21
-96.1466
  0
LINE
  8
0
 10
199.11
 20
-96.1466
 11
198.954
 21
-95.8399
  0
LINE
  8
0
 10
198.954
 20
-95.8399
 11
198.9
 21
-95.5
  0
LINE
  8
0
 10
198.9
 20
-95.5
 11
198.954
 21
-95.1601
  0
LINE
  8
0
 10
198.954
 20
-95.1601
 11
199.11
 21
-94.8534
  0
LINE
  8
0
 10
199.11
 20
-94.8534
 11
199.353
 21
-94.6101
  0
LINE
  8
0
 10
199.353
 20
-94.6101
 11
199.66
 21
-94.4538
  0
LINE
  8
0
 10
199.66
 20
-94.4538
 11
200
 21
-94.4
  0
LINE
  8
0
 10
200
 20
-94.4
 11
200.34
 21
-94.4538
  0
LINE
  8
0
 10
200.34
 20
-94.4538
 11
200.647
 21
-94.6101
  0
LINE
  8
0
 10
200.647
 20
-94.6101
 11
200.89
 21
-94.8534
  0
LINE
  8
0
 10
200.89
 20
-94.8534
 11
201.046
 21
-95.1601
  0
LINE
  8
0
 10
201.046
 20
-95.1601
 11
201.1
 21
-95.5
  0
LINE
  8
0
 10
201.1
 20
-95.5
 11
201.046
 21
-95.8399
  0
LINE
  8
0
 10
201.046
 20
-95.8399
 11
200.89
 21
-96.1466
  0
LINE
  8
0
 10
200.89
 20
-96.1466
 11
200.647
 21
-96.3899
  0
LINE
  8
0
 10
200.647
 20
-96.3899
 11
200.34
 21
-96.5462
  0
LINE
  8
0
 10
200.34
 20
-96.5462
 11
200
 21
-96.6
  0
LINE
  8
0
 10
200
 20
-96.6
 11
199.66
 21
-96.5462
  0
LINE
  8
0
 10
319.66
 20
-96.5462
 11
319.353
 21
-96.3899
  0
LINE
  8
0
 10
319.353
 20
-96.3899
 11
319.11
 21
-96.1466
  0
LINE
  8
0
 10
319.11
 20
-96.1466
 11
318.954
 21
-95.8399
  0
LINE
  8
0
 10
318.954
 20
-95.8399
 11
318.9
 21
-95.5
  0
LINE
  8
0
 10
318.9
 20
-95.5
 11
318.954
 21
-95.1601
  0
LINE
  8
0
 10
318.954
 20
-95.1601
 11
319.11
 21
-94.8534
  0
LINE
  8
0
 10
319.11
 20
-94.8534
 11
319.353
 21
-94.6101
  0
LINE
  8
0
 10
319.353
 20
-94.6101
 11
319.66
 21
-94.4538
  0
LINE
  8
0
 10
319.66
 20
-94.4538
 11
320
 21
-94.4
  0
LINE
  8
0
 10
320
 20
-94.4
 11
320.34
 21
-94.4538
  0
LINE
  8
0
 10
320.34
 20
-94.4538
 11
320.647
 21
-94.6101
  0
LINE
  8
0
 10
320.647
 20
-94.6101
 11
320.89
 21
-94.8534
  0
LINE
  8
0
 10
320.89
 20
-94.8534
 11
321.046
 21
-95.1601
  0
LINE
  8
0
 10
321.046
 20
-95.1601
 11
321.1
 21
-95.5
  0
LINE
  8
0
 10
321.1
 20
-95.5
 11
321.046
 21
-95.8399
  0
LINE
  8
0
 10
321.046
 20
-95.8399
 11
320.89
 21
-96.1466
  0
LINE
  8
0
 10
320.89
 20
-96.1466
 11
320.647
 21
-96.3899
  0
LINE
  8
0
 10
320.647
 20
-96.3899
 11
320.34
 21
-96.5462
  0
LINE
  8
0
 10
320.34
 20
-96.5462
 11
320
 21
-96.6
  0
LINE
  8
0
 10
320
 20
-96.6
 11
319.66
 21
-96.5462
  0
ENDSEC
  0
SECTION
  2
OBJECTS
  0
DICTIONARY
  0
ENDSEC
  0
EOF
