  0
SECTION
  2
BLOCKS
  0
ENDSEC
  0
SECTION
  2
ENTITIES
  0
LINE
  8
0
 10
128.673
 20
-119.194
 11
195.771
 21
-105.525
  0
LINE
  8
0
 10
195.771
 20
-105.525
 11
313.639
 21
-105.525
  0
LINE
  8
0
 10
313.639
 20
-105.525
 11
316.757
 21
-105.198
  0
LINE
  8
0
 10
316.757
 20
-105.198
 11
319.74
 21
-104.229
  0
LINE
  8
0
 10
319.74
 20
-104.229
 11
322.455
 21
-102.661
  0
LINE
  8
0
 10
322.455
 20
-102.661
 11
324.786
 21
-100.562
  0
LINE
  8
0
 10
324.786
 20
-100.562
 11
326.629
 21
-98.0254
  0
LINE
  8
0
 10
326.629
 20
-98.0254
 11
327.905
 21
-95.1606
  0
LINE
  8
0
 10
327.905
 20
-95.1606
 11
328.639
 21
-90.5254
  0
LINE
  8
0
 10
328.639
 20
-90.5254
 11
328.639
 21
12.3447
  0
LINE
  8
0
 10
328.639
 20
12.3447
 11
328.311
 21
15.4634
  0
LINE
  8
0
 10
328.311
 20
15.4634
 11
327.342
 21
18.4458
  0
LINE
  8
0
 10
327.342
 20
18.4458
 11
325.774
 21
21.1615
  0
LINE
  8
0
 10
325.774
 20
21.1615
 11
323.676
 21
23.4919
  0
LINE
  8
0
 10
323.676
 20
23.4919
 11
321.139
 21
25.3351
  0
LINE
  8
0
 10
321.139
 20
25.3351
 11
318.274
 21
26.6106
  0
LINE
  8
0
 10
318.274
 20
26.6106
 11
313.639
 21
27.3447
  0
LINE
  8
0
 10
313.639
 20
27.3447
 11
-25.6406
 21
27.3447
  0
LINE
  8
0
 10
-25.6406
 20
27.3447
 11
-28.7593
 21
27.0169
  0
LINE
  8
0
 10
-28.7593
 20
27.0169
 11
-31.7417
 21
26.0479
  0
LINE
  8
0
 10
-31.7417
 20
26.0479
 11
-34.4574
 21
24.48
  0
LINE
  8
0
 10
-34.4574
 20
24.48
 11
-36.7878
 21
22.3817
  0
LINE
  8
0
 10
-36.7878
 20
22.3817
 11
-38.631
 21
19.8447
  0
LINE
  8
0
 10
-38.631
 20
19.8447
 11
-39.9065
 21
16.98
  0
LINE
  8
0
 10
-39.9065
 20
16.98
 11
-40.6406
 21
12.3447
  0
LINE
  8
0
 10
-40.6406
 20
12.3447
 11
-40.6406
 21
-90.5322
  0
LINE
  8
0
 10
-40.6406
 20
-90.5322
 11
-40.3128
 21
-93.6509
  0
LINE
  8
0
 10
-40.3128
 20
-93.6509
 11
-39.3438
 21
-96.6333
  0
LINE
  8
0
 10
-39.3438
 20
-96.6333
 11
-37.7759
 21
-99.349
  0
LINE
  8
0
 10
-37.7759
 20
-99.349
 11
-35.6776
 21
-101.679
  0
LINE
  8
0
 10
-35.6776
 20
-101.679
 11
-33.1406
 21
-103.523
  0
LINE
  8
0
 10
-33.1406
 20
-103.523
 11
-30.2759
 21
-104.798
  0
LINE
  8
0
 10
-30.2759
 20
-104.798
 11
-25.6406
 21
-105.532
  0
LINE
  8
0
 10
-25.6406
 20
-105.532
 11
56.8797
 21
-105.532
  0
LINE
  8
0
 10
56.8797
 20
-105.532
 11
120.538
 21
-119.164
  0
LINE
  8
0
 10
120.538
 20
-119.164
 11
123.679
 21
-119.496
  0
LINE
  8
0
 10
123.679
 20
-119.496
 11
125.679
 21
-119.496
  0
LINE
  8
0
 10
125.679
 20
-119.496
 11
128.673
 21
-119.194
  0
LINE
  8
0
 10
-27.8399
 20
16.9538
 11
-28.1466
 21
17.1101
  0
LINE
  8
0
 10
-28.1466
 20
17.1101
 11
-28.3899
 21
17.3534
  0
LINE
  8
0
 10
-28.3899
 20
17.3534
 11
-28.5462
 21
17.6601
  0
LINE
  8
0
 10
-28.5462
 20
17.6601
 11
-28.6
 21
18
  0
LINE
  8
0
 10
-28.6
 20
18
 11
-28.5462
 21
18.3399
  0
LINE
  8
0
 10
-28.5462
 20
18.3399
 11
-28.3899
 21
18.6466
  0
LINE
  8
0
 10
-28.3899
 20
18.6466
 11
-28.1466
 21
18.8899
  0
LINE
  8
0
 10
-28.1466
 20
18.8899
 11
-27.8399
 21
19.0462
  0
LINE
  8
0
 10
-27.8399
 20
19.0462
 11
-27.5
 21
19.1
  0
LINE
  8
0
 10
-27.5
 20
19.1
 11
-27.1601
 21
19.0462
  0
LINE
  8
0
 10
-27.1601
 20
19.0462
 11
-26.8534
 21
18.8899
  0
LINE
  8
0
 10
-26.8534
 20
18.8899
 11
-26.6101
 21
18.6466
  0
LINE
  8
0
 10
-26.6101
 20
18.6466
 11
-26.4538
 21
18.3399
  0
LINE
  8
0
 10
-26.4538
 20
18.3399
 11
-26.4
 21
18
  0
LINE
  8
0
 10
-26.4
 20
18
 11
-26.4538
 21
17.6601
  0
LINE
  8
0
 10
-26.4538
 20
17.6601
 11
-26.6101
 21
17.3534
  0
LINE
  8
0
 10
-26.6101
 20
17.3534
 11
-26.8534
 21
17.1101
  0
LINE
  8
0
 10
-26.8534
 20
17.1101
 11
-27.1601
 21
16.9538
  0
LINE
  8
0
 10
-27.1601
 20
16.9538
 11
-27.5
 21
16.9
  0
LINE
  8
0
 10
-27.5
 20
16.9
 11
-27.8399
 21
16.9538
  0
LINE
  8
0
 10
319.66
 20
16.9538
 11
319.353
 21
17.1101
  0
LINE
  8
0
 10
319.353
 20
17.1101
 11
319.11
 21
17.3534
  0
LINE
  8
0
 10
319.11
 20
17.3534
 11
318.954
 21
17.6601
  0
LINE
  8
0
 10
318.954
 20
17.6601
 11
318.9
 21
18
  0
LINE
  8
0
 10
318.9
 20
18
 11
318.954
 21
18.3399
  0
LINE
  8
0
 10
318.954
 20
18.3399
 11
319.11
 21
18.6466
  0
LINE
  8
0
 10
319.11
 20
18.6466
 11
319.353
 21
18.8899
  0
LINE
  8
0
 10
319.353
 20
18.8899
 11
319.66
 21
19.0462
  0
LINE
  8
0
 10
319.66
 20
19.0462
 11
320
 21
19.1
  0
LINE
  8
0
 10
320
 20
19.1
 11
320.34
 21
19.0462
  0
LINE
  8
0
 10
320.34
 20
19.0462
 11
320.647
 21
18.8899
  0
LINE
  8
0
 10
320.647
 20
18.8899
 11
320.89
 21
18.6466
  0
LINE
  8
0
 10
320.89
 20
18.6466
 11
321.046
 21
18.3399
  0
LINE
  8
0
 10
321.046
 20
18.3399
 11
321.1
 21
18
  0
LINE
  8
0
 10
321.1
 20
18
 11
321.046
 21
17.6601
  0
LINE
  8
0
 10
321.046
 20
17.6601
 11
320.89
 21
17.3534
  0
LINE
  8
0
 10
320.89
 20
17.3534
 11
320.647
 21
17.1101
  0
LINE
  8
0
 10
320.647
 20
17.1101
 11
320.34
 21
16.9538
  0
LINE
  8
0
 10
320.34
 20
16.9538
 11
320
 21
16.9
  0
LINE
  8
0
 10
320
 20
16.9
 11
319.66
 21
16.9538
  0
LINE
  8
0
 10
199.66
 20
16.9538
 11
199.353
 21
17.1101
  0
LINE
  8
0
 10
199.353
 20
17.1101
 11
199.11
 21
17.3534
  0
LINE
  8
0
 10
199.11
 20
17.3534
 11
198.954
 21
17.6601
  0
LINE
  8
0
 10
198.954
 20
17.6601
 11
198.9
 21
18
  0
LINE
  8
0
 10
198.9
 20
18
 11
198.954
 21
18.3399
  0
LINE
  8
0
 10
198.954
 20
18.3399
 11
199.11
 21
18.6466
  0
LINE
  8
0
 10
199.11
 20
18.6466
 11
199.353
 21
18.8899
  0
LINE
  8
0
 10
199.353
 20
18.8899
 11
199.66
 21
19.0462
  0
LINE
  8
0
 10
199.66
 20
19.0462
 11
200
 21
19.1
  0
LINE
  8
0
 10
200
 20
19.1
 11
200.34
 21
19.0462
  0
LINE
  8
0
 10
200.34
 20
19.0462
 11
200.647
 21
18.8899
  0
LINE
  8
0
 10
200.647
 20
18.8899
 11
200.89
 21
18.6466
  0
LINE
  8
0
 10
200.89
 20
18.6466
 11
201.046
 21
18.3399
  0
LINE
  8
0
 10
201.046
 20
18.3399
 11
201.1
 21
18
  0
LINE
  8
0
 10
201.1
 20
18
 11
201.046
 21
17.6601
  0
LINE
  8
0
 10
201.046
 20
17.6601
 11
200.89
 21
17.3534
  0
LINE
  8
0
 10
200.89
 20
17.3534
 11
200.647
 21
17.1101
  0
LINE
  8
0
 10
200.647
 20
17.1101
 11
200.34
 21
16.9538
  0
LINE
  8
0
 10
200.34
 20
16.9538
 11
200
 21
16.9
  0
LINE
  8
0
 10
200
 20
16.9
 11
199.66
 21
16.9538
  0
LINE
  8
0
 10
47.6601
 20
16.9538
 11
47.3534
 21
17.1101
  0
LINE
  8
0
 10
47.3534
 20
17.1101
 11
47.1101
 21
17.3534
  0
LINE
  8
0
 10
47.1101
 20
17.3534
 11
46.9538
 21
17.6601
  0
LINE
  8
0
 10
46.9538
 20
17.6601
 11
46.9
 21
18
  0
LINE
  8
0
 10
46.9
 20
18
 11
46.9538
 21
18.3399
  0
LINE
  8
0
 10
46.9538
 20
18.3399
 11
47.1101
 21
18.6466
  0
LINE
  8
0
 10
47.1101
 20
18.6466
 11
47.3534
 21
18.8899
  0
LINE
  8
0
 10
47.3534
 20
18.8899
 11
47.6601
 21
19.0462
  0
LINE
  8
0
 10
47.6601
 20
19.0462
 11
48
 21
19.1
  0
LINE
  8
0
 10
48
 20
19.1
 11
48.3399
 21
19.0462
  0
LINE
  8
0
 10
48.3399
 20
19.0462
 11
48.6466
 21
18.8899
  0
LINE
  8
0
 10
48.6466
 20
18.8899
 11
48.8899
 21
18.6466
  0
LINE
  8
0
 10
48.8899
 20
18.6466
 11
49.0462
 21
18.3399
  0
LINE
  8
0
 10
49.0462
 20
18.3399
 11
49.1
 21
18
  0
LINE
  8
0
 10
49.1
 20
18
 11
49.0462
 21
17.6601
  0
LINE
  8
0
 10
49.0462
 20
17.6601
 11
48.8899
 21
17.3534
  0
LINE
  8
0
 10
48.8899
 20
17.3534
 11
48.6466
 21
17.1101
  0
LINE
  8
0
 10
48.6466
 20
17.1101
 11
48.3399
 21
16.9538
  0
LINE
  8
0
 10
48.3399
 20
16.9538
 11
48
 21
16.9
  0
LINE
  8
0
 10
48
 20
16.9
 11
47.6601
 21
16.9538
  0
LINE
  8
0
 10
294.942
 20
-43.0088
 11
294.942
 21
-23.959
  0
LINE
  8
0
 10
294.942
 20
-23.959
 11
290.243
 21
-23.959
  0
LINE
  8
0
 10
290.243
 20
-23.959
 11
290.243
 21
-4.9082
  0
LINE
  8
0
 10
290.243
 20
-4.9082
 11
285.544
 21
-4.9082
  0
LINE
  8
0
 10
285.544
 20
-4.9082
 11
285.544
 21
14.3955
  0
LINE
  8
0
 10
285.544
 20
14.3955
 11
304.848
 21
14.3955
  0
LINE
  8
0
 10
304.848
 20
14.3955
 11
304.848
 21
-4.6543
  0
LINE
  8
0
 10
304.848
 20
-4.6543
 11
309.547
 21
-4.6543
  0
LINE
  8
0
 10
309.547
 20
-4.6543
 11
309.547
 21
-23.7051
  0
LINE
  8
0
 10
309.547
 20
-23.7051
 11
314.373
 21
-23.7051
  0
LINE
  8
0
 10
314.373
 20
-23.7051
 11
314.373
 21
-43.0088
  0
LINE
  8
0
 10
314.373
 20
-43.0088
 11
294.942
 21
-43.0088
  0
LINE
  8
0
 10
33.8555
 20
-85.3506
 11
37.8691
 21
-66.8086
  0
LINE
  8
0
 10
37.8691
 20
-66.8086
 11
4.64551
 21
-66.8086
  0
LINE
  8
0
 10
4.64551
 20
-66.8086
 11
4.64551
 21
-85.8584
  0
LINE
  8
0
 10
4.64551
 20
-85.8584
 11
-24.1582
 21
-85.8584
  0
LINE
  8
0
 10
-24.1582
 20
-85.8584
 11
-24.1582
 21
-47.4531
  0
LINE
  8
0
 10
-24.1582
 20
-47.4531
 11
-20.1445
 21
-47.4531
  0
LINE
  8
0
 10
-20.1445
 20
-47.4531
 11
-20.1445
 21
-28.4033
  0
LINE
  8
0
 10
-20.1445
 20
-28.4033
 11
-15.8271
 21
-28.4033
  0
LINE
  8
0
 10
-15.8271
 20
-28.4033
 11
-15.8271
 21
-9.35352
  0
LINE
  8
0
 10
-15.8271
 20
-9.35352
 11
-11.7627
 21
-9.35352
  0
LINE
  8
0
 10
-11.7627
 20
-9.35352
 11
-11.7627
 21
9.69629
  0
LINE
  8
0
 10
-11.7627
 20
9.69629
 11
29.792
 21
9.69629
  0
LINE
  8
0
 10
29.792
 20
9.69629
 11
30.5029
 21
12.998
  0
LINE
  8
0
 10
30.5029
 20
12.998
 11
123.873
 21
-6.91504
  0
LINE
  8
0
 10
123.873
 20
-6.91504
 11
119.911
 21
-25.7109
  0
LINE
  8
0
 10
119.911
 20
-25.7109
 11
110.564
 21
-23.7305
  0
LINE
  8
0
 10
110.564
 20
-23.7305
 11
106.652
 21
-42.1699
  0
LINE
  8
0
 10
106.652
 20
-42.1699
 11
111.326
 21
-43.1865
  0
LINE
  8
0
 10
111.326
 20
-43.1865
 11
107.312
 21
-61.7793
  0
LINE
  8
0
 10
107.312
 20
-61.7793
 11
116.609
 21
-63.8115
  0
LINE
  8
0
 10
116.609
 20
-63.8115
 11
112.697
 21
-82.4043
  0
LINE
  8
0
 10
112.697
 20
-82.4043
 11
121.994
 21
-84.3848
  0
LINE
  8
0
 10
121.994
 20
-84.3848
 11
117.98
 21
-103.232
  0
LINE
  8
0
 10
117.98
 20
-103.232
 11
33.8555
 21
-85.3506
  0
LINE
  8
0
 10
132.89
 20
-83.6484
 11
142.161
 21
-81.7432
  0
LINE
  8
0
 10
142.161
 20
-81.7432
 11
138.351
 21
-63.3281
  0
LINE
  8
0
 10
138.351
 20
-63.3281
 11
133.525
 21
-64.3447
  0
LINE
  8
0
 10
133.525
 20
-64.3447
 11
129.715
 21
-45.6758
  0
LINE
  8
0
 10
129.715
 20
-45.6758
 11
125.016
 21
-46.6914
  0
LINE
  8
0
 10
125.016
 20
-46.6914
 11
121.079
 21
-27.7686
  0
LINE
  8
0
 10
121.079
 20
-27.7686
 11
130.35
 21
-25.8633
  0
LINE
  8
0
 10
130.35
 20
-25.8633
 11
126.413
 21
-7.19434
  0
LINE
  8
0
 10
126.413
 20
-7.19434
 11
219.885
 21
12.7441
  0
LINE
  8
0
 10
219.885
 20
12.7441
 11
220.647
 21
9.69629
  0
LINE
  8
0
 10
220.647
 20
9.69629
 11
281.099
 21
9.69629
  0
LINE
  8
0
 10
281.099
 20
9.69629
 11
281.099
 21
-9.35352
  0
LINE
  8
0
 10
281.099
 20
-9.35352
 11
285.163
 21
-9.35352
  0
LINE
  8
0
 10
285.163
 20
-9.35352
 11
285.163
 21
-28.4033
  0
LINE
  8
0
 10
285.163
 20
-28.4033
 11
289.481
 21
-28.4033
  0
LINE
  8
0
 10
289.481
 20
-28.4033
 11
289.481
 21
-47.9619
  0
LINE
  8
0
 10
289.481
 20
-47.9619
 11
270.431
 21
-47.9619
  0
LINE
  8
0
 10
270.431
 20
-47.9619
 11
270.431
 21
-67.0117
  0
LINE
  8
0
 10
270.431
 20
-67.0117
 11
213.281
 21
-67.0117
  0
LINE
  8
0
 10
213.281
 20
-67.0117
 11
212.519
 21
-67.2656
  0
LINE
  8
0
 10
212.519
 20
-67.2656
 11
216.456
 21
-85.6807
  0
LINE
  8
0
 10
216.456
 20
-85.6807
 11
136.7
 21
-102.699
  0
LINE
  8
0
 10
136.7
 20
-102.699
 11
132.89
 21
-83.6484
  0
LINE
  8
0
 10
-27.8399
 20
-24.0462
 11
-28.1466
 21
-23.8899
  0
LINE
  8
0
 10
-28.1466
 20
-23.8899
 11
-28.3899
 21
-23.6466
  0
LINE
  8
0
 10
-28.3899
 20
-23.6466
 11
-28.5462
 21
-23.3399
  0
LINE
  8
0
 10
-28.5462
 20
-23.3399
 11
-28.6
 21
-23
  0
LINE
  8
0
 10
-28.6
 20
-23
 11
-28.5462
 21
-22.6601
  0
LINE
  8
0
 10
-28.5462
 20
-22.6601
 11
-28.3899
 21
-22.3534
  0
LINE
  8
0
 10
-28.3899
 20
-22.3534
 11
-28.1466
 21
-22.1101
  0
LINE
  8
0
 10
-28.1466
 20
-22.1101
 11
-27.8399
 21
-21.9538
  0
LINE
  8
0
 10
-27.8399
 20
-21.9538
 11
-27.5
 21
-21.9
  0
LINE
  8
0
 10
-27.5
 20
-21.9
 11
-27.1601
 21
-21.9538
  0
LINE
  8
0
 10
-27.1601
 20
-21.9538
 11
-26.8534
 21
-22.1101
  0
LINE
  8
0
 10
-26.8534
 20
-22.1101
 11
-26.6101
 21
-22.3534
  0
LINE
  8
0
 10
-26.6101
 20
-22.3534
 11
-26.4538
 21
-22.6601
  0
LINE
  8
0
 10
-26.4538
 20
-22.6601
 11
-26.4
 21
-23
  0
LINE
  8
0
 10
-26.4
 20
-23
 11
-26.4538
 21
-23.3399
  0
LINE
  8
0
 10
-26.4538
 20
-23.3399
 11
-26.6101
 21
-23.6466
  0
LINE
  8
0
 10
-26.6101
 20
-23.6466
 11
-26.8534
 21
-23.8899
  0
LINE
  8
0
 10
-26.8534
 20
-23.8899
 11
-27.1601
 21
-24.0462
  0
LINE
  8
0
 10
-27.1601
 20
-24.0462
 11
-27.5
 21
-24.1
  0
LINE
  8
0
 10
-27.5
 20
-24.1
 11
-27.8399
 21
-24.0462
  0
LINE
  8
0
 10
319.66
 20
-24.0462
 11
319.353
 21
-23.8899
  0
LINE
  8
0
 10
319.353
 20
-23.8899
 11
319.11
 21
-23.6466
  0
LINE
  8
0
 10
319.11
 20
-23.6466
 11
318.954
 21
-23.3399
  0
LINE
  8
0
 10
318.954
 20
-23.3399
 11
318.9
 21
-23
  0
LINE
  8
0
 10
318.9
 20
-23
 11
318.954
 21
-22.6601
  0
LINE
  8
0
 10
318.954
 20
-22.6601
 11
319.11
 21
-22.3534
  0
LINE
  8
0
 10
319.11
 20
-22.3534
 11
319.353
 21
-22.1101
  0
LINE
  8
0
 10
319.353
 20
-22.1101
 11
319.66
 21
-21.9538
  0
LINE
  8
0
 10
319.66
 20
-21.9538
 11
320
 21
-21.9
  0
LINE
  8
0
 10
320
 20
-21.9
 11
320.34
 21
-21.9538
  0
LINE
  8
0
 10
320.34
 20
-21.9538
 11
320.647
 21
-22.1101
  0
LINE
  8
0
 10
320.647
 20
-22.1101
 11
320.89
 21
-22.3534
  0
LINE
  8
0
 10
320.89
 20
-22.3534
 11
321.046
 21
-22.6601
  0
LINE
  8
0
 10
321.046
 20
-22.6601
 11
321.1
 21
-23
  0
LINE
  8
0
 10
321.1
 20
-23
 11
321.046
 21
-23.3399
  0
LINE
  8
0
 10
321.046
 20
-23.3399
 11
320.89
 21
-23.6466
  0
LINE
  8
0
 10
320.89
 20
-23.6466
 11
320.647
 21
-23.8899
  0
LINE
  8
0
 10
320.647
 20
-23.8899
 11
320.34
 21
-24.0462
  0
LINE
  8
0
 10
320.34
 20
-24.0462
 11
320
 21
-24.1
  0
LINE
  8
0
 10
320
 20
-24.1
 11
319.66
 21
-24.0462
  0
LINE
  8
0
 10
-27.8399
 20
-54.0462
 11
-28.1466
 21
-53.8899
  0
LINE
  8
0
 10
-28.1466
 20
-53.8899
 11
-28.3899
 21
-53.6466
  0
LINE
  8
0
 10
-28.3899
 20
-53.6466
 11
-28.5462
 21
-53.3399
  0
LINE
  8
0
 10
-28.5462
 20
-53.3399
 11
-28.6
 21
-53
  0
LINE
  8
0
 10
-28.6
 20
-53
 11
-28.5462
 21
-52.6601
  0
LINE
  8
0
 10
-28.5462
 20
-52.6601
 11
-28.3899
 21
-52.3534
  0
LINE
  8
0
 10
-28.3899
 20
-52.3534
 11
-28.1466
 21
-52.1101
  0
LINE
  8
0
 10
-28.1466
 20
-52.1101
 11
-27.8399
 21
-51.9538
  0
LINE
  8
0
 10
-27.8399
 20
-51.9538
 11
-27.5
 21
-51.9
  0
LINE
  8
0
 10
-27.5
 20
-51.9
 11
-27.1601
 21
-51.9538
  0
LINE
  8
0
 10
-27.1601
 20
-51.9538
 11
-26.8534
 21
-52.1101
  0
LINE
  8
0
 10
-26.8534
 20
-52.1101
 11
-26.6101
 21
-52.3534
  0
LINE
  8
0
 10
-26.6101
 20
-52.3534
 11
-26.4538
 21
-52.6601
  0
LINE
  8
0
 10
-26.4538
 20
-52.6601
 11
-26.4
 21
-53
  0
LINE
  8
0
 10
-26.4
 20
-53
 11
-26.4538
 21
-53.3399
  0
LINE
  8
0
 10
-26.4538
 20
-53.3399
 11
-26.6101
 21
-53.6466
  0
LINE
  8
0
 10
-26.6101
 20
-53.6466
 11
-26.8534
 21
-53.8899
  0
LINE
  8
0
 10
-26.8534
 20
-53.8899
 11
-27.1601
 21
-54.0462
  0
LINE
  8
0
 10
-27.1601
 20
-54.0462
 11
-27.5
 21
-54.1
  0
LINE
  8
0
 10
-27.5
 20
-54.1
 11
-27.8399
 21
-54.0462
  0
LINE
  8
0
 10
319.66
 20
-54.0462
 11
319.353
 21
-53.8899
  0
LINE
  8
0
 10
319.353
 20
-53.8899
 11
319.11
 21
-53.6466
  0
LINE
  8
0
 10
319.11
 20
-53.6466
 11
318.954
 21
-53.3399
  0
LINE
  8
0
 10
318.954
 20
-53.3399
 11
318.9
 21
-53
  0
LINE
  8
0
 10
318.9
 20
-53
 11
318.954
 21
-52.6601
  0
LINE
  8
0
 10
318.954
 20
-52.6601
 11
319.11
 21
-52.3534
  0
LINE
  8
0
 10
319.11
 20
-52.3534
 11
319.353
 21
-52.1101
  0
LINE
  8
0
 10
319.353
 20
-52.1101
 11
319.66
 21
-51.9538
  0
LINE
  8
0
 10
319.66
 20
-51.9538
 11
320
 21
-51.9
  0
LINE
  8
0
 10
320
 20
-51.9
 11
320.34
 21
-51.9538
  0
LINE
  8
0
 10
320.34
 20
-51.9538
 11
320.647
 21
-52.1101
  0
LINE
  8
0
 10
320.647
 20
-52.1101
 11
320.89
 21
-52.3534
  0
LINE
  8
0
 10
320.89
 20
-52.3534
 11
321.046
 21
-52.6601
  0
LINE
  8
0
 10
321.046
 20
-52.6601
 11
321.1
 21
-53
  0
LINE
  8
0
 10
321.1
 20
-53
 11
321.046
 21
-53.3399
  0
LINE
  8
0
 10
321.046
 20
-53.3399
 11
320.89
 21
-53.6466
  0
LINE
  8
0
 10
320.89
 20
-53.6466
 11
320.647
 21
-53.8899
  0
LINE
  8
0
 10
320.647
 20
-53.8899
 11
320.34
 21
-54.0462
  0
LINE
  8
0
 10
320.34
 20
-54.0462
 11
320
 21
-54.1
  0
LINE
  8
0
 10
320
 20
-54.1
 11
319.66
 21
-54.0462
  0
LINE
  8
0
 10
255.699
 20
-90.6338
 11
255.699
 21
-71.3301
  0
LINE
  8
0
 10
255.699
 20
-71.3301
 11
274.749
 21
-71.3301
  0
LINE
  8
0
 10
274.749
 20
-71.3301
 11
274.749
 21
-52.2793
  0
LINE
  8
0
 10
274.749
 20
-52.2793
 11
294.053
 21
-52.2793
  0
LINE
  8
0
 10
294.053
 20
-52.2793
 11
294.053
 21
-71.3301
  0
LINE
  8
0
 10
294.053
 20
-71.3301
 11
313.103
 21
-71.3301
  0
LINE
  8
0
 10
313.103
 20
-71.3301
 11
313.103
 21
-90.6338
  0
LINE
  8
0
 10
313.103
 20
-90.6338
 11
255.699
 21
-90.6338
  0
LINE
  8
0
 10
319.66
 20
-96.5462
 11
319.353
 21
-96.3899
  0
LINE
  8
0
 10
319.353
 20
-96.3899
 11
319.11
 21
-96.1466
  0
LINE
  8
0
 10
319.11
 20
-96.1466
 11
318.954
 21
-95.8399
  0
LINE
  8
0
 10
318.954
 20
-95.8399
 11
318.9
 21
-95.5
  0
LINE
  8
0
 10
318.9
 20
-95.5
 11
318.954
 21
-95.1601
  0
LINE
  8
0
 10
318.954
 20
-95.1601
 11
319.11
 21
-94.8534
  0
LINE
  8
0
 10
319.11
 20
-94.8534
 11
319.353
 21
-94.6101
  0
LINE
  8
0
 10
319.353
 20
-94.6101
 11
319.66
 21
-94.4538
  0
LINE
  8
0
 10
319.66
 20
-94.4538
 11
320
 21
-94.4
  0
LINE
  8
0
 10
320
 20
-94.4
 11
320.34
 21
-94.4538
  0
LINE
  8
0
 10
320.34
 20
-94.4538
 11
320.647
 21
-94.6101
  0
LINE
  8
0
 10
320.647
 20
-94.6101
 11
320.89
 21
-94.8534
  0
LINE
  8
0
 10
320.89
 20
-94.8534
 11
321.046
 21
-95.1601
  0
LINE
  8
0
 10
321.046
 20
-95.1601
 11
321.1
 21
-95.5
  0
LINE
  8
0
 10
321.1
 20
-95.5
 11
321.046
 21
-95.8399
  0
LINE
  8
0
 10
321.046
 20
-95.8399
 11
320.89
 21
-96.1466
  0
LINE
  8
0
 10
320.89
 20
-96.1466
 11
320.647
 21
-96.3899
  0
LINE
  8
0
 10
320.647
 20
-96.3899
 11
320.34
 21
-96.5462
  0
LINE
  8
0
 10
320.34
 20
-96.5462
 11
320
 21
-96.6
  0
LINE
  8
0
 10
320
 20
-96.6
 11
319.66
 21
-96.5462
  0
LINE
  8
0
 10
199.66
 20
-96.5462
 11
199.353
 21
-96.3899
  0
LINE
  8
0
 10
199.353
 20
-96.3899
 11
199.11
 21
-96.1466
  0
LINE
  8
0
 10
199.11
 20
-96.1466
 11
198.954
 21
-95.8399
  0
LINE
  8
0
 10
198.954
 20
-95.8399
 11
198.9
 21
-95.5
  0
LINE
  8
0
 10
198.9
 20
-95.5
 11
198.954
 21
-95.1601
  0
LINE
  8
0
 10
198.954
 20
-95.1601
 11
199.11
 21
-94.8534
  0
LINE
  8
0
 10
199.11
 20
-94.8534
 11
199.353
 21
-94.6101
  0
LINE
  8
0
 10
199.353
 20
-94.6101
 11
199.66
 21
-94.4538
  0
LINE
  8
0
 10
199.66
 20
-94.4538
 11
200
 21
-94.4
  0
LINE
  8
0
 10
200
 20
-94.4
 11
200.34
 21
-94.4538
  0
LINE
  8
0
 10
200.34
 20
-94.4538
 11
200.647
 21
-94.6101
  0
LINE
  8
0
 10
200.647
 20
-94.6101
 11
200.89
 21
-94.8534
  0
LINE
  8
0
 10
200.89
 20
-94.8534
 11
201.046
 21
-95.1601
  0
LINE
  8
0
 10
201.046
 20
-95.1601
 11
201.1
 21
-95.5
  0
LINE
  8
0
 10
201.1
 20
-95.5
 11
201.046
 21
-95.8399
  0
LINE
  8
0
 10
201.046
 20
-95.8399
 11
200.89
 21
-96.1466
  0
LINE
  8
0
 10
200.89
 20
-96.1466
 11
200.647
 21
-96.3899
  0
LINE
  8
0
 10
200.647
 20
-96.3899
 11
200.34
 21
-96.5462
  0
LINE
  8
0
 10
200.34
 20
-96.5462
 11
200
 21
-96.6
  0
LINE
  8
0
 10
200
 20
-96.6
 11
199.66
 21
-96.5462
  0
LINE
  8
0
 10
47.6601
 20
-96.5462
 11
47.3534
 21
-96.3899
  0
LINE
  8
0
 10
47.3534
 20
-96.3899
 11
47.1101
 21
-96.1466
  0
LINE
  8
0
 10
47.1101
 20
-96.1466
 11
46.9538
 21
-95.8399
  0
LINE
  8
0
 10
46.9538
 20
-95.8399
 11
46.9
 21
-95.5
  0
LINE
  8
0
 10
46.9
 20
-95.5
 11
46.9538
 21
-95.1601
  0
LINE
  8
0
 10
46.9538
 20
-95.1601
 11
47.1101
 21
-94.8534
  0
LINE
  8
0
 10
47.1101
 20
-94.8534
 11
47.3534
 21
-94.6101
  0
LINE
  8
0
 10
47.3534
 20
-94.6101
 11
47.6601
 21
-94.4538
  0
LINE
  8
0
 10
47.6601
 20
-94.4538
 11
48
 21
-94.4
  0
LINE
  8
0
 10
48
 20
-94.4
 11
48.3399
 21
-94.4538
  0
LINE
  8
0
 10
48.3399
 20
-94.4538
 11
48.6466
 21
-94.6101
  0
LINE
  8
0
 10
48.6466
 20
-94.6101
 11
48.8899
 21
-94.8534
  0
LINE
  8
0
 10
48.8899
 20
-94.8534
 11
49.0462
 21
-95.1601
  0
LINE
  8
0
 10
49.0462
 20
-95.1601
 11
49.1
 21
-95.5
  0
LINE
  8
0
 10
49.1
 20
-95.5
 11
49.0462
 21
-95.8399
  0
LINE
  8
0
 10
49.0462
 20
-95.8399
 11
48.8899
 21
-96.1466
  0
LINE
  8
0
 10
48.8899
 20
-96.1466
 11
48.6466
 21
-96.3899
  0
LINE
  8
0
 10
48.6466
 20
-96.3899
 11
48.3399
 21
-96.5462
  0
LINE
  8
0
 10
48.3399
 20
-96.5462
 11
48
 21
-96.6
  0
LINE
  8
0
 10
48
 20
-96.6
 11
47.6601
 21
-96.5462
  0
LINE
  8
0
 10
-27.8399
 20
-96.5462
 11
-28.1466
 21
-96.3899
  0
LINE
  8
0
 10
-28.1466
 20
-96.3899
 11
-28.3899
 21
-96.1466
  0
LINE
  8
0
 10
-28.3899
 20
-96.1466
 11
-28.5462
 21
-95.8399
  0
LINE
  8
0
 10
-28.5462
 20
-95.8399
 11
-28.6
 21
-95.5
  0
LINE
  8
0
 10
-28.6
 20
-95.5
 11
-28.5462
 21
-95.1601
  0
LINE
  8
0
 10
-28.5462
 20
-95.1601
 11
-28.3899
 21
-94.8534
  0
LINE
  8
0
 10
-28.3899
 20
-94.8534
 11
-28.1466
 21
-94.6101
  0
LINE
  8
0
 10
-28.1466
 20
-94.6101
 11
-27.8399
 21
-94.4538
  0
LINE
  8
0
 10
-27.8399
 20
-94.4538
 11
-27.5
 21
-94.4
  0
LINE
  8
0
 10
-27.5
 20
-94.4
 11
-27.1601
 21
-94.4538
  0
LINE
  8
0
 10
-27.1601
 20
-94.4538
 11
-26.8534
 21
-94.6101
  0
LINE
  8
0
 10
-26.8534
 20
-94.6101
 11
-26.6101
 21
-94.8534
  0
LINE
  8
0
 10
-26.6101
 20
-94.8534
 11
-26.4538
 21
-95.1601
  0
LINE
  8
0
 10
-26.4538
 20
-95.1601
 11
-26.4
 21
-95.5
  0
LINE
  8
0
 10
-26.4
 20
-95.5
 11
-26.4538
 21
-95.8399
  0
LINE
  8
0
 10
-26.4538
 20
-95.8399
 11
-26.6101
 21
-96.1466
  0
LINE
  8
0
 10
-26.6101
 20
-96.1466
 11
-26.8534
 21
-96.3899
  0
LINE
  8
0
 10
-26.8534
 20
-96.3899
 11
-27.1601
 21
-96.5462
  0
LINE
  8
0
 10
-27.1601
 20
-96.5462
 11
-27.5
 21
-96.6
  0
LINE
  8
0
 10
-27.5
 20
-96.6
 11
-27.8399
 21
-96.5462
  0
ENDSEC
  0
SECTION
  2
OBJECTS
  0
DICTIONARY
  0
ENDSEC
  0
EOF
