  0
SECTION
  2
HEADER
  9
$ANGBASE
  50
0.0
  9
$ANGDIR
  70
1
  9
$MEASUREMENT
  70
1
  0
ENDSEC
  0
SECTION
  2
TABLES
  0
TABLE
  2
LTYPE
  70
4
  0
LTYPE
  5
40F
  2
CONTINUOUS
  70
0
  3
Solid line
  72
65
  73
0
  40
0.0
  0
LTYPE
  5
410
  2
DASHDOT
 70
0
  3
Dash Dot ____ _ ____ _
 72
65
 73
4
 40
2.0
 49
1.25
 49
-0.25
 49
0.25
 49
-0.25
  0
LTYPE
  5
411
  2
DASHED
 70
0
  3
Dashed __ __ __ __ __
 72
65
 73
2
 40
0.75
 49
0.5
 49
-0.25
  0
LTYPE
  5
43B
  2
DOTTED
 70
0
  3
Dotted .  .  .  .
 72
65
 73
2
 40
0.2
 49
0.0
 49
-0.2
  0
ENDTAB
  0
TABLE
  2
STYLE
  70
4
  0
STYLE
  2
KICAD
  70
0
  40
0
  41
1
  42
1
  50
0
  71
0
  3
isocp.shx
  0
STYLE
  2
KICADB
  70
0
  40
0
  41
1
  42
1
  50
0
  71
0
  3
isocp.shx
  0
STYLE
  2
KICADI
  70
0
  40
0
  41
1
  42
1
  50
15
  71
0
  3
isocp.shx
  0
STYLE
  2
KICADBI
  70
0
  40
0
  41
1
  42
1
  50
15
  71
0
  3
isocp.shx
  0
ENDTAB
  0
TABLE
  2
LAYER
  70
1
  0
LAYER
  2
BLACK
  70
0
  62
7
  6
CONTINUOUS
  0
ENDTAB
  0
ENDSEC
  0
SECTION
  2
ENTITIES
0
LINE
8
BLACK
6
CONTINUOUS
10
285.544
20
-4.9086
11
285.544
21
14.3954
0
LINE
8
BLACK
6
CONTINUOUS
10
290.243
20
-4.9086
11
285.544
21
-4.9086
0
LINE
8
BLACK
6
CONTINUOUS
10
290.243
20
-23.9586
11
290.243
21
-4.9086
0
LINE
8
BLACK
6
CONTINUOUS
10
294.942
20
-23.9586
11
290.243
21
-23.9586
0
LINE
8
BLACK
6
CONTINUOUS
10
294.942
20
-43.0086
11
294.942
21
-23.9586
0
LINE
8
BLACK
6
CONTINUOUS
10
314.373
20
-43.0086
11
294.942
21
-43.0086
0
LINE
8
BLACK
6
CONTINUOUS
10
314.373
20
-23.7046
11
314.373
21
-43.0086
0
LINE
8
BLACK
6
CONTINUOUS
10
309.547
20
-23.7046
11
314.373
21
-23.7046
0
LINE
8
BLACK
6
CONTINUOUS
10
309.547
20
-4.6546
11
309.547
21
-23.7046
0
LINE
8
BLACK
6
CONTINUOUS
10
304.848
20
-4.6546
11
309.547
21
-4.6546
0
LINE
8
BLACK
6
CONTINUOUS
10
304.848
20
14.3954
11
304.848
21
-4.6546
0
LINE
8
BLACK
6
CONTINUOUS
10
285.544
20
14.3954
11
304.848
21
14.3954
0
LINE
8
BLACK
6
CONTINUOUS
10
255.699
20
-90.6336
11
255.699
21
-71.3296
0
LINE
8
BLACK
6
CONTINUOUS
10
313.103
20
-90.6336
11
255.699
21
-90.6336
0
LINE
8
BLACK
6
CONTINUOUS
10
313.103
20
-71.3296
11
313.103
21
-90.6336
0
LINE
8
BLACK
6
CONTINUOUS
10
294.053
20
-71.3296
11
313.103
21
-71.3296
0
LINE
8
BLACK
6
CONTINUOUS
10
294.053
20
-52.2796
11
294.053
21
-71.3296
0
LINE
8
BLACK
6
CONTINUOUS
10
274.749
20
-52.2796
11
294.053
21
-52.2796
0
LINE
8
BLACK
6
CONTINUOUS
10
274.749
20
-71.3296
11
274.749
21
-52.2796
0
LINE
8
BLACK
6
CONTINUOUS
10
255.699
20
-71.3296
11
274.749
21
-71.3296
0
LINE
8
BLACK
6
CONTINUOUS
10
4.6456
20
-85.8584
11
-24.158
21
-85.8584
0
LINE
8
BLACK
6
CONTINUOUS
10
4.6456
20
-66.8084
11
4.6456
21
-85.8584
0
LINE
8
BLACK
6
CONTINUOUS
10
37.8688
20
-66.8084
11
4.6456
21
-66.8084
0
LINE
8
BLACK
6
CONTINUOUS
10
33.8556
20
-85.3504
11
37.8688
21
-66.8084
0
LINE
8
BLACK
6
CONTINUOUS
10
117.98
20
-103.232
11
33.8556
21
-85.3504
0
LINE
8
BLACK
6
CONTINUOUS
10
121.994
20
-84.3852
11
117.98
21
-103.232
0
LINE
8
BLACK
6
CONTINUOUS
10
112.697
20
-82.404
11
121.994
21
-84.3852
0
LINE
8
BLACK
6
CONTINUOUS
10
116.609
20
-63.8112
11
112.697
21
-82.404
0
LINE
8
BLACK
6
CONTINUOUS
10
107.312
20
-61.7792
11
116.609
21
-63.8112
0
LINE
8
BLACK
6
CONTINUOUS
10
111.326
20
-43.1864
11
107.312
21
-61.7792
0
LINE
8
BLACK
6
CONTINUOUS
10
106.652
20
-42.1704
11
111.326
21
-43.1864
0
LINE
8
BLACK
6
CONTINUOUS
10
110.564
20
-23.73
11
106.652
21
-42.1704
0
LINE
8
BLACK
6
CONTINUOUS
10
119.911
20
-25.7112
11
110.564
21
-23.73
0
LINE
8
BLACK
6
CONTINUOUS
10
123.873
20
-6.9152
11
119.911
21
-25.7112
0
LINE
8
BLACK
6
CONTINUOUS
10
130.35
20
-25.8636
11
126.413
21
-7.1946
0
LINE
8
BLACK
6
CONTINUOUS
10
121.079
20
-27.7686
11
130.35
21
-25.8636
0
LINE
8
BLACK
6
CONTINUOUS
10
125.016
20
-46.6916
11
121.079
21
-27.7686
0
LINE
8
BLACK
6
CONTINUOUS
10
129.715
20
-45.6756
11
125.016
21
-46.6916
0
LINE
8
BLACK
6
CONTINUOUS
10
133.525
20
-64.3446
11
129.715
21
-45.6756
0
LINE
8
BLACK
6
CONTINUOUS
10
138.351
20
-63.3286
11
133.525
21
-64.3446
0
LINE
8
BLACK
6
CONTINUOUS
10
142.161
20
-81.7436
11
138.351
21
-63.3286
0
LINE
8
BLACK
6
CONTINUOUS
10
132.89
20
-83.6486
11
142.161
21
-81.7436
0
LINE
8
BLACK
6
CONTINUOUS
10
136.7
20
-102.699
11
132.89
21
-83.6486
0
LINE
8
BLACK
6
CONTINUOUS
10
216.456
20
-85.6806
11
136.7
21
-102.699
0
LINE
8
BLACK
6
CONTINUOUS
10
212.519
20
-67.2656
11
216.456
21
-85.6806
0
LINE
8
BLACK
6
CONTINUOUS
10
213.281
20
-67.0116
11
212.519
21
-67.2656
0
LINE
8
BLACK
6
CONTINUOUS
10
270.431
20
-67.0116
11
213.281
21
-67.0116
0
LINE
8
BLACK
6
CONTINUOUS
10
270.431
20
-47.9616
11
270.431
21
-67.0116
0
LINE
8
BLACK
6
CONTINUOUS
10
289.481
20
-47.9616
11
270.431
21
-47.9616
0
LINE
8
BLACK
6
CONTINUOUS
10
289.481
20
-28.4036
11
289.481
21
-47.9616
0
LINE
8
BLACK
6
CONTINUOUS
10
285.163
20
-28.4036
11
289.481
21
-28.4036
0
LINE
8
BLACK
6
CONTINUOUS
10
285.163
20
-9.3536
11
285.163
21
-28.4036
0
LINE
8
BLACK
6
CONTINUOUS
10
281.099
20
-9.3536
11
285.163
21
-9.3536
0
LINE
8
BLACK
6
CONTINUOUS
10
281.099
20
9.6964
11
281.099
21
-9.3536
0
LINE
8
BLACK
6
CONTINUOUS
10
220.647
20
9.6964
11
281.099
21
9.6964
0
LINE
8
BLACK
6
CONTINUOUS
10
219.885
20
12.7444
11
220.647
21
9.6964
0
LINE
8
BLACK
6
CONTINUOUS
10
126.413
20
-7.1946
11
219.885
21
12.7444
0
LINE
8
BLACK
6
CONTINUOUS
10
30.5028
20
12.9984
11
123.873
21
-6.9152
0
LINE
8
BLACK
6
CONTINUOUS
10
29.7916
20
9.6964
11
30.5028
21
12.9984
0
LINE
8
BLACK
6
CONTINUOUS
10
-11.7628
20
9.6964
11
29.7916
21
9.6964
0
LINE
8
BLACK
6
CONTINUOUS
10
-11.7628
20
-9.3536
11
-11.7628
21
9.6964
0
LINE
8
BLACK
6
CONTINUOUS
10
-15.8268
20
-9.3536
11
-11.7628
21
-9.3536
0
LINE
8
BLACK
6
CONTINUOUS
10
-15.8268
20
-28.4036
11
-15.8268
21
-9.3536
0
LINE
8
BLACK
6
CONTINUOUS
10
-20.1448
20
-28.4036
11
-15.8268
21
-28.4036
0
LINE
8
BLACK
6
CONTINUOUS
10
-20.1448
20
-47.4536
11
-20.1448
21
-28.4036
0
LINE
8
BLACK
6
CONTINUOUS
10
-24.158
20
-47.4536
11
-20.1448
21
-47.4536
0
LINE
8
BLACK
6
CONTINUOUS
10
-24.158
20
-85.8584
11
-24.158
21
-47.4536
  0
ENDSEC
  0
EOF
