  0
SECTION
  2
HEADER
  9
$ANGBASE
  50
0.0
  9
$ANGDIR
  70
1
  9
$MEASUREMENT
  70
1
  0
ENDSEC
  0
SECTION
  2
TABLES
  0
TABLE
  2
LTYPE
  70
4
  0
LTYPE
  5
40F
  2
CONTINUOUS
  70
0
  3
Solid line
  72
65
  73
0
  40
0.0
  0
LTYPE
  5
410
  2
DASHDOT
 70
0
  3
Dash Dot ____ _ ____ _
 72
65
 73
4
 40
2.0
 49
1.25
 49
-0.25
 49
0.25
 49
-0.25
  0
LTYPE
  5
411
  2
DASHED
 70
0
  3
Dashed __ __ __ __ __
 72
65
 73
2
 40
0.75
 49
0.5
 49
-0.25
  0
LTYPE
  5
43B
  2
DOTTED
 70
0
  3
Dotted .  .  .  .
 72
65
 73
2
 40
0.2
 49
0.0
 49
-0.2
  0
ENDTAB
  0
TABLE
  2
STYLE
  70
4
  0
STYLE
  2
KICAD
  70
0
  40
0
  41
1
  42
1
  50
0
  71
0
  3
isocp.shx
  0
STYLE
  2
KICADB
  70
0
  40
0
  41
1
  42
1
  50
0
  71
0
  3
isocp.shx
  0
STYLE
  2
KICADI
  70
0
  40
0
  41
1
  42
1
  50
15
  71
0
  3
isocp.shx
  0
STYLE
  2
KICADBI
  70
0
  40
0
  41
1
  42
1
  50
15
  71
0
  3
isocp.shx
  0
ENDTAB
  0
TABLE
  2
LAYER
  70
1
  0
LAYER
  2
BLACK
  70
0
  62
7
  6
CONTINUOUS
  0
ENDTAB
  0
ENDSEC
  0
SECTION
  2
ENTITIES
0
LINE
8
BLACK
6
CONTINUOUS
10
220.366
20
9.6334
11
280.946
21
9.6634
0
LINE
8
BLACK
6
CONTINUOUS
10
219.756
20
12.6234
11
220.366
21
9.6334
0
LINE
8
BLACK
6
CONTINUOUS
10
126.476
20
-7.2466
11
219.756
21
12.6234
0
LINE
8
BLACK
6
CONTINUOUS
10
130.446
20
-25.8566
11
126.476
21
-7.2466
0
LINE
8
BLACK
6
CONTINUOUS
10
121.106
20
-27.8466
11
130.446
21
-25.8566
0
LINE
8
BLACK
6
CONTINUOUS
10
125.086
20
-46.5966
11
121.106
21
-27.8466
0
LINE
8
BLACK
6
CONTINUOUS
10
129.776
20
-45.5966
11
125.086
21
-46.5966
0
LINE
8
BLACK
6
CONTINUOUS
10
133.736
20
-64.2266
11
129.776
21
-45.5966
0
LINE
8
BLACK
6
CONTINUOUS
10
138.376
20
-63.2366
11
133.736
21
-64.2266
0
LINE
8
BLACK
6
CONTINUOUS
10
142.326
20
-81.7366
11
138.376
21
-63.2366
0
LINE
8
BLACK
6
CONTINUOUS
10
132.976
20
-83.7266
11
142.326
21
-81.7366
0
LINE
8
BLACK
6
CONTINUOUS
10
136.986
20
-102.517
11
132.976
21
-83.7266
0
LINE
8
BLACK
6
CONTINUOUS
10
216.316
20
-85.6266
11
136.986
21
-102.517
0
LINE
8
BLACK
6
CONTINUOUS
10
212.366
20
-67.0066
11
216.316
21
-85.6266
0
LINE
8
BLACK
6
CONTINUOUS
10
213.636
20
-66.7366
11
212.366
21
-67.0066
0
LINE
8
BLACK
6
CONTINUOUS
10
270.216
20
-66.7366
11
213.636
21
-66.7366
0
LINE
8
BLACK
6
CONTINUOUS
10
270.216
20
-47.6866
11
270.216
21
-66.7366
0
LINE
8
BLACK
6
CONTINUOUS
10
289.266
20
-47.6866
11
270.216
21
-47.6866
0
LINE
8
BLACK
6
CONTINUOUS
10
289.266
20
-28.5066
11
289.266
21
-47.6866
0
LINE
8
BLACK
6
CONTINUOUS
10
285.096
20
-28.5066
11
289.266
21
-28.5066
0
LINE
8
BLACK
6
CONTINUOUS
10
285.096
20
-9.4366
11
285.096
21
-28.5066
0
LINE
8
BLACK
6
CONTINUOUS
10
280.946
20
-9.4366
11
285.096
21
-9.4366
0
LINE
8
BLACK
6
CONTINUOUS
10
280.946
20
9.6634
11
280.946
21
-9.4366
0
LINE
8
BLACK
6
CONTINUOUS
10
255.786
20
-71.3766
11
274.806
21
-71.3766
0
LINE
8
BLACK
6
CONTINUOUS
10
255.786
20
-90.5566
11
255.786
21
-71.3766
0
LINE
8
BLACK
6
CONTINUOUS
10
313.076
20
-90.5566
11
255.786
21
-90.5566
0
LINE
8
BLACK
6
CONTINUOUS
10
313.076
20
-71.3866
11
313.076
21
-90.5566
0
LINE
8
BLACK
6
CONTINUOUS
10
294.006
20
-71.3866
11
313.076
21
-71.3866
0
LINE
8
BLACK
6
CONTINUOUS
10
294.006
20
-52.3266
11
294.006
21
-71.3866
0
LINE
8
BLACK
6
CONTINUOUS
10
274.806
20
-52.3266
11
294.006
21
-52.3266
0
LINE
8
BLACK
6
CONTINUOUS
10
274.806
20
-71.3766
11
274.806
21
-52.3266
0
LINE
8
BLACK
6
CONTINUOUS
10
285.576
20
-4.8166
11
285.596
21
14.4434
0
LINE
8
BLACK
6
CONTINUOUS
10
290.336
20
-4.8166
11
285.576
21
-4.8166
0
LINE
8
BLACK
6
CONTINUOUS
10
290.336
20
-23.8666
11
290.336
21
-4.8166
0
LINE
8
BLACK
6
CONTINUOUS
10
295.086
20
-23.8666
11
290.336
21
-23.8666
0
LINE
8
BLACK
6
CONTINUOUS
10
295.086
20
-42.9166
11
295.086
21
-23.8666
0
LINE
8
BLACK
6
CONTINUOUS
10
314.246
20
-42.9166
11
295.086
21
-42.9166
0
LINE
8
BLACK
6
CONTINUOUS
10
314.246
20
-23.7466
11
314.246
21
-42.9166
0
LINE
8
BLACK
6
CONTINUOUS
10
309.496
20
-23.7466
11
314.246
21
-23.7466
0
LINE
8
BLACK
6
CONTINUOUS
10
309.496
20
-4.6966
11
309.496
21
-23.7466
0
LINE
8
BLACK
6
CONTINUOUS
10
304.736
20
-4.6966
11
309.496
21
-4.6966
0
LINE
8
BLACK
6
CONTINUOUS
10
304.736
20
14.4434
11
304.736
21
-4.6966
0
LINE
8
BLACK
6
CONTINUOUS
10
285.596
20
14.4434
11
304.736
21
14.4434
0
LINE
8
BLACK
6
CONTINUOUS
10
-9.5838
20
-9.4466
11
-9.5838
21
9.7134
0
LINE
8
BLACK
6
CONTINUOUS
10
-13.7638
20
-9.4466
11
-9.5838
21
-9.4466
0
LINE
8
BLACK
6
CONTINUOUS
10
-13.7638
20
-28.4966
11
-13.7638
21
-9.4466
0
LINE
8
BLACK
6
CONTINUOUS
10
-17.9338
20
-28.4966
11
-13.7638
21
-28.4966
0
LINE
8
BLACK
6
CONTINUOUS
10
-17.9338
20
-47.5466
11
-17.9338
21
-28.4966
0
LINE
8
BLACK
6
CONTINUOUS
10
-22.0838
20
-47.5466
11
-17.9338
21
-47.5466
0
LINE
8
BLACK
6
CONTINUOUS
10
-22.0838
20
-85.7666
11
-22.0838
21
-47.5466
0
LINE
8
BLACK
6
CONTINUOUS
10
6.6262
20
-85.7866
11
-22.0838
21
-85.7666
0
LINE
8
BLACK
6
CONTINUOUS
10
6.6362
20
-66.7466
11
6.6262
21
-85.7866
0
LINE
8
BLACK
6
CONTINUOUS
10
39.9262
20
-66.7466
11
6.6362
21
-66.7466
0
LINE
8
BLACK
6
CONTINUOUS
10
35.9762
20
-85.3466
11
39.9262
21
-66.7466
0
LINE
8
BLACK
6
CONTINUOUS
10
119.996
20
-103.217
11
35.9762
21
-85.3466
0
LINE
8
BLACK
6
CONTINUOUS
10
123.976
20
-84.4166
11
119.996
21
-103.217
0
LINE
8
BLACK
6
CONTINUOUS
10
114.656
20
-82.4366
11
123.976
21
-84.4166
0
LINE
8
BLACK
6
CONTINUOUS
10
118.626
20
-63.8066
11
114.656
21
-82.4366
0
LINE
8
BLACK
6
CONTINUOUS
10
109.296
20
-61.8266
11
118.626
21
-63.8066
0
LINE
8
BLACK
6
CONTINUOUS
10
113.266
20
-43.1866
11
109.296
21
-61.8266
0
LINE
8
BLACK
6
CONTINUOUS
10
108.606
20
-42.1966
11
113.266
21
-43.1866
0
LINE
8
BLACK
6
CONTINUOUS
10
112.556
20
-23.6866
11
108.606
21
-42.1966
0
LINE
8
BLACK
6
CONTINUOUS
10
121.956
20
-25.6866
11
112.556
21
-23.6866
0
LINE
8
BLACK
6
CONTINUOUS
10
125.956
20
-6.8866
11
121.956
21
-25.6866
0
LINE
8
BLACK
6
CONTINUOUS
10
32.4562
20
13.0134
11
125.956
21
-6.8866
0
LINE
8
BLACK
6
CONTINUOUS
10
31.7562
20
9.7134
11
32.4562
21
13.0134
0
LINE
8
BLACK
6
CONTINUOUS
10
-9.5838
20
9.7134
11
31.7562
21
9.7134
  0
ENDSEC
  0
EOF
