  0
SECTION
  2
HEADER
  9
$ANGBASE
  50
0.0
  9
$ANGDIR
  70
1
  9
$MEASUREMENT
  70
1
  0
ENDSEC
  0
SECTION
  2
TABLES
  0
TABLE
  2
LTYPE
  70
4
  0
LTYPE
  5
40F
  2
CONTINUOUS
  70
0
  3
Solid line
  72
65
  73
0
  40
0.0
  0
LTYPE
  5
410
  2
DASHDOT
 70
0
  3
Dash Dot ____ _ ____ _
 72
65
 73
4
 40
2.0
 49
1.25
 49
-0.25
 49
0.25
 49
-0.25
  0
LTYPE
  5
411
  2
DASHED
 70
0
  3
Dashed __ __ __ __ __
 72
65
 73
2
 40
0.75
 49
0.5
 49
-0.25
  0
LTYPE
  5
43B
  2
DOTTED
 70
0
  3
Dotted .  .  .  .
 72
65
 73
2
 40
0.2
 49
0.0
 49
-0.2
  0
ENDTAB
  0
TABLE
  2
STYLE
  70
4
  0
STYLE
  2
KICAD
  70
0
  40
0
  41
1
  42
1
  50
0
  71
0
  3
isocp.shx
  0
STYLE
  2
KICADB
  70
0
  40
0
  41
1
  42
1
  50
0
  71
0
  3
isocp.shx
  0
STYLE
  2
KICADI
  70
0
  40
0
  41
1
  42
1
  50
15
  71
0
  3
isocp.shx
  0
STYLE
  2
KICADBI
  70
0
  40
0
  41
1
  42
1
  50
15
  71
0
  3
isocp.shx
  0
ENDTAB
  0
TABLE
  2
LAYER
  70
1
  0
LAYER
  2
BLACK
  70
0
  62
7
  6
CONTINUOUS
  0
ENDTAB
  0
ENDSEC
  0
SECTION
  2
ENTITIES
0
LINE
8
BLACK
6
CONTINUOUS
10
246.525
20
-64.1
11
246.525
21
-50.2
0
LINE
8
BLACK
6
CONTINUOUS
10
260.425
20
-64.1
11
246.525
21
-64.1
0
LINE
8
BLACK
6
CONTINUOUS
10
260.425
20
-50.2
11
260.425
21
-64.1
0
LINE
8
BLACK
6
CONTINUOUS
10
246.525
20
-50.2
11
260.425
21
-50.2
0
LINE
8
BLACK
6
CONTINUOUS
10
-8.14063
20
-45.05
11
-8.14063
21
-31.15
0
LINE
8
BLACK
6
CONTINUOUS
10
5.75937
20
-45.05
11
-8.14063
21
-45.05
0
LINE
8
BLACK
6
CONTINUOUS
10
5.75937
20
-31.15
11
5.75937
21
-45.05
0
LINE
8
BLACK
6
CONTINUOUS
10
-8.14063
20
-31.15
11
5.75937
21
-31.15
0
LINE
8
BLACK
6
CONTINUOUS
10
263.789
20
-26
11
263.789
21
-12.1
0
LINE
8
BLACK
6
CONTINUOUS
10
277.689
20
-26
11
263.789
21
-26
0
LINE
8
BLACK
6
CONTINUOUS
10
277.689
20
-12.1
11
277.689
21
-26
0
LINE
8
BLACK
6
CONTINUOUS
10
263.789
20
-12.1
11
277.689
21
-12.1
0
LINE
8
BLACK
6
CONTINUOUS
10
194.916
20
-87.4852
11
192.026
21
-73.8889
0
LINE
8
BLACK
6
CONTINUOUS
10
208.513
20
-84.5952
11
194.916
21
-87.4852
0
LINE
8
BLACK
6
CONTINUOUS
10
205.623
20
-70.9989
11
208.513
21
-84.5952
0
LINE
8
BLACK
6
CONTINUOUS
10
192.026
20
-73.8889
11
205.623
21
-70.9989
0
LINE
8
BLACK
6
CONTINUOUS
10
43.7943
20
-84.286
11
46.6843
21
-70.6898
0
LINE
8
BLACK
6
CONTINUOUS
10
57.3906
20
-87.176
11
43.7943
21
-84.286
0
LINE
8
BLACK
6
CONTINUOUS
10
60.2806
20
-73.5798
11
57.3906
21
-87.176
0
LINE
8
BLACK
6
CONTINUOUS
10
46.6843
20
-70.6898
11
60.2806
21
-73.5798
0
LINE
8
BLACK
6
CONTINUOUS
10
-14.6891
20
-83.15
11
-14.6891
21
-69.25
0
LINE
8
BLACK
6
CONTINUOUS
10
-0.789063
20
-83.15
11
-14.6891
21
-83.15
0
LINE
8
BLACK
6
CONTINUOUS
10
-0.789063
20
-69.25
11
-0.789063
21
-83.15
0
LINE
8
BLACK
6
CONTINUOUS
10
-14.6891
20
-69.25
11
-0.789063
21
-69.25
0
LINE
8
BLACK
6
CONTINUOUS
10
-6.35469
20
-26
11
-6.35469
21
-12.1
0
LINE
8
BLACK
6
CONTINUOUS
10
7.54531
20
-26
11
-6.35469
21
-26
0
LINE
8
BLACK
6
CONTINUOUS
10
7.54531
20
-12.1
11
7.54531
21
-26
0
LINE
8
BLACK
6
CONTINUOUS
10
-6.35469
20
-12.1
11
7.54531
21
-12.1
0
LINE
8
BLACK
6
CONTINUOUS
10
68.9541
20
-11.7315
11
71.844
21
1.86471
0
LINE
8
BLACK
6
CONTINUOUS
10
82.5503
20
-14.6215
11
68.9541
21
-11.7315
0
LINE
8
BLACK
6
CONTINUOUS
10
85.4403
20
-1.02526
11
82.5503
21
-14.6215
0
LINE
8
BLACK
6
CONTINUOUS
10
71.844
20
1.86471
11
85.4403
21
-1.02526
0
LINE
8
BLACK
6
CONTINUOUS
10
135.752
20
-61.1097
11
132.862
21
-47.5135
0
LINE
8
BLACK
6
CONTINUOUS
10
149.348
20
-58.2197
11
135.752
21
-61.1097
0
LINE
8
BLACK
6
CONTINUOUS
10
146.458
20
-44.6235
11
149.348
21
-58.2197
0
LINE
8
BLACK
6
CONTINUOUS
10
132.862
20
-47.5135
11
146.458
21
-44.6235
0
LINE
8
BLACK
6
CONTINUOUS
10
296.531
20
-87.9125
11
296.531
21
-74.0125
0
LINE
8
BLACK
6
CONTINUOUS
10
310.431
20
-87.9125
11
296.531
21
-87.9125
0
LINE
8
BLACK
6
CONTINUOUS
10
310.431
20
-74.0125
11
310.431
21
-87.9125
0
LINE
8
BLACK
6
CONTINUOUS
10
296.531
20
-74.0125
11
310.431
21
-74.0125
0
LINE
8
BLACK
6
CONTINUOUS
10
292.959
20
-21.2375
11
292.959
21
-7.3375
0
LINE
8
BLACK
6
CONTINUOUS
10
306.859
20
-21.2375
11
292.959
21
-21.2375
0
LINE
8
BLACK
6
CONTINUOUS
10
306.859
20
-7.3375
11
306.859
21
-21.2375
0
LINE
8
BLACK
6
CONTINUOUS
10
292.959
20
-7.3375
11
306.859
21
-7.3375
0
LINE
8
BLACK
6
CONTINUOUS
10
288.197
20
-2.1875
11
288.197
21
11.7125
0
LINE
8
BLACK
6
CONTINUOUS
10
302.096
20
-2.1875
11
288.197
21
-2.1875
0
LINE
8
BLACK
6
CONTINUOUS
10
302.096
20
11.7125
11
302.096
21
-2.1875
0
LINE
8
BLACK
6
CONTINUOUS
10
288.197
20
11.7125
11
302.096
21
11.7125
0
LINE
8
BLACK
6
CONTINUOUS
10
264.384
20
-6.95
11
264.384
21
6.95
0
LINE
8
BLACK
6
CONTINUOUS
10
278.284
20
-6.95
11
264.384
21
-6.95
0
LINE
8
BLACK
6
CONTINUOUS
10
278.284
20
6.95
11
278.284
21
-6.95
0
LINE
8
BLACK
6
CONTINUOUS
10
264.384
20
6.95
11
278.284
21
6.95
0
LINE
8
BLACK
6
CONTINUOUS
10
277.481
20
-87.9125
11
277.481
21
-74.0125
0
LINE
8
BLACK
6
CONTINUOUS
10
291.381
20
-87.9125
11
277.481
21
-87.9125
0
LINE
8
BLACK
6
CONTINUOUS
10
291.381
20
-74.0125
11
291.381
21
-87.9125
0
LINE
8
BLACK
6
CONTINUOUS
10
277.481
20
-74.0125
11
291.381
21
-74.0125
0
LINE
8
BLACK
6
CONTINUOUS
10
297.721
20
-40.2875
11
297.721
21
-26.3875
0
LINE
8
BLACK
6
CONTINUOUS
10
311.621
20
-40.2875
11
297.721
21
-40.2875
0
LINE
8
BLACK
6
CONTINUOUS
10
311.621
20
-26.3875
11
311.621
21
-40.2875
0
LINE
8
BLACK
6
CONTINUOUS
10
297.721
20
-26.3875
11
311.621
21
-26.3875
0
LINE
8
BLACK
6
CONTINUOUS
10
245.334
20
-6.95
11
245.334
21
6.95
0
LINE
8
BLACK
6
CONTINUOUS
10
259.234
20
-6.95
11
245.334
21
-6.95
0
LINE
8
BLACK
6
CONTINUOUS
10
259.234
20
6.95
11
259.234
21
-6.95
0
LINE
8
BLACK
6
CONTINUOUS
10
245.334
20
6.95
11
259.234
21
6.95
0
LINE
8
BLACK
6
CONTINUOUS
10
258.431
20
-87.9125
11
258.431
21
-74.0125
0
LINE
8
BLACK
6
CONTINUOUS
10
272.331
20
-87.9125
11
258.431
21
-87.9125
0
LINE
8
BLACK
6
CONTINUOUS
10
272.331
20
-74.0125
11
272.331
21
-87.9125
0
LINE
8
BLACK
6
CONTINUOUS
10
258.431
20
-74.0125
11
272.331
21
-74.0125
0
LINE
8
BLACK
6
CONTINUOUS
10
277.481
20
-68.8625
11
277.481
21
-54.9625
0
LINE
8
BLACK
6
CONTINUOUS
10
291.381
20
-68.8625
11
277.481
21
-68.8625
0
LINE
8
BLACK
6
CONTINUOUS
10
291.381
20
-54.9625
11
291.381
21
-68.8625
0
LINE
8
BLACK
6
CONTINUOUS
10
277.481
20
-54.9625
11
291.381
21
-54.9625
0
LINE
8
BLACK
6
CONTINUOUS
10
239.976
20
-26
11
239.976
21
-12.1
0
LINE
8
BLACK
6
CONTINUOUS
10
253.876
20
-26
11
239.976
21
-26
0
LINE
8
BLACK
6
CONTINUOUS
10
253.876
20
-12.1
11
253.876
21
-26
0
LINE
8
BLACK
6
CONTINUOUS
10
239.976
20
-12.1
11
253.876
21
-12.1
0
LINE
8
BLACK
6
CONTINUOUS
10
226.284
20
-6.95
11
226.284
21
6.95
0
LINE
8
BLACK
6
CONTINUOUS
10
240.184
20
-6.95
11
226.284
21
-6.95
0
LINE
8
BLACK
6
CONTINUOUS
10
240.184
20
6.95
11
240.184
21
-6.95
0
LINE
8
BLACK
6
CONTINUOUS
10
226.284
20
6.95
11
240.184
21
6.95
0
LINE
8
BLACK
6
CONTINUOUS
10
229.856
20
-45.05
11
229.856
21
-31.15
0
LINE
8
BLACK
6
CONTINUOUS
10
243.756
20
-45.05
11
229.856
21
-45.05
0
LINE
8
BLACK
6
CONTINUOUS
10
243.756
20
-31.15
11
243.756
21
-45.05
0
LINE
8
BLACK
6
CONTINUOUS
10
229.856
20
-31.15
11
243.756
21
-31.15
0
LINE
8
BLACK
6
CONTINUOUS
10
220.926
20
-26
11
220.926
21
-12.1
0
LINE
8
BLACK
6
CONTINUOUS
10
234.826
20
-26
11
220.926
21
-26
0
LINE
8
BLACK
6
CONTINUOUS
10
234.826
20
-12.1
11
234.826
21
-26
0
LINE
8
BLACK
6
CONTINUOUS
10
220.926
20
-12.1
11
234.826
21
-12.1
0
LINE
8
BLACK
6
CONTINUOUS
10
207.024
20
-7.00924
11
204.134
21
6.58701
0
LINE
8
BLACK
6
CONTINUOUS
10
220.62
20
-4.11927
11
207.024
21
-7.00924
0
LINE
8
BLACK
6
CONTINUOUS
10
217.73
20
9.47698
11
220.62
21
-4.11927
0
LINE
8
BLACK
6
CONTINUOUS
10
204.134
20
6.58701
11
217.73
21
9.47698
0
LINE
8
BLACK
6
CONTINUOUS
10
220.331
20
-64.1
11
220.331
21
-50.2
0
LINE
8
BLACK
6
CONTINUOUS
10
234.231
20
-64.1
11
220.331
21
-64.1
0
LINE
8
BLACK
6
CONTINUOUS
10
234.231
20
-50.2
11
234.231
21
-64.1
0
LINE
8
BLACK
6
CONTINUOUS
10
220.331
20
-50.2
11
234.231
21
-50.2
0
LINE
8
BLACK
6
CONTINUOUS
10
210.806
20
-45.05
11
210.806
21
-31.15
0
LINE
8
BLACK
6
CONTINUOUS
10
224.706
20
-45.05
11
210.806
21
-45.05
0
LINE
8
BLACK
6
CONTINUOUS
10
224.706
20
-31.15
11
224.706
21
-45.05
0
LINE
8
BLACK
6
CONTINUOUS
10
210.806
20
-31.15
11
224.706
21
-31.15
0
LINE
8
BLACK
6
CONTINUOUS
10
201.668
20
-27.6233
11
198.778
21
-14.0271
0
LINE
8
BLACK
6
CONTINUOUS
10
215.264
20
-24.7333
11
201.668
21
-27.6233
0
LINE
8
BLACK
6
CONTINUOUS
10
212.374
20
-11.1371
11
215.264
21
-24.7333
0
LINE
8
BLACK
6
CONTINUOUS
10
198.778
20
-14.0271
11
212.374
21
-11.1371
0
LINE
8
BLACK
6
CONTINUOUS
10
188.39
20
-10.97
11
185.5
21
2.62629
0
LINE
8
BLACK
6
CONTINUOUS
10
201.987
20
-8.07999
11
188.39
21
-10.97
0
LINE
8
BLACK
6
CONTINUOUS
10
199.097
20
5.51627
11
201.987
21
-8.07999
0
LINE
8
BLACK
6
CONTINUOUS
10
185.5
20
2.62629
11
199.097
21
5.51627
0
LINE
8
BLACK
6
CONTINUOUS
10
200.272
20
-66.8711
11
197.382
21
-53.2748
0
LINE
8
BLACK
6
CONTINUOUS
10
213.869
20
-63.9811
11
200.272
21
-66.8711
0
LINE
8
BLACK
6
CONTINUOUS
10
210.979
20
-50.3849
11
213.869
21
-63.9811
0
LINE
8
BLACK
6
CONTINUOUS
10
197.382
20
-53.2748
11
210.979
21
-50.3849
0
LINE
8
BLACK
6
CONTINUOUS
10
191.653
20
-49.2276
11
188.763
21
-35.6313
0
LINE
8
BLACK
6
CONTINUOUS
10
205.25
20
-46.3376
11
191.653
21
-49.2276
0
LINE
8
BLACK
6
CONTINUOUS
10
202.36
20
-32.7413
11
205.25
21
-46.3376
0
LINE
8
BLACK
6
CONTINUOUS
10
188.763
20
-35.6313
11
202.36
21
-32.7413
0
LINE
8
BLACK
6
CONTINUOUS
10
183.034
20
-31.584
11
180.144
21
-17.9878
0
LINE
8
BLACK
6
CONTINUOUS
10
196.63
20
-28.6941
11
183.034
21
-31.584
0
LINE
8
BLACK
6
CONTINUOUS
10
193.74
20
-15.0978
11
196.63
21
-28.6941
0
LINE
8
BLACK
6
CONTINUOUS
10
180.144
20
-17.9878
11
193.74
21
-15.0978
0
LINE
8
BLACK
6
CONTINUOUS
10
169.757
20
-14.9307
11
166.867
21
-1.33442
0
LINE
8
BLACK
6
CONTINUOUS
10
183.353
20
-12.0407
11
169.757
21
-14.9307
0
LINE
8
BLACK
6
CONTINUOUS
10
180.463
20
1.55555
11
183.353
21
-12.0407
0
LINE
8
BLACK
6
CONTINUOUS
10
166.867
20
-1.33442
11
180.463
21
1.55555
0
LINE
8
BLACK
6
CONTINUOUS
10
181.639
20
-70.8318
11
178.749
21
-57.2356
0
LINE
8
BLACK
6
CONTINUOUS
10
195.235
20
-67.9418
11
181.639
21
-70.8318
0
LINE
8
BLACK
6
CONTINUOUS
10
192.345
20
-54.3456
11
195.235
21
-67.9418
0
LINE
8
BLACK
6
CONTINUOUS
10
178.749
20
-57.2356
11
192.345
21
-54.3456
0
LINE
8
BLACK
6
CONTINUOUS
10
173.02
20
-53.1883
11
170.13
21
-39.592
0
LINE
8
BLACK
6
CONTINUOUS
10
186.616
20
-50.2983
11
173.02
21
-53.1883
0
LINE
8
BLACK
6
CONTINUOUS
10
183.726
20
-36.7021
11
186.616
21
-50.2983
0
LINE
8
BLACK
6
CONTINUOUS
10
170.13
20
-39.592
11
183.726
21
-36.7021
0
LINE
8
BLACK
6
CONTINUOUS
10
164.4
20
-35.5447
11
161.51
21
-21.9485
0
LINE
8
BLACK
6
CONTINUOUS
10
177.997
20
-32.6548
11
164.4
21
-35.5447
0
LINE
8
BLACK
6
CONTINUOUS
10
175.107
20
-19.0585
11
177.997
21
-32.6548
0
LINE
8
BLACK
6
CONTINUOUS
10
161.51
20
-21.9485
11
175.107
21
-19.0585
0
LINE
8
BLACK
6
CONTINUOUS
10
151.123
20
-18.8914
11
148.233
21
-5.29514
0
LINE
8
BLACK
6
CONTINUOUS
10
164.719
20
-16.0014
11
151.123
21
-18.8914
0
LINE
8
BLACK
6
CONTINUOUS
10
161.829
20
-2.40517
11
164.719
21
-16.0014
0
LINE
8
BLACK
6
CONTINUOUS
10
148.233
20
-5.29514
11
161.829
21
-2.40517
0
LINE
8
BLACK
6
CONTINUOUS
10
163.005
20
-74.7925
11
160.115
21
-61.1963
0
LINE
8
BLACK
6
CONTINUOUS
10
176.601
20
-71.9026
11
163.005
21
-74.7925
0
LINE
8
BLACK
6
CONTINUOUS
10
173.711
20
-58.3063
11
176.601
21
-71.9026
0
LINE
8
BLACK
6
CONTINUOUS
10
160.115
20
-61.1963
11
173.711
21
-58.3063
0
LINE
8
BLACK
6
CONTINUOUS
10
154.386
20
-57.149
11
151.496
21
-43.5527
0
LINE
8
BLACK
6
CONTINUOUS
10
167.982
20
-54.259
11
154.386
21
-57.149
0
LINE
8
BLACK
6
CONTINUOUS
10
165.092
20
-40.6628
11
167.982
21
-54.259
0
LINE
8
BLACK
6
CONTINUOUS
10
151.496
20
-43.5527
11
165.092
21
-40.6628
0
LINE
8
BLACK
6
CONTINUOUS
10
145.767
20
-39.5055
11
142.877
21
-25.9092
0
LINE
8
BLACK
6
CONTINUOUS
10
159.363
20
-36.6155
11
145.767
21
-39.5055
0
LINE
8
BLACK
6
CONTINUOUS
10
156.473
20
-23.0192
11
159.363
21
-36.6155
0
LINE
8
BLACK
6
CONTINUOUS
10
142.877
20
-25.9092
11
156.473
21
-23.0192
0
LINE
8
BLACK
6
CONTINUOUS
10
132.489
20
-22.8521
11
129.599
21
-9.25586
0
LINE
8
BLACK
6
CONTINUOUS
10
146.085
20
-19.9621
11
132.489
21
-22.8521
0
LINE
8
BLACK
6
CONTINUOUS
10
143.195
20
-6.36588
11
146.085
21
-19.9621
0
LINE
8
BLACK
6
CONTINUOUS
10
129.599
20
-9.25586
11
143.195
21
-6.36588
0
LINE
8
BLACK
6
CONTINUOUS
10
104.354
20
-97.1584
11
107.244
21
-83.5621
0
LINE
8
BLACK
6
CONTINUOUS
10
117.95
20
-100.048
11
104.354
21
-97.1584
0
LINE
8
BLACK
6
CONTINUOUS
10
120.84
20
-86.4521
11
117.95
21
-100.048
0
LINE
8
BLACK
6
CONTINUOUS
10
107.244
20
-83.5621
11
120.84
21
-86.4521
0
LINE
8
BLACK
6
CONTINUOUS
10
144.371
20
-78.7532
11
141.481
21
-65.157
0
LINE
8
BLACK
6
CONTINUOUS
10
157.968
20
-75.8633
11
144.371
21
-78.7532
0
LINE
8
BLACK
6
CONTINUOUS
10
155.078
20
-62.267
11
157.968
21
-75.8633
0
LINE
8
BLACK
6
CONTINUOUS
10
141.481
20
-65.157
11
155.078
21
-62.267
0
LINE
8
BLACK
6
CONTINUOUS
10
127.133
20
-43.4662
11
124.243
21
-29.8699
0
LINE
8
BLACK
6
CONTINUOUS
10
140.729
20
-40.5762
11
127.133
21
-43.4662
0
LINE
8
BLACK
6
CONTINUOUS
10
137.839
20
-26.98
11
140.729
21
-40.5762
0
LINE
8
BLACK
6
CONTINUOUS
10
124.243
20
-29.8699
11
137.839
21
-26.98
0
LINE
8
BLACK
6
CONTINUOUS
10
119.818
20
-22.5429
11
106.221
21
-19.653
0
LINE
8
BLACK
6
CONTINUOUS
10
122.708
20
-8.9467
11
119.818
21
-22.5429
0
LINE
8
BLACK
6
CONTINUOUS
10
109.111
20
-6.05672
11
122.708
21
-8.9467
0
LINE
8
BLACK
6
CONTINUOUS
10
106.221
20
-19.653
11
109.111
21
-6.05672
0
LINE
8
BLACK
6
CONTINUOUS
10
98.9978
20
-76.5443
11
101.888
21
-62.948
0
LINE
8
BLACK
6
CONTINUOUS
10
112.594
20
-79.4343
11
98.9978
21
-76.5443
0
LINE
8
BLACK
6
CONTINUOUS
10
115.484
20
-65.838
11
112.594
21
-79.4343
0
LINE
8
BLACK
6
CONTINUOUS
10
101.888
20
-62.948
11
115.484
21
-65.838
0
LINE
8
BLACK
6
CONTINUOUS
10
93.6416
20
-55.9302
11
96.5316
21
-42.334
0
LINE
8
BLACK
6
CONTINUOUS
10
107.238
20
-58.8202
11
93.6416
21
-55.9302
0
LINE
8
BLACK
6
CONTINUOUS
10
110.128
20
-45.2239
11
107.238
21
-58.8202
0
LINE
8
BLACK
6
CONTINUOUS
10
96.5316
20
-42.334
11
110.128
21
-45.2239
0
LINE
8
BLACK
6
CONTINUOUS
10
92.9439
20
-36.3063
11
95.8339
21
-22.7101
0
LINE
8
BLACK
6
CONTINUOUS
10
106.54
20
-39.1963
11
92.9439
21
-36.3063
0
LINE
8
BLACK
6
CONTINUOUS
10
109.43
20
-25.6
11
106.54
21
-39.1963
0
LINE
8
BLACK
6
CONTINUOUS
10
95.8339
20
-22.7101
11
109.43
21
-25.6
0
LINE
8
BLACK
6
CONTINUOUS
10
87.5878
20
-15.6923
11
90.4778
21
-2.09601
0
LINE
8
BLACK
6
CONTINUOUS
10
101.184
20
-18.5822
11
87.5878
21
-15.6923
0
LINE
8
BLACK
6
CONTINUOUS
10
104.074
20
-4.98598
11
101.184
21
-18.5822
0
LINE
8
BLACK
6
CONTINUOUS
10
90.4778
20
-2.09601
11
104.074
21
-4.98598
0
LINE
8
BLACK
6
CONTINUOUS
10
80.3641
20
-72.5836
11
83.254
21
-58.9873
0
LINE
8
BLACK
6
CONTINUOUS
10
93.9603
20
-75.4735
11
80.3641
21
-72.5836
0
LINE
8
BLACK
6
CONTINUOUS
10
96.8503
20
-61.8773
11
93.9603
21
-75.4735
0
LINE
8
BLACK
6
CONTINUOUS
10
83.254
20
-58.9873
11
96.8503
21
-61.8773
0
LINE
8
BLACK
6
CONTINUOUS
10
75.0079
20
-51.9695
11
77.8979
21
-38.3733
0
LINE
8
BLACK
6
CONTINUOUS
10
88.6042
20
-54.8595
11
75.0079
21
-51.9695
0
LINE
8
BLACK
6
CONTINUOUS
10
91.4941
20
-41.2632
11
88.6042
21
-54.8595
0
LINE
8
BLACK
6
CONTINUOUS
10
77.8979
20
-38.3733
11
91.4941
21
-41.2632
0
LINE
8
BLACK
6
CONTINUOUS
10
74.3102
20
-32.3456
11
77.2002
21
-18.7494
0
LINE
8
BLACK
6
CONTINUOUS
10
87.9065
20
-35.2356
11
74.3102
21
-32.3456
0
LINE
8
BLACK
6
CONTINUOUS
10
90.7964
20
-21.6393
11
87.9065
21
-35.2356
0
LINE
8
BLACK
6
CONTINUOUS
10
77.2002
20
-18.7494
11
90.7964
21
-21.6393
0
LINE
8
BLACK
6
CONTINUOUS
10
61.7303
20
-68.6229
11
64.6203
21
-55.0266
0
LINE
8
BLACK
6
CONTINUOUS
10
75.3266
20
-71.5128
11
61.7303
21
-68.6229
0
LINE
8
BLACK
6
CONTINUOUS
10
78.2166
20
-57.9166
11
75.3266
21
-71.5128
0
LINE
8
BLACK
6
CONTINUOUS
10
64.6203
20
-55.0266
11
78.2166
21
-57.9166
0
LINE
8
BLACK
6
CONTINUOUS
10
56.3742
20
-48.0088
11
59.2642
21
-34.4125
0
LINE
8
BLACK
6
CONTINUOUS
10
69.9705
20
-50.8988
11
56.3742
21
-48.0088
0
LINE
8
BLACK
6
CONTINUOUS
10
72.8604
20
-37.3025
11
69.9705
21
-50.8988
0
LINE
8
BLACK
6
CONTINUOUS
10
59.2642
20
-34.4125
11
72.8604
21
-37.3025
0
LINE
8
BLACK
6
CONTINUOUS
10
55.6765
20
-28.3849
11
58.5665
21
-14.7886
0
LINE
8
BLACK
6
CONTINUOUS
10
69.2728
20
-31.2749
11
55.6765
21
-28.3849
0
LINE
8
BLACK
6
CONTINUOUS
10
72.1627
20
-17.6786
11
69.2728
21
-31.2749
0
LINE
8
BLACK
6
CONTINUOUS
10
58.5665
20
-14.7886
11
72.1627
21
-17.6786
0
LINE
8
BLACK
6
CONTINUOUS
10
50.3204
20
-7.77082
11
53.2103
21
5.82543
0
LINE
8
BLACK
6
CONTINUOUS
10
63.9166
20
-10.6608
11
50.3204
21
-7.77082
0
LINE
8
BLACK
6
CONTINUOUS
10
66.8066
20
2.93546
11
63.9166
21
-10.6608
0
LINE
8
BLACK
6
CONTINUOUS
10
53.2103
20
5.82543
11
66.8066
21
2.93546
0
LINE
8
BLACK
6
CONTINUOUS
10
43.0966
20
-64.6621
11
45.9866
21
-51.0659
0
LINE
8
BLACK
6
CONTINUOUS
10
56.6929
20
-67.5521
11
43.0966
21
-64.6621
0
LINE
8
BLACK
6
CONTINUOUS
10
59.5829
20
-53.9559
11
56.6929
21
-67.5521
0
LINE
8
BLACK
6
CONTINUOUS
10
45.9866
20
-51.0659
11
59.5829
21
-53.9559
0
LINE
8
BLACK
6
CONTINUOUS
10
37.7405
20
-44.0481
11
40.6305
21
-30.4518
0
LINE
8
BLACK
6
CONTINUOUS
10
51.3368
20
-46.938
11
37.7405
21
-44.0481
0
LINE
8
BLACK
6
CONTINUOUS
10
54.2267
20
-33.3418
11
51.3368
21
-46.938
0
LINE
8
BLACK
6
CONTINUOUS
10
40.6305
20
-30.4518
11
54.2267
21
-33.3418
0
LINE
8
BLACK
6
CONTINUOUS
10
37.0428
20
-24.4242
11
39.9328
21
-10.8279
0
LINE
8
BLACK
6
CONTINUOUS
10
50.639
20
-27.3141
11
37.0428
21
-24.4242
0
LINE
8
BLACK
6
CONTINUOUS
10
53.529
20
-13.7179
11
50.639
21
-27.3141
0
LINE
8
BLACK
6
CONTINUOUS
10
39.9328
20
-10.8279
11
53.529
21
-13.7179
0
LINE
8
BLACK
6
CONTINUOUS
10
31.6867
20
-3.81011
11
34.5766
21
9.78614
0
LINE
8
BLACK
6
CONTINUOUS
10
45.2829
20
-6.70008
11
31.6867
21
-3.81011
0
LINE
8
BLACK
6
CONTINUOUS
10
48.1729
20
6.89617
11
45.2829
21
-6.70008
0
LINE
8
BLACK
6
CONTINUOUS
10
34.5766
20
9.78614
11
48.1729
21
6.89617
0
LINE
8
BLACK
6
CONTINUOUS
10
23.4109
20
-64.1
11
23.4109
21
-50.2
0
LINE
8
BLACK
6
CONTINUOUS
10
37.3109
20
-64.1
11
23.4109
21
-64.1
0
LINE
8
BLACK
6
CONTINUOUS
10
37.3109
20
-50.2
11
37.3109
21
-64.1
0
LINE
8
BLACK
6
CONTINUOUS
10
23.4109
20
-50.2
11
37.3109
21
-50.2
0
LINE
8
BLACK
6
CONTINUOUS
10
18.0531
20
-45.05
11
18.0531
21
-31.15
0
LINE
8
BLACK
6
CONTINUOUS
10
31.9531
20
-45.05
11
18.0531
21
-45.05
0
LINE
8
BLACK
6
CONTINUOUS
10
31.9531
20
-31.15
11
31.9531
21
-45.05
0
LINE
8
BLACK
6
CONTINUOUS
10
18.0531
20
-31.15
11
31.9531
21
-31.15
0
LINE
8
BLACK
6
CONTINUOUS
10
17.4578
20
-26
11
17.4578
21
-12.1
0
LINE
8
BLACK
6
CONTINUOUS
10
31.3578
20
-26
11
17.4578
21
-26
0
LINE
8
BLACK
6
CONTINUOUS
10
31.3578
20
-12.1
11
31.3578
21
-26
0
LINE
8
BLACK
6
CONTINUOUS
10
17.4578
20
-12.1
11
31.3578
21
-12.1
0
LINE
8
BLACK
6
CONTINUOUS
10
12.1
20
-6.95
11
12.1
21
6.95
0
LINE
8
BLACK
6
CONTINUOUS
10
26
20
-6.95
11
12.1
21
-6.95
0
LINE
8
BLACK
6
CONTINUOUS
10
26
20
6.95
11
26
21
-6.95
0
LINE
8
BLACK
6
CONTINUOUS
10
12.1
20
6.95
11
26
21
6.95
0
LINE
8
BLACK
6
CONTINUOUS
10
-6.95
20
-6.95
11
-6.95
21
6.95
0
LINE
8
BLACK
6
CONTINUOUS
10
6.95
20
-6.95
11
-6.95
21
-6.95
0
LINE
8
BLACK
6
CONTINUOUS
10
6.95
20
6.95
11
6.95
21
-6.95
0
LINE
8
BLACK
6
CONTINUOUS
10
-6.95
20
6.95
11
6.95
21
6.95
  0
ENDSEC
  0
EOF
