  0
SECTION
  2
HEADER
  9
$ANGBASE
  50
0.0
  9
$ANGDIR
  70
1
  9
$MEASUREMENT
  70
1
  0
ENDSEC
  0
SECTION
  2
TABLES
  0
TABLE
  2
LTYPE
  70
4
  0
LTYPE
  5
40F
  2
CONTINUOUS
  70
0
  3
Solid line
  72
65
  73
0
  40
0.0
  0
LTYPE
  5
410
  2
DASHDOT
 70
0
  3
Dash Dot ____ _ ____ _
 72
65
 73
4
 40
2.0
 49
1.25
 49
-0.25
 49
0.25
 49
-0.25
  0
LTYPE
  5
411
  2
DASHED
 70
0
  3
Dashed __ __ __ __ __
 72
65
 73
2
 40
0.75
 49
0.5
 49
-0.25
  0
LTYPE
  5
43B
  2
DOTTED
 70
0
  3
Dotted .  .  .  .
 72
65
 73
2
 40
0.2
 49
0.0
 49
-0.2
  0
ENDTAB
  0
TABLE
  2
STYLE
  70
4
  0
STYLE
  2
KICAD
  70
0
  40
0
  41
1
  42
1
  50
0
  71
0
  3
isocp.shx
  0
STYLE
  2
KICADB
  70
0
  40
0
  41
1
  42
1
  50
0
  71
0
  3
isocp.shx
  0
STYLE
  2
KICADI
  70
0
  40
0
  41
1
  42
1
  50
15
  71
0
  3
isocp.shx
  0
STYLE
  2
KICADBI
  70
0
  40
0
  41
1
  42
1
  50
15
  71
0
  3
isocp.shx
  0
ENDTAB
  0
TABLE
  2
LAYER
  70
1
  0
LAYER
  2
BLACK
  70
0
  62
7
  6
CONTINUOUS
  0
ENDTAB
  0
ENDSEC
  0
SECTION
  2
ENTITIES
0
LINE
8
BLACK
6
CONTINUOUS
10
151.161
20
-18.8321
11
148.292
21
-5.33365
0
LINE
8
BLACK
6
CONTINUOUS
10
164.66
20
-15.9629
11
151.161
21
-18.8321
0
LINE
8
BLACK
6
CONTINUOUS
10
161.791
20
-2.46447
11
164.66
21
-15.9629
0
LINE
8
BLACK
6
CONTINUOUS
10
148.292
20
-5.33365
11
161.791
21
-2.46447
0
LINE
8
BLACK
6
CONTINUOUS
10
35.7998
20
-44.0096
11
38.669
21
-30.5111
0
LINE
8
BLACK
6
CONTINUOUS
10
49.2982
20
-46.8787
11
35.7998
21
-44.0096
0
LINE
8
BLACK
6
CONTINUOUS
10
52.1674
20
-33.3803
11
49.2982
21
-46.8787
0
LINE
8
BLACK
6
CONTINUOUS
10
38.669
20
-30.5111
11
52.1674
21
-33.3803
0
LINE
8
BLACK
6
CONTINUOUS
10
85.6471
20
-15.6537
11
88.5163
21
-2.15531
0
LINE
8
BLACK
6
CONTINUOUS
10
99.1455
20
-18.5229
11
85.6471
21
-15.6537
0
LINE
8
BLACK
6
CONTINUOUS
10
102.015
20
-5.02449
11
99.1455
21
-18.5229
0
LINE
8
BLACK
6
CONTINUOUS
10
88.5163
20
-2.15531
11
102.015
21
-5.02449
0
LINE
8
BLACK
6
CONTINUOUS
10
-10.0906
20
-45
11
-10.0906
21
-31.2
0
LINE
8
BLACK
6
CONTINUOUS
10
3.70937
20
-45
11
-10.0906
21
-45
0
LINE
8
BLACK
6
CONTINUOUS
10
3.70937
20
-31.2
11
3.70937
21
-45
0
LINE
8
BLACK
6
CONTINUOUS
10
-10.0906
20
-31.2
11
3.70937
21
-31.2
0
LINE
8
BLACK
6
CONTINUOUS
10
246.575
20
-64.05
11
246.575
21
-50.25
0
LINE
8
BLACK
6
CONTINUOUS
10
260.375
20
-64.05
11
246.575
21
-64.05
0
LINE
8
BLACK
6
CONTINUOUS
10
260.375
20
-50.25
11
260.375
21
-64.05
0
LINE
8
BLACK
6
CONTINUOUS
10
246.575
20
-50.25
11
260.375
21
-50.25
0
LINE
8
BLACK
6
CONTINUOUS
10
-8.30469
20
-25.95
11
-8.30469
21
-12.15
0
LINE
8
BLACK
6
CONTINUOUS
10
5.49531
20
-25.95
11
-8.30469
21
-25.95
0
LINE
8
BLACK
6
CONTINUOUS
10
5.49531
20
-12.15
11
5.49531
21
-25.95
0
LINE
8
BLACK
6
CONTINUOUS
10
-8.30469
20
-12.15
11
5.49531
21
-12.15
0
LINE
8
BLACK
6
CONTINUOUS
10
-16.6391
20
-83.1
11
-16.6391
21
-69.3
0
LINE
8
BLACK
6
CONTINUOUS
10
-2.83906
20
-83.1
11
-16.6391
21
-83.1
0
LINE
8
BLACK
6
CONTINUOUS
10
-2.83906
20
-69.3
11
-2.83906
21
-83.1
0
LINE
8
BLACK
6
CONTINUOUS
10
-16.6391
20
-69.3
11
-2.83906
21
-69.3
0
LINE
8
BLACK
6
CONTINUOUS
10
41.8537
20
-84.2475
11
44.7228
21
-70.7491
0
LINE
8
BLACK
6
CONTINUOUS
10
55.3521
20
-87.1167
11
41.8537
21
-84.2475
0
LINE
8
BLACK
6
CONTINUOUS
10
58.2213
20
-73.6183
11
55.3521
21
-87.1167
0
LINE
8
BLACK
6
CONTINUOUS
10
44.7228
20
-70.7491
11
58.2213
21
-73.6183
0
LINE
8
BLACK
6
CONTINUOUS
10
194.955
20
-87.4259
11
192.086
21
-73.9274
0
LINE
8
BLACK
6
CONTINUOUS
10
208.453
20
-84.5567
11
194.955
21
-87.4259
0
LINE
8
BLACK
6
CONTINUOUS
10
205.584
20
-71.0582
11
208.453
21
-84.5567
0
LINE
8
BLACK
6
CONTINUOUS
10
192.086
20
-73.9274
11
205.584
21
-71.0582
0
LINE
8
BLACK
6
CONTINUOUS
10
263.839
20
-25.95
11
263.839
21
-12.15
0
LINE
8
BLACK
6
CONTINUOUS
10
277.639
20
-25.95
11
263.839
21
-25.95
0
LINE
8
BLACK
6
CONTINUOUS
10
277.639
20
-12.15
11
277.639
21
-25.95
0
LINE
8
BLACK
6
CONTINUOUS
10
263.839
20
-12.15
11
277.639
21
-12.15
0
LINE
8
BLACK
6
CONTINUOUS
10
-8.9
20
-6.9
11
-8.9
21
6.9
0
LINE
8
BLACK
6
CONTINUOUS
10
4.9
20
-6.9
11
-8.9
21
-6.9
0
LINE
8
BLACK
6
CONTINUOUS
10
4.9
20
6.9
11
4.9
21
-6.9
0
LINE
8
BLACK
6
CONTINUOUS
10
-8.9
20
6.9
11
4.9
21
6.9
0
LINE
8
BLACK
6
CONTINUOUS
10
10.15
20
-6.9
11
10.15
21
6.9
0
LINE
8
BLACK
6
CONTINUOUS
10
23.95
20
-6.9
11
10.15
21
-6.9
0
LINE
8
BLACK
6
CONTINUOUS
10
23.95
20
6.9
11
23.95
21
-6.9
0
LINE
8
BLACK
6
CONTINUOUS
10
10.15
20
6.9
11
23.95
21
6.9
0
LINE
8
BLACK
6
CONTINUOUS
10
15.5078
20
-25.95
11
15.5078
21
-12.15
0
LINE
8
BLACK
6
CONTINUOUS
10
29.3078
20
-25.95
11
15.5078
21
-25.95
0
LINE
8
BLACK
6
CONTINUOUS
10
29.3078
20
-12.15
11
29.3078
21
-25.95
0
LINE
8
BLACK
6
CONTINUOUS
10
15.5078
20
-12.15
11
29.3078
21
-12.15
0
LINE
8
BLACK
6
CONTINUOUS
10
16.1031
20
-45
11
16.1031
21
-31.2
0
LINE
8
BLACK
6
CONTINUOUS
10
29.9031
20
-45
11
16.1031
21
-45
0
LINE
8
BLACK
6
CONTINUOUS
10
29.9031
20
-31.2
11
29.9031
21
-45
0
LINE
8
BLACK
6
CONTINUOUS
10
16.1031
20
-31.2
11
29.9031
21
-31.2
0
LINE
8
BLACK
6
CONTINUOUS
10
21.4609
20
-64.05
11
21.4609
21
-50.25
0
LINE
8
BLACK
6
CONTINUOUS
10
35.2609
20
-64.05
11
21.4609
21
-64.05
0
LINE
8
BLACK
6
CONTINUOUS
10
35.2609
20
-50.25
11
35.2609
21
-64.05
0
LINE
8
BLACK
6
CONTINUOUS
10
21.4609
20
-50.25
11
35.2609
21
-50.25
0
LINE
8
BLACK
6
CONTINUOUS
10
35.1021
20
-24.3857
11
37.9713
21
-10.8872
0
LINE
8
BLACK
6
CONTINUOUS
10
48.6005
20
-27.2548
11
35.1021
21
-24.3857
0
LINE
8
BLACK
6
CONTINUOUS
10
51.4697
20
-13.7564
11
48.6005
21
-27.2548
0
LINE
8
BLACK
6
CONTINUOUS
10
37.9713
20
-10.8872
11
51.4697
21
-13.7564
0
LINE
8
BLACK
6
CONTINUOUS
10
41.1559
20
-64.6236
11
44.0251
21
-51.1252
0
LINE
8
BLACK
6
CONTINUOUS
10
54.6544
20
-67.4928
11
41.1559
21
-64.6236
0
LINE
8
BLACK
6
CONTINUOUS
10
57.5236
20
-53.9944
11
54.6544
21
-67.4928
0
LINE
8
BLACK
6
CONTINUOUS
10
44.0251
20
-51.1252
11
57.5236
21
-53.9944
0
LINE
8
BLACK
6
CONTINUOUS
10
53.7358
20
-28.3464
11
56.605
21
-14.8479
0
LINE
8
BLACK
6
CONTINUOUS
10
67.2342
20
-31.2156
11
53.7358
21
-28.3464
0
LINE
8
BLACK
6
CONTINUOUS
10
70.1034
20
-17.7171
11
67.2342
21
-31.2156
0
LINE
8
BLACK
6
CONTINUOUS
10
56.605
20
-14.8479
11
70.1034
21
-17.7171
0
LINE
8
BLACK
6
CONTINUOUS
10
54.4335
20
-47.9703
11
57.3027
21
-34.4718
0
LINE
8
BLACK
6
CONTINUOUS
10
67.932
20
-50.8395
11
54.4335
21
-47.9703
0
LINE
8
BLACK
6
CONTINUOUS
10
70.8011
20
-37.341
11
67.932
21
-50.8395
0
LINE
8
BLACK
6
CONTINUOUS
10
57.3027
20
-34.4718
11
70.8011
21
-37.341
0
LINE
8
BLACK
6
CONTINUOUS
10
59.7897
20
-68.5843
11
62.6588
21
-55.0859
0
LINE
8
BLACK
6
CONTINUOUS
10
73.2881
20
-71.4535
11
59.7897
21
-68.5843
0
LINE
8
BLACK
6
CONTINUOUS
10
76.1573
20
-57.9551
11
73.2881
21
-71.4535
0
LINE
8
BLACK
6
CONTINUOUS
10
62.6588
20
-55.0859
11
76.1573
21
-57.9551
0
LINE
8
BLACK
6
CONTINUOUS
10
67.0134
20
-11.693
11
69.8826
21
1.80541
0
LINE
8
BLACK
6
CONTINUOUS
10
80.5118
20
-14.5622
11
67.0134
21
-11.693
0
LINE
8
BLACK
6
CONTINUOUS
10
83.381
20
-1.06377
11
80.5118
21
-14.5622
0
LINE
8
BLACK
6
CONTINUOUS
10
69.8826
20
1.80541
11
83.381
21
-1.06377
0
LINE
8
BLACK
6
CONTINUOUS
10
72.3695
20
-32.3071
11
75.2387
21
-18.8087
0
LINE
8
BLACK
6
CONTINUOUS
10
85.868
20
-35.1763
11
72.3695
21
-32.3071
0
LINE
8
BLACK
6
CONTINUOUS
10
88.7371
20
-21.6778
11
85.868
21
-35.1763
0
LINE
8
BLACK
6
CONTINUOUS
10
75.2387
20
-18.8087
11
88.7371
21
-21.6778
0
LINE
8
BLACK
6
CONTINUOUS
10
78.4234
20
-72.5451
11
81.2925
21
-59.0466
0
LINE
8
BLACK
6
CONTINUOUS
10
91.9218
20
-75.4142
11
78.4234
21
-72.5451
0
LINE
8
BLACK
6
CONTINUOUS
10
94.791
20
-61.9158
11
91.9218
21
-75.4142
0
LINE
8
BLACK
6
CONTINUOUS
10
81.2925
20
-59.0466
11
94.791
21
-61.9158
0
LINE
8
BLACK
6
CONTINUOUS
10
135.791
20
-61.0504
11
132.921
21
-47.552
0
LINE
8
BLACK
6
CONTINUOUS
10
149.289
20
-58.1812
11
135.791
21
-61.0504
0
LINE
8
BLACK
6
CONTINUOUS
10
146.42
20
-44.6828
11
149.289
21
-58.1812
0
LINE
8
BLACK
6
CONTINUOUS
10
132.921
20
-47.552
11
146.42
21
-44.6828
0
LINE
8
BLACK
6
CONTINUOUS
10
144.41
20
-78.6939
11
141.541
21
-65.1955
0
LINE
8
BLACK
6
CONTINUOUS
10
157.908
20
-75.8248
11
144.41
21
-78.6939
0
LINE
8
BLACK
6
CONTINUOUS
10
155.039
20
-62.3263
11
157.908
21
-75.8248
0
LINE
8
BLACK
6
CONTINUOUS
10
141.541
20
-65.1955
11
155.039
21
-62.3263
0
LINE
8
BLACK
6
CONTINUOUS
10
132.528
20
-22.7928
11
129.658
21
-9.29437
0
LINE
8
BLACK
6
CONTINUOUS
10
146.026
20
-19.9236
11
132.528
21
-22.7928
0
LINE
8
BLACK
6
CONTINUOUS
10
143.157
20
-6.42519
11
146.026
21
-19.9236
0
LINE
8
BLACK
6
CONTINUOUS
10
129.658
20
-9.29437
11
143.157
21
-6.42519
0
LINE
8
BLACK
6
CONTINUOUS
10
145.805
20
-39.4462
11
142.936
21
-25.9477
0
LINE
8
BLACK
6
CONTINUOUS
10
159.304
20
-36.577
11
145.805
21
-39.4462
0
LINE
8
BLACK
6
CONTINUOUS
10
156.434
20
-23.0785
11
159.304
21
-36.577
0
LINE
8
BLACK
6
CONTINUOUS
10
142.936
20
-25.9477
11
156.434
21
-23.0785
0
LINE
8
BLACK
6
CONTINUOUS
10
154.424
20
-57.0897
11
151.555
21
-43.5913
0
LINE
8
BLACK
6
CONTINUOUS
10
167.923
20
-54.2205
11
154.424
21
-57.0897
0
LINE
8
BLACK
6
CONTINUOUS
10
165.054
20
-40.7221
11
167.923
21
-54.2205
0
LINE
8
BLACK
6
CONTINUOUS
10
151.555
20
-43.5913
11
165.054
21
-40.7221
0
LINE
8
BLACK
6
CONTINUOUS
10
164.439
20
-35.4854
11
161.57
21
-21.987
0
LINE
8
BLACK
6
CONTINUOUS
10
177.937
20
-32.6163
11
164.439
21
-35.4854
0
LINE
8
BLACK
6
CONTINUOUS
10
175.068
20
-19.1178
11
177.937
21
-32.6163
0
LINE
8
BLACK
6
CONTINUOUS
10
161.57
20
-21.987
11
175.068
21
-19.1178
0
LINE
8
BLACK
6
CONTINUOUS
10
173.058
20
-53.129
11
170.189
21
-39.6305
0
LINE
8
BLACK
6
CONTINUOUS
10
186.557
20
-50.2598
11
173.058
21
-53.129
0
LINE
8
BLACK
6
CONTINUOUS
10
183.687
20
-36.7614
11
186.557
21
-50.2598
0
LINE
8
BLACK
6
CONTINUOUS
10
170.189
20
-39.6305
11
183.687
21
-36.7614
0
LINE
8
BLACK
6
CONTINUOUS
10
169.795
20
-14.8714
11
166.926
21
-1.37294
0
LINE
8
BLACK
6
CONTINUOUS
10
183.294
20
-12.0022
11
169.795
21
-14.8714
0
LINE
8
BLACK
6
CONTINUOUS
10
180.424
20
1.49625
11
183.294
21
-12.0022
0
LINE
8
BLACK
6
CONTINUOUS
10
166.926
20
-1.37294
11
180.424
21
1.49625
0
LINE
8
BLACK
6
CONTINUOUS
10
191.692
20
-49.1683
11
188.823
21
-35.6698
0
LINE
8
BLACK
6
CONTINUOUS
10
205.19
20
-46.2991
11
191.692
21
-49.1683
0
LINE
8
BLACK
6
CONTINUOUS
10
202.321
20
-32.8006
11
205.19
21
-46.2991
0
LINE
8
BLACK
6
CONTINUOUS
10
188.823
20
-35.6698
11
202.321
21
-32.8006
0
LINE
8
BLACK
6
CONTINUOUS
10
200.311
20
-66.8118
11
197.442
21
-53.3134
0
LINE
8
BLACK
6
CONTINUOUS
10
213.809
20
-63.9426
11
200.311
21
-66.8118
0
LINE
8
BLACK
6
CONTINUOUS
10
210.94
20
-50.4442
11
213.809
21
-63.9426
0
LINE
8
BLACK
6
CONTINUOUS
10
197.442
20
-53.3134
11
210.94
21
-50.4442
0
LINE
8
BLACK
6
CONTINUOUS
10
188.429
20
-10.9107
11
185.56
21
2.58778
0
LINE
8
BLACK
6
CONTINUOUS
10
201.927
20
-8.04147
11
188.429
21
-10.9107
0
LINE
8
BLACK
6
CONTINUOUS
10
199.058
20
5.45696
11
201.927
21
-8.04147
0
LINE
8
BLACK
6
CONTINUOUS
10
185.56
20
2.58778
11
199.058
21
5.45696
0
LINE
8
BLACK
6
CONTINUOUS
10
201.706
20
-27.564
11
198.837
21
-14.0656
0
LINE
8
BLACK
6
CONTINUOUS
10
215.205
20
-24.6948
11
201.706
21
-27.564
0
LINE
8
BLACK
6
CONTINUOUS
10
212.336
20
-11.1964
11
215.205
21
-24.6948
0
LINE
8
BLACK
6
CONTINUOUS
10
198.837
20
-14.0656
11
212.336
21
-11.1964
0
LINE
8
BLACK
6
CONTINUOUS
10
210.856
20
-45
11
210.856
21
-31.2
0
LINE
8
BLACK
6
CONTINUOUS
10
224.656
20
-45
11
210.856
21
-45
0
LINE
8
BLACK
6
CONTINUOUS
10
224.656
20
-31.2
11
224.656
21
-45
0
LINE
8
BLACK
6
CONTINUOUS
10
210.856
20
-31.2
11
224.656
21
-31.2
0
LINE
8
BLACK
6
CONTINUOUS
10
220.381
20
-64.05
11
220.381
21
-50.25
0
LINE
8
BLACK
6
CONTINUOUS
10
234.181
20
-64.05
11
220.381
21
-64.05
0
LINE
8
BLACK
6
CONTINUOUS
10
234.181
20
-50.25
11
234.181
21
-64.05
0
LINE
8
BLACK
6
CONTINUOUS
10
220.381
20
-50.25
11
234.181
21
-50.25
0
LINE
8
BLACK
6
CONTINUOUS
10
207.063
20
-6.94994
11
204.193
21
6.5485
0
LINE
8
BLACK
6
CONTINUOUS
10
220.561
20
-4.08076
11
207.063
21
-6.94994
0
LINE
8
BLACK
6
CONTINUOUS
10
217.692
20
9.41768
11
220.561
21
-4.08076
0
LINE
8
BLACK
6
CONTINUOUS
10
204.193
20
6.5485
11
217.692
21
9.41768
0
LINE
8
BLACK
6
CONTINUOUS
10
220.976
20
-25.95
11
220.976
21
-12.15
0
LINE
8
BLACK
6
CONTINUOUS
10
234.776
20
-25.95
11
220.976
21
-25.95
0
LINE
8
BLACK
6
CONTINUOUS
10
234.776
20
-12.15
11
234.776
21
-25.95
0
LINE
8
BLACK
6
CONTINUOUS
10
220.976
20
-12.15
11
234.776
21
-12.15
0
LINE
8
BLACK
6
CONTINUOUS
10
229.906
20
-45
11
229.906
21
-31.2
0
LINE
8
BLACK
6
CONTINUOUS
10
243.706
20
-45
11
229.906
21
-45
0
LINE
8
BLACK
6
CONTINUOUS
10
243.706
20
-31.2
11
243.706
21
-45
0
LINE
8
BLACK
6
CONTINUOUS
10
229.906
20
-31.2
11
243.706
21
-31.2
0
LINE
8
BLACK
6
CONTINUOUS
10
226.334
20
-6.9
11
226.334
21
6.9
0
LINE
8
BLACK
6
CONTINUOUS
10
240.134
20
-6.9
11
226.334
21
-6.9
0
LINE
8
BLACK
6
CONTINUOUS
10
240.134
20
6.9
11
240.134
21
-6.9
0
LINE
8
BLACK
6
CONTINUOUS
10
226.334
20
6.9
11
240.134
21
6.9
0
LINE
8
BLACK
6
CONTINUOUS
10
240.026
20
-25.95
11
240.026
21
-12.15
0
LINE
8
BLACK
6
CONTINUOUS
10
253.826
20
-25.95
11
240.026
21
-25.95
0
LINE
8
BLACK
6
CONTINUOUS
10
253.826
20
-12.15
11
253.826
21
-25.95
0
LINE
8
BLACK
6
CONTINUOUS
10
240.026
20
-12.15
11
253.826
21
-12.15
0
LINE
8
BLACK
6
CONTINUOUS
10
277.531
20
-68.8125
11
277.531
21
-55.0125
0
LINE
8
BLACK
6
CONTINUOUS
10
291.331
20
-68.8125
11
277.531
21
-68.8125
0
LINE
8
BLACK
6
CONTINUOUS
10
291.331
20
-55.0125
11
291.331
21
-68.8125
0
LINE
8
BLACK
6
CONTINUOUS
10
277.531
20
-55.0125
11
291.331
21
-55.0125
0
LINE
8
BLACK
6
CONTINUOUS
10
258.481
20
-87.8625
11
258.481
21
-74.0625
0
LINE
8
BLACK
6
CONTINUOUS
10
272.281
20
-87.8625
11
258.481
21
-87.8625
0
LINE
8
BLACK
6
CONTINUOUS
10
272.281
20
-74.0625
11
272.281
21
-87.8625
0
LINE
8
BLACK
6
CONTINUOUS
10
258.481
20
-74.0625
11
272.281
21
-74.0625
0
LINE
8
BLACK
6
CONTINUOUS
10
297.772
20
-40.2375
11
297.772
21
-26.4375
0
LINE
8
BLACK
6
CONTINUOUS
10
311.571
20
-40.2375
11
297.772
21
-40.2375
0
LINE
8
BLACK
6
CONTINUOUS
10
311.571
20
-26.4375
11
311.571
21
-40.2375
0
LINE
8
BLACK
6
CONTINUOUS
10
297.772
20
-26.4375
11
311.571
21
-26.4375
0
LINE
8
BLACK
6
CONTINUOUS
10
277.531
20
-87.8625
11
277.531
21
-74.0625
0
LINE
8
BLACK
6
CONTINUOUS
10
291.331
20
-87.8625
11
277.531
21
-87.8625
0
LINE
8
BLACK
6
CONTINUOUS
10
291.331
20
-74.0625
11
291.331
21
-87.8625
0
LINE
8
BLACK
6
CONTINUOUS
10
277.531
20
-74.0625
11
291.331
21
-74.0625
0
LINE
8
BLACK
6
CONTINUOUS
10
264.434
20
-6.9
11
264.434
21
6.9
0
LINE
8
BLACK
6
CONTINUOUS
10
278.234
20
-6.9
11
264.434
21
-6.9
0
LINE
8
BLACK
6
CONTINUOUS
10
278.234
20
6.9
11
278.234
21
-6.9
0
LINE
8
BLACK
6
CONTINUOUS
10
264.434
20
6.9
11
278.234
21
6.9
0
LINE
8
BLACK
6
CONTINUOUS
10
288.246
20
-2.1375
11
288.246
21
11.6625
0
LINE
8
BLACK
6
CONTINUOUS
10
302.046
20
-2.1375
11
288.246
21
-2.1375
0
LINE
8
BLACK
6
CONTINUOUS
10
302.046
20
11.6625
11
302.046
21
-2.1375
0
LINE
8
BLACK
6
CONTINUOUS
10
288.246
20
11.6625
11
302.046
21
11.6625
0
LINE
8
BLACK
6
CONTINUOUS
10
293.009
20
-21.1875
11
293.009
21
-7.3875
0
LINE
8
BLACK
6
CONTINUOUS
10
306.809
20
-21.1875
11
293.009
21
-21.1875
0
LINE
8
BLACK
6
CONTINUOUS
10
306.809
20
-7.3875
11
306.809
21
-21.1875
0
LINE
8
BLACK
6
CONTINUOUS
10
293.009
20
-7.3875
11
306.809
21
-7.3875
0
LINE
8
BLACK
6
CONTINUOUS
10
296.581
20
-87.8625
11
296.581
21
-74.0625
0
LINE
8
BLACK
6
CONTINUOUS
10
310.381
20
-87.8625
11
296.581
21
-87.8625
0
LINE
8
BLACK
6
CONTINUOUS
10
310.381
20
-74.0625
11
310.381
21
-87.8625
0
LINE
8
BLACK
6
CONTINUOUS
10
296.581
20
-74.0625
11
310.381
21
-74.0625
0
LINE
8
BLACK
6
CONTINUOUS
10
29.746
20
-3.7716
11
32.6151
21
9.72684
0
LINE
8
BLACK
6
CONTINUOUS
10
43.2444
20
-6.64078
11
29.746
21
-3.7716
0
LINE
8
BLACK
6
CONTINUOUS
10
46.1136
20
6.85766
11
43.2444
21
-6.64078
0
LINE
8
BLACK
6
CONTINUOUS
10
32.6151
20
9.72684
11
46.1136
21
6.85766
0
LINE
8
BLACK
6
CONTINUOUS
10
48.3797
20
-7.73231
11
51.2488
21
5.76612
0
LINE
8
BLACK
6
CONTINUOUS
10
61.8781
20
-10.6015
11
48.3797
21
-7.73231
0
LINE
8
BLACK
6
CONTINUOUS
10
64.7473
20
2.89694
11
61.8781
21
-10.6015
0
LINE
8
BLACK
6
CONTINUOUS
10
51.2488
20
5.76612
11
64.7473
21
2.89694
0
LINE
8
BLACK
6
CONTINUOUS
10
73.0672
20
-51.931
11
75.9364
21
-38.4326
0
LINE
8
BLACK
6
CONTINUOUS
10
86.5657
20
-54.8002
11
73.0672
21
-51.931
0
LINE
8
BLACK
6
CONTINUOUS
10
89.4348
20
-41.3017
11
86.5657
21
-54.8002
0
LINE
8
BLACK
6
CONTINUOUS
10
75.9364
20
-38.4326
11
89.4348
21
-41.3017
0
LINE
8
BLACK
6
CONTINUOUS
10
97.0571
20
-76.5058
11
99.9263
21
-63.0073
0
LINE
8
BLACK
6
CONTINUOUS
10
110.556
20
-79.375
11
97.0571
21
-76.5058
0
LINE
8
BLACK
6
CONTINUOUS
10
113.425
20
-65.8765
11
110.556
21
-79.375
0
LINE
8
BLACK
6
CONTINUOUS
10
99.9263
20
-63.0073
11
113.425
21
-65.8765
0
LINE
8
BLACK
6
CONTINUOUS
10
91.7009
20
-55.8917
11
94.5701
21
-42.3933
0
LINE
8
BLACK
6
CONTINUOUS
10
105.199
20
-58.7609
11
91.7009
21
-55.8917
0
LINE
8
BLACK
6
CONTINUOUS
10
108.069
20
-45.2625
11
105.199
21
-58.7609
0
LINE
8
BLACK
6
CONTINUOUS
10
94.5701
20
-42.3933
11
108.069
21
-45.2625
0
LINE
8
BLACK
6
CONTINUOUS
10
91.0032
20
-36.2678
11
93.8724
21
-22.7694
0
LINE
8
BLACK
6
CONTINUOUS
10
104.502
20
-39.137
11
91.0032
21
-36.2678
0
LINE
8
BLACK
6
CONTINUOUS
10
107.371
20
-25.6386
11
104.502
21
-39.137
0
LINE
8
BLACK
6
CONTINUOUS
10
93.8724
20
-22.7694
11
107.371
21
-25.6386
0
LINE
8
BLACK
6
CONTINUOUS
10
245.384
20
-6.9
11
245.384
21
6.9
0
LINE
8
BLACK
6
CONTINUOUS
10
259.184
20
-6.9
11
245.384
21
-6.9
0
LINE
8
BLACK
6
CONTINUOUS
10
259.184
20
6.9
11
259.184
21
-6.9
0
LINE
8
BLACK
6
CONTINUOUS
10
245.384
20
6.9
11
259.184
21
6.9
0
LINE
8
BLACK
6
CONTINUOUS
10
181.677
20
-70.7725
11
178.808
21
-57.2741
0
LINE
8
BLACK
6
CONTINUOUS
10
195.176
20
-67.9033
11
181.677
21
-70.7725
0
LINE
8
BLACK
6
CONTINUOUS
10
192.306
20
-54.4049
11
195.176
21
-67.9033
0
LINE
8
BLACK
6
CONTINUOUS
10
178.808
20
-57.2741
11
192.306
21
-54.4049
0
LINE
8
BLACK
6
CONTINUOUS
10
183.073
20
-31.5247
11
180.203
21
-18.0263
0
LINE
8
BLACK
6
CONTINUOUS
10
196.571
20
-28.6555
11
183.073
21
-31.5247
0
LINE
8
BLACK
6
CONTINUOUS
10
193.702
20
-15.1571
11
196.571
21
-28.6555
0
LINE
8
BLACK
6
CONTINUOUS
10
180.203
20
-18.0263
11
193.702
21
-15.1571
0
LINE
8
BLACK
6
CONTINUOUS
10
127.172
20
-43.4069
11
124.302
21
-29.9084
0
LINE
8
BLACK
6
CONTINUOUS
10
140.67
20
-40.5377
11
127.172
21
-43.4069
0
LINE
8
BLACK
6
CONTINUOUS
10
137.801
20
-27.0393
11
140.67
21
-40.5377
0
LINE
8
BLACK
6
CONTINUOUS
10
124.302
20
-29.9084
11
137.801
21
-27.0393
0
LINE
8
BLACK
6
CONTINUOUS
10
102.413
20
-97.1198
11
105.282
21
-83.6214
0
LINE
8
BLACK
6
CONTINUOUS
10
115.912
20
-99.989
11
102.413
21
-97.1198
0
LINE
8
BLACK
6
CONTINUOUS
10
118.781
20
-86.4906
11
115.912
21
-99.989
0
LINE
8
BLACK
6
CONTINUOUS
10
105.282
20
-83.6214
11
118.781
21
-86.4906
0
LINE
8
BLACK
6
CONTINUOUS
10
163.044
20
-74.7332
11
160.174
21
-61.2348
0
LINE
8
BLACK
6
CONTINUOUS
10
176.542
20
-71.864
11
163.044
21
-74.7332
0
LINE
8
BLACK
6
CONTINUOUS
10
173.673
20
-58.3656
11
176.542
21
-71.864
0
LINE
8
BLACK
6
CONTINUOUS
10
160.174
20
-61.2348
11
173.673
21
-58.3656
0
LINE
8
BLACK
6
CONTINUOUS
10
117.779
20
-22.4836
11
104.281
21
-19.6145
0
LINE
8
BLACK
6
CONTINUOUS
10
120.648
20
-8.98521
11
117.779
21
-22.4836
0
LINE
8
BLACK
6
CONTINUOUS
10
107.15
20
-6.11603
11
120.648
21
-8.98521
0
LINE
8
BLACK
6
CONTINUOUS
10
104.281
20
-19.6145
11
107.15
21
-6.11603
  0
ENDSEC
  0
EOF
