  0
SECTION
  2
BLOCKS
  0
ENDSEC
  0
SECTION
  2
ENTITIES
  0
LINE
  8
0
 10
328.639
 20
12.3447
 11
328.311
 21
15.4634
  0
LINE
  8
0
 10
328.311
 20
15.4634
 11
327.342
 21
18.4458
  0
LINE
  8
0
 10
327.342
 20
18.4458
 11
325.774
 21
21.1615
  0
LINE
  8
0
 10
325.774
 20
21.1615
 11
323.676
 21
23.4919
  0
LINE
  8
0
 10
323.676
 20
23.4919
 11
321.139
 21
25.3351
  0
LINE
  8
0
 10
321.139
 20
25.3351
 11
318.274
 21
26.6106
  0
LINE
  8
0
 10
318.274
 20
26.6106
 11
313.639
 21
27.3447
  0
LINE
  8
0
 10
313.639
 20
27.3447
 11
-21.6406
 21
27.3447
  0
LINE
  8
0
 10
-21.6406
 20
27.3447
 11
-24.7593
 21
27.0169
  0
LINE
  8
0
 10
-24.7593
 20
27.0169
 11
-27.7417
 21
26.0479
  0
LINE
  8
0
 10
-27.7417
 20
26.0479
 11
-30.4574
 21
24.48
  0
LINE
  8
0
 10
-30.4574
 20
24.48
 11
-32.7878
 21
22.3817
  0
LINE
  8
0
 10
-32.7878
 20
22.3817
 11
-34.631
 21
19.8447
  0
LINE
  8
0
 10
-34.631
 20
19.8447
 11
-35.9065
 21
16.98
  0
LINE
  8
0
 10
-35.9065
 20
16.98
 11
-36.6406
 21
12.3447
  0
LINE
  8
0
 10
-36.6406
 20
12.3447
 11
-36.6406
 21
-60
  0
LINE
  8
0
 10
-36.6406
 20
-60
 11
328.639
 21
-60
  0
LINE
  8
0
 10
328.639
 20
-60
 11
328.639
 21
12.3447
  0
LINE
  8
0
 10
-27.8399
 20
16.9538
 11
-28.1466
 21
17.1101
  0
LINE
  8
0
 10
-28.1466
 20
17.1101
 11
-28.3899
 21
17.3534
  0
LINE
  8
0
 10
-28.3899
 20
17.3534
 11
-28.5462
 21
17.6601
  0
LINE
  8
0
 10
-28.5462
 20
17.6601
 11
-28.6
 21
18
  0
LINE
  8
0
 10
-28.6
 20
18
 11
-28.5462
 21
18.3399
  0
LINE
  8
0
 10
-28.5462
 20
18.3399
 11
-28.3899
 21
18.6466
  0
LINE
  8
0
 10
-28.3899
 20
18.6466
 11
-28.1466
 21
18.8899
  0
LINE
  8
0
 10
-28.1466
 20
18.8899
 11
-27.8399
 21
19.0462
  0
LINE
  8
0
 10
-27.8399
 20
19.0462
 11
-27.5
 21
19.1
  0
LINE
  8
0
 10
-27.5
 20
19.1
 11
-27.1601
 21
19.0462
  0
LINE
  8
0
 10
-27.1601
 20
19.0462
 11
-26.8534
 21
18.8899
  0
LINE
  8
0
 10
-26.8534
 20
18.8899
 11
-26.6101
 21
18.6466
  0
LINE
  8
0
 10
-26.6101
 20
18.6466
 11
-26.4538
 21
18.3399
  0
LINE
  8
0
 10
-26.4538
 20
18.3399
 11
-26.4
 21
18
  0
LINE
  8
0
 10
-26.4
 20
18
 11
-26.4538
 21
17.6601
  0
LINE
  8
0
 10
-26.4538
 20
17.6601
 11
-26.6101
 21
17.3534
  0
LINE
  8
0
 10
-26.6101
 20
17.3534
 11
-26.8534
 21
17.1101
  0
LINE
  8
0
 10
-26.8534
 20
17.1101
 11
-27.1601
 21
16.9538
  0
LINE
  8
0
 10
-27.1601
 20
16.9538
 11
-27.5
 21
16.9
  0
LINE
  8
0
 10
-27.5
 20
16.9
 11
-27.8399
 21
16.9538
  0
LINE
  8
0
 10
319.66
 20
16.9538
 11
319.353
 21
17.1101
  0
LINE
  8
0
 10
319.353
 20
17.1101
 11
319.11
 21
17.3534
  0
LINE
  8
0
 10
319.11
 20
17.3534
 11
318.954
 21
17.6601
  0
LINE
  8
0
 10
318.954
 20
17.6601
 11
318.9
 21
18
  0
LINE
  8
0
 10
318.9
 20
18
 11
318.954
 21
18.3399
  0
LINE
  8
0
 10
318.954
 20
18.3399
 11
319.11
 21
18.6466
  0
LINE
  8
0
 10
319.11
 20
18.6466
 11
319.353
 21
18.8899
  0
LINE
  8
0
 10
319.353
 20
18.8899
 11
319.66
 21
19.0462
  0
LINE
  8
0
 10
319.66
 20
19.0462
 11
320
 21
19.1
  0
LINE
  8
0
 10
320
 20
19.1
 11
320.34
 21
19.0462
  0
LINE
  8
0
 10
320.34
 20
19.0462
 11
320.647
 21
18.8899
  0
LINE
  8
0
 10
320.647
 20
18.8899
 11
320.89
 21
18.6466
  0
LINE
  8
0
 10
320.89
 20
18.6466
 11
321.046
 21
18.3399
  0
LINE
  8
0
 10
321.046
 20
18.3399
 11
321.1
 21
18
  0
LINE
  8
0
 10
321.1
 20
18
 11
321.046
 21
17.6601
  0
LINE
  8
0
 10
321.046
 20
17.6601
 11
320.89
 21
17.3534
  0
LINE
  8
0
 10
320.89
 20
17.3534
 11
320.647
 21
17.1101
  0
LINE
  8
0
 10
320.647
 20
17.1101
 11
320.34
 21
16.9538
  0
LINE
  8
0
 10
320.34
 20
16.9538
 11
320
 21
16.9
  0
LINE
  8
0
 10
320
 20
16.9
 11
319.66
 21
16.9538
  0
LINE
  8
0
 10
199.66
 20
16.9538
 11
199.353
 21
17.1101
  0
LINE
  8
0
 10
199.353
 20
17.1101
 11
199.11
 21
17.3534
  0
LINE
  8
0
 10
199.11
 20
17.3534
 11
198.954
 21
17.6601
  0
LINE
  8
0
 10
198.954
 20
17.6601
 11
198.9
 21
18
  0
LINE
  8
0
 10
198.9
 20
18
 11
198.954
 21
18.3399
  0
LINE
  8
0
 10
198.954
 20
18.3399
 11
199.11
 21
18.6466
  0
LINE
  8
0
 10
199.11
 20
18.6466
 11
199.353
 21
18.8899
  0
LINE
  8
0
 10
199.353
 20
18.8899
 11
199.66
 21
19.0462
  0
LINE
  8
0
 10
199.66
 20
19.0462
 11
200
 21
19.1
  0
LINE
  8
0
 10
200
 20
19.1
 11
200.34
 21
19.0462
  0
LINE
  8
0
 10
200.34
 20
19.0462
 11
200.647
 21
18.8899
  0
LINE
  8
0
 10
200.647
 20
18.8899
 11
200.89
 21
18.6466
  0
LINE
  8
0
 10
200.89
 20
18.6466
 11
201.046
 21
18.3399
  0
LINE
  8
0
 10
201.046
 20
18.3399
 11
201.1
 21
18
  0
LINE
  8
0
 10
201.1
 20
18
 11
201.046
 21
17.6601
  0
LINE
  8
0
 10
201.046
 20
17.6601
 11
200.89
 21
17.3534
  0
LINE
  8
0
 10
200.89
 20
17.3534
 11
200.647
 21
17.1101
  0
LINE
  8
0
 10
200.647
 20
17.1101
 11
200.34
 21
16.9538
  0
LINE
  8
0
 10
200.34
 20
16.9538
 11
200
 21
16.9
  0
LINE
  8
0
 10
200
 20
16.9
 11
199.66
 21
16.9538
  0
LINE
  8
0
 10
47.6601
 20
16.9538
 11
47.3534
 21
17.1101
  0
LINE
  8
0
 10
47.3534
 20
17.1101
 11
47.1101
 21
17.3534
  0
LINE
  8
0
 10
47.1101
 20
17.3534
 11
46.9538
 21
17.6601
  0
LINE
  8
0
 10
46.9538
 20
17.6601
 11
46.9
 21
18
  0
LINE
  8
0
 10
46.9
 20
18
 11
46.9538
 21
18.3399
  0
LINE
  8
0
 10
46.9538
 20
18.3399
 11
47.1101
 21
18.6466
  0
LINE
  8
0
 10
47.1101
 20
18.6466
 11
47.3534
 21
18.8899
  0
LINE
  8
0
 10
47.3534
 20
18.8899
 11
47.6601
 21
19.0462
  0
LINE
  8
0
 10
47.6601
 20
19.0462
 11
48
 21
19.1
  0
LINE
  8
0
 10
48
 20
19.1
 11
48.3399
 21
19.0462
  0
LINE
  8
0
 10
48.3399
 20
19.0462
 11
48.6466
 21
18.8899
  0
LINE
  8
0
 10
48.6466
 20
18.8899
 11
48.8899
 21
18.6466
  0
LINE
  8
0
 10
48.8899
 20
18.6466
 11
49.0462
 21
18.3399
  0
LINE
  8
0
 10
49.0462
 20
18.3399
 11
49.1
 21
18
  0
LINE
  8
0
 10
49.1
 20
18
 11
49.0462
 21
17.6601
  0
LINE
  8
0
 10
49.0462
 20
17.6601
 11
48.8899
 21
17.3534
  0
LINE
  8
0
 10
48.8899
 20
17.3534
 11
48.6466
 21
17.1101
  0
LINE
  8
0
 10
48.6466
 20
17.1101
 11
48.3399
 21
16.9538
  0
LINE
  8
0
 10
48.3399
 20
16.9538
 11
48
 21
16.9
  0
LINE
  8
0
 10
48
 20
16.9
 11
47.6601
 21
16.9538
  0
LINE
  8
0
 10
-27.8399
 20
-24.0462
 11
-28.1466
 21
-23.8899
  0
LINE
  8
0
 10
-28.1466
 20
-23.8899
 11
-28.3899
 21
-23.6466
  0
LINE
  8
0
 10
-28.3899
 20
-23.6466
 11
-28.5462
 21
-23.3399
  0
LINE
  8
0
 10
-28.5462
 20
-23.3399
 11
-28.6
 21
-23
  0
LINE
  8
0
 10
-28.6
 20
-23
 11
-28.5462
 21
-22.6601
  0
LINE
  8
0
 10
-28.5462
 20
-22.6601
 11
-28.3899
 21
-22.3534
  0
LINE
  8
0
 10
-28.3899
 20
-22.3534
 11
-28.1466
 21
-22.1101
  0
LINE
  8
0
 10
-28.1466
 20
-22.1101
 11
-27.8399
 21
-21.9538
  0
LINE
  8
0
 10
-27.8399
 20
-21.9538
 11
-27.5
 21
-21.9
  0
LINE
  8
0
 10
-27.5
 20
-21.9
 11
-27.1601
 21
-21.9538
  0
LINE
  8
0
 10
-27.1601
 20
-21.9538
 11
-26.8534
 21
-22.1101
  0
LINE
  8
0
 10
-26.8534
 20
-22.1101
 11
-26.6101
 21
-22.3534
  0
LINE
  8
0
 10
-26.6101
 20
-22.3534
 11
-26.4538
 21
-22.6601
  0
LINE
  8
0
 10
-26.4538
 20
-22.6601
 11
-26.4
 21
-23
  0
LINE
  8
0
 10
-26.4
 20
-23
 11
-26.4538
 21
-23.3399
  0
LINE
  8
0
 10
-26.4538
 20
-23.3399
 11
-26.6101
 21
-23.6466
  0
LINE
  8
0
 10
-26.6101
 20
-23.6466
 11
-26.8534
 21
-23.8899
  0
LINE
  8
0
 10
-26.8534
 20
-23.8899
 11
-27.1601
 21
-24.0462
  0
LINE
  8
0
 10
-27.1601
 20
-24.0462
 11
-27.5
 21
-24.1
  0
LINE
  8
0
 10
-27.5
 20
-24.1
 11
-27.8399
 21
-24.0462
  0
LINE
  8
0
 10
319.66
 20
-24.0462
 11
319.353
 21
-23.8899
  0
LINE
  8
0
 10
319.353
 20
-23.8899
 11
319.11
 21
-23.6466
  0
LINE
  8
0
 10
319.11
 20
-23.6466
 11
318.954
 21
-23.3399
  0
LINE
  8
0
 10
318.954
 20
-23.3399
 11
318.9
 21
-23
  0
LINE
  8
0
 10
318.9
 20
-23
 11
318.954
 21
-22.6601
  0
LINE
  8
0
 10
318.954
 20
-22.6601
 11
319.11
 21
-22.3534
  0
LINE
  8
0
 10
319.11
 20
-22.3534
 11
319.353
 21
-22.1101
  0
LINE
  8
0
 10
319.353
 20
-22.1101
 11
319.66
 21
-21.9538
  0
LINE
  8
0
 10
319.66
 20
-21.9538
 11
320
 21
-21.9
  0
LINE
  8
0
 10
320
 20
-21.9
 11
320.34
 21
-21.9538
  0
LINE
  8
0
 10
320.34
 20
-21.9538
 11
320.647
 21
-22.1101
  0
LINE
  8
0
 10
320.647
 20
-22.1101
 11
320.89
 21
-22.3534
  0
LINE
  8
0
 10
320.89
 20
-22.3534
 11
321.046
 21
-22.6601
  0
LINE
  8
0
 10
321.046
 20
-22.6601
 11
321.1
 21
-23
  0
LINE
  8
0
 10
321.1
 20
-23
 11
321.046
 21
-23.3399
  0
LINE
  8
0
 10
321.046
 20
-23.3399
 11
320.89
 21
-23.6466
  0
LINE
  8
0
 10
320.89
 20
-23.6466
 11
320.647
 21
-23.8899
  0
LINE
  8
0
 10
320.647
 20
-23.8899
 11
320.34
 21
-24.0462
  0
LINE
  8
0
 10
320.34
 20
-24.0462
 11
320
 21
-24.1
  0
LINE
  8
0
 10
320
 20
-24.1
 11
319.66
 21
-24.0462
  0
LINE
  8
0
 10
-27.8399
 20
-54.0462
 11
-28.1466
 21
-53.8899
  0
LINE
  8
0
 10
-28.1466
 20
-53.8899
 11
-28.3899
 21
-53.6466
  0
LINE
  8
0
 10
-28.3899
 20
-53.6466
 11
-28.5462
 21
-53.3399
  0
LINE
  8
0
 10
-28.5462
 20
-53.3399
 11
-28.6
 21
-53
  0
LINE
  8
0
 10
-28.6
 20
-53
 11
-28.5462
 21
-52.6601
  0
LINE
  8
0
 10
-28.5462
 20
-52.6601
 11
-28.3899
 21
-52.3534
  0
LINE
  8
0
 10
-28.3899
 20
-52.3534
 11
-28.1466
 21
-52.1101
  0
LINE
  8
0
 10
-28.1466
 20
-52.1101
 11
-27.8399
 21
-51.9538
  0
LINE
  8
0
 10
-27.8399
 20
-51.9538
 11
-27.5
 21
-51.9
  0
LINE
  8
0
 10
-27.5
 20
-51.9
 11
-27.1601
 21
-51.9538
  0
LINE
  8
0
 10
-27.1601
 20
-51.9538
 11
-26.8534
 21
-52.1101
  0
LINE
  8
0
 10
-26.8534
 20
-52.1101
 11
-26.6101
 21
-52.3534
  0
LINE
  8
0
 10
-26.6101
 20
-52.3534
 11
-26.4538
 21
-52.6601
  0
LINE
  8
0
 10
-26.4538
 20
-52.6601
 11
-26.4
 21
-53
  0
LINE
  8
0
 10
-26.4
 20
-53
 11
-26.4538
 21
-53.3399
  0
LINE
  8
0
 10
-26.4538
 20
-53.3399
 11
-26.6101
 21
-53.6466
  0
LINE
  8
0
 10
-26.6101
 20
-53.6466
 11
-26.8534
 21
-53.8899
  0
LINE
  8
0
 10
-26.8534
 20
-53.8899
 11
-27.1601
 21
-54.0462
  0
LINE
  8
0
 10
-27.1601
 20
-54.0462
 11
-27.5
 21
-54.1
  0
LINE
  8
0
 10
-27.5
 20
-54.1
 11
-27.8399
 21
-54.0462
  0
LINE
  8
0
 10
319.66
 20
-54.0462
 11
319.353
 21
-53.8899
  0
LINE
  8
0
 10
319.353
 20
-53.8899
 11
319.11
 21
-53.6466
  0
LINE
  8
0
 10
319.11
 20
-53.6466
 11
318.954
 21
-53.3399
  0
LINE
  8
0
 10
318.954
 20
-53.3399
 11
318.9
 21
-53
  0
LINE
  8
0
 10
318.9
 20
-53
 11
318.954
 21
-52.6601
  0
LINE
  8
0
 10
318.954
 20
-52.6601
 11
319.11
 21
-52.3534
  0
LINE
  8
0
 10
319.11
 20
-52.3534
 11
319.353
 21
-52.1101
  0
LINE
  8
0
 10
319.353
 20
-52.1101
 11
319.66
 21
-51.9538
  0
LINE
  8
0
 10
319.66
 20
-51.9538
 11
320
 21
-51.9
  0
LINE
  8
0
 10
320
 20
-51.9
 11
320.34
 21
-51.9538
  0
LINE
  8
0
 10
320.34
 20
-51.9538
 11
320.647
 21
-52.1101
  0
LINE
  8
0
 10
320.647
 20
-52.1101
 11
320.89
 21
-52.3534
  0
LINE
  8
0
 10
320.89
 20
-52.3534
 11
321.046
 21
-52.6601
  0
LINE
  8
0
 10
321.046
 20
-52.6601
 11
321.1
 21
-53
  0
LINE
  8
0
 10
321.1
 20
-53
 11
321.046
 21
-53.3399
  0
LINE
  8
0
 10
321.046
 20
-53.3399
 11
320.89
 21
-53.6466
  0
LINE
  8
0
 10
320.89
 20
-53.6466
 11
320.647
 21
-53.8899
  0
LINE
  8
0
 10
320.647
 20
-53.8899
 11
320.34
 21
-54.0462
  0
LINE
  8
0
 10
320.34
 20
-54.0462
 11
320
 21
-54.1
  0
LINE
  8
0
 10
320
 20
-54.1
 11
319.66
 21
-54.0462
  0
ENDSEC
  0
SECTION
  2
OBJECTS
  0
DICTIONARY
  0
ENDSEC
  0
EOF
