  0
SECTION
  2
BLOCKS
  0
ENDSEC
  0
SECTION
  2
ENTITIES
  0
LINE
  8
0
 10
128.673
 20
-119.194
 11
195.771
 21
-105.525
  0
LINE
  8
0
 10
195.771
 20
-105.525
 11
313.639
 21
-105.525
  0
LINE
  8
0
 10
313.639
 20
-105.525
 11
316.757
 21
-105.198
  0
LINE
  8
0
 10
316.757
 20
-105.198
 11
319.74
 21
-104.229
  0
LINE
  8
0
 10
319.74
 20
-104.229
 11
322.455
 21
-102.661
  0
LINE
  8
0
 10
322.455
 20
-102.661
 11
324.786
 21
-100.562
  0
LINE
  8
0
 10
324.786
 20
-100.562
 11
326.629
 21
-98.0254
  0
LINE
  8
0
 10
326.629
 20
-98.0254
 11
327.905
 21
-95.1606
  0
LINE
  8
0
 10
327.905
 20
-95.1606
 11
328.639
 21
-90.5254
  0
LINE
  8
0
 10
328.639
 20
-90.5254
 11
328.639
 21
12.3447
  0
LINE
  8
0
 10
328.639
 20
12.3447
 11
328.311
 21
15.4634
  0
LINE
  8
0
 10
328.311
 20
15.4634
 11
327.342
 21
18.4458
  0
LINE
  8
0
 10
327.342
 20
18.4458
 11
325.774
 21
21.1615
  0
LINE
  8
0
 10
325.774
 20
21.1615
 11
323.676
 21
23.4919
  0
LINE
  8
0
 10
323.676
 20
23.4919
 11
321.139
 21
25.3351
  0
LINE
  8
0
 10
321.139
 20
25.3351
 11
318.274
 21
26.6106
  0
LINE
  8
0
 10
318.274
 20
26.6106
 11
313.639
 21
27.3447
  0
LINE
  8
0
 10
313.639
 20
27.3447
 11
-21.6406
 21
27.3447
  0
LINE
  8
0
 10
-21.6406
 20
27.3447
 11
-24.7593
 21
27.0169
  0
LINE
  8
0
 10
-24.7593
 20
27.0169
 11
-27.7417
 21
26.0479
  0
LINE
  8
0
 10
-27.7417
 20
26.0479
 11
-30.4574
 21
24.48
  0
LINE
  8
0
 10
-30.4574
 20
24.48
 11
-32.7878
 21
22.3817
  0
LINE
  8
0
 10
-32.7878
 20
22.3817
 11
-34.631
 21
19.8447
  0
LINE
  8
0
 10
-34.631
 20
19.8447
 11
-35.9065
 21
16.98
  0
LINE
  8
0
 10
-35.9065
 20
16.98
 11
-36.6406
 21
12.3447
  0
LINE
  8
0
 10
-36.6406
 20
12.3447
 11
-36.6406
 21
-90.5254
  0
LINE
  8
0
 10
-36.6406
 20
-90.5254
 11
-36.3128
 21
-93.6441
  0
LINE
  8
0
 10
-36.3128
 20
-93.6441
 11
-35.3438
 21
-96.6264
  0
LINE
  8
0
 10
-35.3438
 20
-96.6264
 11
-33.7759
 21
-99.3422
  0
LINE
  8
0
 10
-33.7759
 20
-99.3422
 11
-31.6776
 21
-101.673
  0
LINE
  8
0
 10
-31.6776
 20
-101.673
 11
-29.1406
 21
-103.516
  0
LINE
  8
0
 10
-29.1406
 20
-103.516
 11
-26.2759
 21
-104.791
  0
LINE
  8
0
 10
-26.2759
 20
-104.791
 11
-21.6406
 21
-105.525
  0
LINE
  8
0
 10
-21.6406
 20
-105.525
 11
58.7865
 21
-105.525
  0
LINE
  8
0
 10
58.7865
 20
-105.525
 11
122.541
 21
-119.164
  0
LINE
  8
0
 10
122.541
 20
-119.164
 11
125.659
 21
-119.496
  0
LINE
  8
0
 10
125.659
 20
-119.496
 11
128.673
 21
-119.194
  0
LINE
  8
0
 10
-27.8399
 20
16.9538
 11
-28.1466
 21
17.1101
  0
LINE
  8
0
 10
-28.1466
 20
17.1101
 11
-28.3899
 21
17.3534
  0
LINE
  8
0
 10
-28.3899
 20
17.3534
 11
-28.5462
 21
17.6601
  0
LINE
  8
0
 10
-28.5462
 20
17.6601
 11
-28.6
 21
18
  0
LINE
  8
0
 10
-28.6
 20
18
 11
-28.5462
 21
18.3399
  0
LINE
  8
0
 10
-28.5462
 20
18.3399
 11
-28.3899
 21
18.6466
  0
LINE
  8
0
 10
-28.3899
 20
18.6466
 11
-28.1466
 21
18.8899
  0
LINE
  8
0
 10
-28.1466
 20
18.8899
 11
-27.8399
 21
19.0462
  0
LINE
  8
0
 10
-27.8399
 20
19.0462
 11
-27.5
 21
19.1
  0
LINE
  8
0
 10
-27.5
 20
19.1
 11
-27.1601
 21
19.0462
  0
LINE
  8
0
 10
-27.1601
 20
19.0462
 11
-26.8534
 21
18.8899
  0
LINE
  8
0
 10
-26.8534
 20
18.8899
 11
-26.6101
 21
18.6466
  0
LINE
  8
0
 10
-26.6101
 20
18.6466
 11
-26.4538
 21
18.3399
  0
LINE
  8
0
 10
-26.4538
 20
18.3399
 11
-26.4
 21
18
  0
LINE
  8
0
 10
-26.4
 20
18
 11
-26.4538
 21
17.6601
  0
LINE
  8
0
 10
-26.4538
 20
17.6601
 11
-26.6101
 21
17.3534
  0
LINE
  8
0
 10
-26.6101
 20
17.3534
 11
-26.8534
 21
17.1101
  0
LINE
  8
0
 10
-26.8534
 20
17.1101
 11
-27.1601
 21
16.9538
  0
LINE
  8
0
 10
-27.1601
 20
16.9538
 11
-27.5
 21
16.9
  0
LINE
  8
0
 10
-27.5
 20
16.9
 11
-27.8399
 21
16.9538
  0
LINE
  8
0
 10
319.66
 20
16.9538
 11
319.353
 21
17.1101
  0
LINE
  8
0
 10
319.353
 20
17.1101
 11
319.11
 21
17.3534
  0
LINE
  8
0
 10
319.11
 20
17.3534
 11
318.954
 21
17.6601
  0
LINE
  8
0
 10
318.954
 20
17.6601
 11
318.9
 21
18
  0
LINE
  8
0
 10
318.9
 20
18
 11
318.954
 21
18.3399
  0
LINE
  8
0
 10
318.954
 20
18.3399
 11
319.11
 21
18.6466
  0
LINE
  8
0
 10
319.11
 20
18.6466
 11
319.353
 21
18.8899
  0
LINE
  8
0
 10
319.353
 20
18.8899
 11
319.66
 21
19.0462
  0
LINE
  8
0
 10
319.66
 20
19.0462
 11
320
 21
19.1
  0
LINE
  8
0
 10
320
 20
19.1
 11
320.34
 21
19.0462
  0
LINE
  8
0
 10
320.34
 20
19.0462
 11
320.647
 21
18.8899
  0
LINE
  8
0
 10
320.647
 20
18.8899
 11
320.89
 21
18.6466
  0
LINE
  8
0
 10
320.89
 20
18.6466
 11
321.046
 21
18.3399
  0
LINE
  8
0
 10
321.046
 20
18.3399
 11
321.1
 21
18
  0
LINE
  8
0
 10
321.1
 20
18
 11
321.046
 21
17.6601
  0
LINE
  8
0
 10
321.046
 20
17.6601
 11
320.89
 21
17.3534
  0
LINE
  8
0
 10
320.89
 20
17.3534
 11
320.647
 21
17.1101
  0
LINE
  8
0
 10
320.647
 20
17.1101
 11
320.34
 21
16.9538
  0
LINE
  8
0
 10
320.34
 20
16.9538
 11
320
 21
16.9
  0
LINE
  8
0
 10
320
 20
16.9
 11
319.66
 21
16.9538
  0
LINE
  8
0
 10
199.66
 20
16.9538
 11
199.353
 21
17.1101
  0
LINE
  8
0
 10
199.353
 20
17.1101
 11
199.11
 21
17.3534
  0
LINE
  8
0
 10
199.11
 20
17.3534
 11
198.954
 21
17.6601
  0
LINE
  8
0
 10
198.954
 20
17.6601
 11
198.9
 21
18
  0
LINE
  8
0
 10
198.9
 20
18
 11
198.954
 21
18.3399
  0
LINE
  8
0
 10
198.954
 20
18.3399
 11
199.11
 21
18.6466
  0
LINE
  8
0
 10
199.11
 20
18.6466
 11
199.353
 21
18.8899
  0
LINE
  8
0
 10
199.353
 20
18.8899
 11
199.66
 21
19.0462
  0
LINE
  8
0
 10
199.66
 20
19.0462
 11
200
 21
19.1
  0
LINE
  8
0
 10
200
 20
19.1
 11
200.34
 21
19.0462
  0
LINE
  8
0
 10
200.34
 20
19.0462
 11
200.647
 21
18.8899
  0
LINE
  8
0
 10
200.647
 20
18.8899
 11
200.89
 21
18.6466
  0
LINE
  8
0
 10
200.89
 20
18.6466
 11
201.046
 21
18.3399
  0
LINE
  8
0
 10
201.046
 20
18.3399
 11
201.1
 21
18
  0
LINE
  8
0
 10
201.1
 20
18
 11
201.046
 21
17.6601
  0
LINE
  8
0
 10
201.046
 20
17.6601
 11
200.89
 21
17.3534
  0
LINE
  8
0
 10
200.89
 20
17.3534
 11
200.647
 21
17.1101
  0
LINE
  8
0
 10
200.647
 20
17.1101
 11
200.34
 21
16.9538
  0
LINE
  8
0
 10
200.34
 20
16.9538
 11
200
 21
16.9
  0
LINE
  8
0
 10
200
 20
16.9
 11
199.66
 21
16.9538
  0
LINE
  8
0
 10
47.6601
 20
16.9538
 11
47.3534
 21
17.1101
  0
LINE
  8
0
 10
47.3534
 20
17.1101
 11
47.1101
 21
17.3534
  0
LINE
  8
0
 10
47.1101
 20
17.3534
 11
46.9538
 21
17.6601
  0
LINE
  8
0
 10
46.9538
 20
17.6601
 11
46.9
 21
18
  0
LINE
  8
0
 10
46.9
 20
18
 11
46.9538
 21
18.3399
  0
LINE
  8
0
 10
46.9538
 20
18.3399
 11
47.1101
 21
18.6466
  0
LINE
  8
0
 10
47.1101
 20
18.6466
 11
47.3534
 21
18.8899
  0
LINE
  8
0
 10
47.3534
 20
18.8899
 11
47.6601
 21
19.0462
  0
LINE
  8
0
 10
47.6601
 20
19.0462
 11
48
 21
19.1
  0
LINE
  8
0
 10
48
 20
19.1
 11
48.3399
 21
19.0462
  0
LINE
  8
0
 10
48.3399
 20
19.0462
 11
48.6466
 21
18.8899
  0
LINE
  8
0
 10
48.6466
 20
18.8899
 11
48.8899
 21
18.6466
  0
LINE
  8
0
 10
48.8899
 20
18.6466
 11
49.0462
 21
18.3399
  0
LINE
  8
0
 10
49.0462
 20
18.3399
 11
49.1
 21
18
  0
LINE
  8
0
 10
49.1
 20
18
 11
49.0462
 21
17.6601
  0
LINE
  8
0
 10
49.0462
 20
17.6601
 11
48.8899
 21
17.3534
  0
LINE
  8
0
 10
48.8899
 20
17.3534
 11
48.6466
 21
17.1101
  0
LINE
  8
0
 10
48.6466
 20
17.1101
 11
48.3399
 21
16.9538
  0
LINE
  8
0
 10
48.3399
 20
16.9538
 11
48
 21
16.9
  0
LINE
  8
0
 10
48
 20
16.9
 11
47.6601
 21
16.9538
  0
LINE
  8
0
 10
288.197
 20
-2.1875
 11
288.197
 21
11.7129
  0
LINE
  8
0
 10
288.197
 20
11.7129
 11
302.096
 21
11.7129
  0
LINE
  8
0
 10
302.096
 20
11.7129
 11
302.096
 21
-2.1875
  0
LINE
  8
0
 10
302.096
 20
-2.1875
 11
288.197
 21
-2.1875
  0
LINE
  8
0
 10
31.6865
 20
-3.81055
 11
34.5762
 21
9.78613
  0
LINE
  8
0
 10
34.5762
 20
9.78613
 11
48.1729
 21
6.89648
  0
LINE
  8
0
 10
48.1729
 20
6.89648
 11
45.2832
 21
-6.7002
  0
LINE
  8
0
 10
45.2832
 20
-6.7002
 11
31.6865
 21
-3.81055
  0
LINE
  8
0
 10
204.134
 20
6.58691
 11
217.73
 21
9.47656
  0
LINE
  8
0
 10
217.73
 20
9.47656
 11
220.62
 21
-4.11914
  0
LINE
  8
0
 10
220.62
 20
-4.11914
 11
207.024
 21
-7.00879
  0
LINE
  8
0
 10
207.024
 20
-7.00879
 11
204.134
 21
6.58691
  0
LINE
  8
0
 10
264.384
 20
-6.9502
 11
264.384
 21
6.9502
  0
LINE
  8
0
 10
264.384
 20
6.9502
 11
278.284
 21
6.9502
  0
LINE
  8
0
 10
278.284
 20
6.9502
 11
278.284
 21
-6.9502
  0
LINE
  8
0
 10
278.284
 20
-6.9502
 11
264.384
 21
-6.9502
  0
LINE
  8
0
 10
245.334
 20
-6.9502
 11
245.334
 21
6.9502
  0
LINE
  8
0
 10
245.334
 20
6.9502
 11
259.234
 21
6.9502
  0
LINE
  8
0
 10
259.234
 20
6.9502
 11
259.234
 21
-6.9502
  0
LINE
  8
0
 10
259.234
 20
-6.9502
 11
245.334
 21
-6.9502
  0
LINE
  8
0
 10
226.284
 20
-6.9502
 11
226.284
 21
6.9502
  0
LINE
  8
0
 10
226.284
 20
6.9502
 11
240.184
 21
6.9502
  0
LINE
  8
0
 10
240.184
 20
6.9502
 11
240.184
 21
-6.9502
  0
LINE
  8
0
 10
240.184
 20
-6.9502
 11
226.284
 21
-6.9502
  0
LINE
  8
0
 10
12.0996
 20
-6.9502
 11
12.0996
 21
6.9502
  0
LINE
  8
0
 10
12.0996
 20
6.9502
 11
26
 21
6.9502
  0
LINE
  8
0
 10
26
 20
6.9502
 11
26
 21
-6.9502
  0
LINE
  8
0
 10
26
 20
-6.9502
 11
12.0996
 21
-6.9502
  0
LINE
  8
0
 10
-6.9502
 20
-6.9502
 11
-6.9502
 21
6.9502
  0
LINE
  8
0
 10
-6.9502
 20
6.9502
 11
6.9502
 21
6.9502
  0
LINE
  8
0
 10
6.9502
 20
6.9502
 11
6.9502
 21
-6.9502
  0
LINE
  8
0
 10
6.9502
 20
-6.9502
 11
-6.9502
 21
-6.9502
  0
LINE
  8
0
 10
50.3203
 20
-7.77051
 11
53.21
 21
5.8252
  0
LINE
  8
0
 10
53.21
 20
5.8252
 11
66.8066
 21
2.93555
  0
LINE
  8
0
 10
66.8066
 20
2.93555
 11
63.917
 21
-10.6611
  0
LINE
  8
0
 10
63.917
 20
-10.6611
 11
50.3203
 21
-7.77051
  0
LINE
  8
0
 10
185.5
 20
2.62598
 11
199.097
 21
5.5166
  0
LINE
  8
0
 10
199.097
 20
5.5166
 11
201.987
 21
-8.08008
  0
LINE
  8
0
 10
201.987
 20
-8.08008
 11
188.39
 21
-10.9697
  0
LINE
  8
0
 10
188.39
 20
-10.9697
 11
185.5
 21
2.62598
  0
LINE
  8
0
 10
68.9541
 20
-11.7314
 11
71.8438
 21
1.86426
  0
LINE
  8
0
 10
71.8438
 20
1.86426
 11
85.4404
 21
-1.02539
  0
LINE
  8
0
 10
85.4404
 20
-1.02539
 11
82.5508
 21
-14.6211
  0
LINE
  8
0
 10
82.5508
 20
-14.6211
 11
68.9541
 21
-11.7314
  0
LINE
  8
0
 10
166.867
 20
-1.33398
 11
180.463
 21
1.55566
  0
LINE
  8
0
 10
180.463
 20
1.55566
 11
183.353
 21
-12.041
  0
LINE
  8
0
 10
183.353
 20
-12.041
 11
169.757
 21
-14.9307
  0
LINE
  8
0
 10
169.757
 20
-14.9307
 11
166.867
 21
-1.33398
  0
LINE
  8
0
 10
87.5879
 20
-15.6924
 11
90.4775
 21
-2.0957
  0
LINE
  8
0
 10
90.4775
 20
-2.0957
 11
104.074
 21
-4.98633
  0
LINE
  8
0
 10
104.074
 20
-4.98633
 11
101.184
 21
-18.582
  0
LINE
  8
0
 10
101.184
 20
-18.582
 11
87.5879
 21
-15.6924
  0
LINE
  8
0
 10
148.233
 20
-5.29492
 11
161.829
 21
-2.40527
  0
LINE
  8
0
 10
161.829
 20
-2.40527
 11
164.719
 21
-16.001
  0
LINE
  8
0
 10
164.719
 20
-16.001
 11
151.123
 21
-18.8916
  0
LINE
  8
0
 10
151.123
 20
-18.8916
 11
148.233
 21
-5.29492
  0
LINE
  8
0
 10
106.221
 20
-19.6533
 11
109.111
 21
-6.05664
  0
LINE
  8
0
 10
109.111
 20
-6.05664
 11
122.708
 21
-8.94629
  0
LINE
  8
0
 10
122.708
 20
-8.94629
 11
119.818
 21
-22.543
  0
LINE
  8
0
 10
119.818
 20
-22.543
 11
106.221
 21
-19.6533
  0
LINE
  8
0
 10
129.599
 20
-9.25586
 11
143.195
 21
-6.36621
  0
LINE
  8
0
 10
143.195
 20
-6.36621
 11
146.085
 21
-19.9619
  0
LINE
  8
0
 10
146.085
 20
-19.9619
 11
132.489
 21
-22.8525
  0
LINE
  8
0
 10
132.489
 20
-22.8525
 11
129.599
 21
-9.25586
  0
LINE
  8
0
 10
292.959
 20
-21.2373
 11
292.959
 21
-7.33789
  0
LINE
  8
0
 10
292.959
 20
-7.33789
 11
306.859
 21
-7.33789
  0
LINE
  8
0
 10
306.859
 20
-7.33789
 11
306.859
 21
-21.2373
  0
LINE
  8
0
 10
306.859
 20
-21.2373
 11
292.959
 21
-21.2373
  0
LINE
  8
0
 10
37.043
 20
-24.4238
 11
39.9326
 21
-10.8281
  0
LINE
  8
0
 10
39.9326
 20
-10.8281
 11
53.5293
 21
-13.7178
  0
LINE
  8
0
 10
53.5293
 20
-13.7178
 11
50.6387
 21
-27.3145
  0
LINE
  8
0
 10
50.6387
 20
-27.3145
 11
37.043
 21
-24.4238
  0
LINE
  8
0
 10
198.778
 20
-14.0273
 11
212.374
 21
-11.1367
  0
LINE
  8
0
 10
212.374
 20
-11.1367
 11
215.264
 21
-24.7334
  0
LINE
  8
0
 10
215.264
 20
-24.7334
 11
201.668
 21
-27.623
  0
LINE
  8
0
 10
201.668
 20
-27.623
 11
198.778
 21
-14.0273
  0
LINE
  8
0
 10
239.976
 20
-26
 11
239.976
 21
-12.0996
  0
LINE
  8
0
 10
239.976
 20
-12.0996
 11
253.876
 21
-12.0996
  0
LINE
  8
0
 10
253.876
 20
-12.0996
 11
253.876
 21
-26
  0
LINE
  8
0
 10
253.876
 20
-26
 11
239.976
 21
-26
  0
LINE
  8
0
 10
220.926
 20
-26
 11
220.926
 21
-12.0996
  0
LINE
  8
0
 10
220.926
 20
-12.0996
 11
234.826
 21
-12.0996
  0
LINE
  8
0
 10
234.826
 20
-12.0996
 11
234.826
 21
-26
  0
LINE
  8
0
 10
234.826
 20
-26
 11
220.926
 21
-26
  0
LINE
  8
0
 10
-6.35449
 20
-26
 11
-6.35449
 21
-12.0996
  0
LINE
  8
0
 10
-6.35449
 20
-12.0996
 11
7.54492
 21
-12.0996
  0
LINE
  8
0
 10
7.54492
 20
-12.0996
 11
7.54492
 21
-26
  0
LINE
  8
0
 10
7.54492
 20
-26
 11
-6.35449
 21
-26
  0
LINE
  8
0
 10
17.458
 20
-26
 11
17.458
 21
-12.0996
  0
LINE
  8
0
 10
17.458
 20
-12.0996
 11
31.3574
 21
-12.0996
  0
LINE
  8
0
 10
31.3574
 20
-12.0996
 11
31.3574
 21
-26
  0
LINE
  8
0
 10
31.3574
 20
-26
 11
17.458
 21
-26
  0
LINE
  8
0
 10
263.789
 20
-26
 11
263.789
 21
-12.0996
  0
LINE
  8
0
 10
263.789
 20
-12.0996
 11
277.689
 21
-12.0996
  0
LINE
  8
0
 10
277.689
 20
-12.0996
 11
277.689
 21
-26
  0
LINE
  8
0
 10
277.689
 20
-26
 11
263.789
 21
-26
  0
LINE
  8
0
 10
55.6768
 20
-28.3848
 11
58.5664
 21
-14.7891
  0
LINE
  8
0
 10
58.5664
 20
-14.7891
 11
72.1631
 21
-17.6787
  0
LINE
  8
0
 10
72.1631
 20
-17.6787
 11
69.2725
 21
-31.2744
  0
LINE
  8
0
 10
69.2725
 20
-31.2744
 11
55.6768
 21
-28.3848
  0
LINE
  8
0
 10
180.144
 20
-17.9883
 11
193.74
 21
-15.0977
  0
LINE
  8
0
 10
193.74
 20
-15.0977
 11
196.63
 21
-28.6943
  0
LINE
  8
0
 10
196.63
 20
-28.6943
 11
183.034
 21
-31.584
  0
LINE
  8
0
 10
183.034
 20
-31.584
 11
180.144
 21
-17.9883
  0
LINE
  8
0
 10
74.3105
 20
-32.3457
 11
77.2002
 21
-18.749
  0
LINE
  8
0
 10
77.2002
 20
-18.749
 11
90.7969
 21
-21.6396
  0
LINE
  8
0
 10
90.7969
 20
-21.6396
 11
87.9062
 21
-35.2354
  0
LINE
  8
0
 10
87.9062
 20
-35.2354
 11
74.3105
 21
-32.3457
  0
LINE
  8
0
 10
161.51
 20
-21.9482
 11
175.107
 21
-19.0586
  0
LINE
  8
0
 10
175.107
 20
-19.0586
 11
177.997
 21
-32.6553
  0
LINE
  8
0
 10
177.997
 20
-32.6553
 11
164.4
 21
-35.5449
  0
LINE
  8
0
 10
164.4
 20
-35.5449
 11
161.51
 21
-21.9482
  0
LINE
  8
0
 10
-27.8399
 20
-24.0462
 11
-28.1466
 21
-23.8899
  0
LINE
  8
0
 10
-28.1466
 20
-23.8899
 11
-28.3899
 21
-23.6466
  0
LINE
  8
0
 10
-28.3899
 20
-23.6466
 11
-28.5462
 21
-23.3399
  0
LINE
  8
0
 10
-28.5462
 20
-23.3399
 11
-28.6
 21
-23
  0
LINE
  8
0
 10
-28.6
 20
-23
 11
-28.5462
 21
-22.6601
  0
LINE
  8
0
 10
-28.5462
 20
-22.6601
 11
-28.3899
 21
-22.3534
  0
LINE
  8
0
 10
-28.3899
 20
-22.3534
 11
-28.1466
 21
-22.1101
  0
LINE
  8
0
 10
-28.1466
 20
-22.1101
 11
-27.8399
 21
-21.9538
  0
LINE
  8
0
 10
-27.8399
 20
-21.9538
 11
-27.5
 21
-21.9
  0
LINE
  8
0
 10
-27.5
 20
-21.9
 11
-27.1601
 21
-21.9538
  0
LINE
  8
0
 10
-27.1601
 20
-21.9538
 11
-26.8534
 21
-22.1101
  0
LINE
  8
0
 10
-26.8534
 20
-22.1101
 11
-26.6101
 21
-22.3534
  0
LINE
  8
0
 10
-26.6101
 20
-22.3534
 11
-26.4538
 21
-22.6601
  0
LINE
  8
0
 10
-26.4538
 20
-22.6601
 11
-26.4
 21
-23
  0
LINE
  8
0
 10
-26.4
 20
-23
 11
-26.4538
 21
-23.3399
  0
LINE
  8
0
 10
-26.4538
 20
-23.3399
 11
-26.6101
 21
-23.6466
  0
LINE
  8
0
 10
-26.6101
 20
-23.6466
 11
-26.8534
 21
-23.8899
  0
LINE
  8
0
 10
-26.8534
 20
-23.8899
 11
-27.1601
 21
-24.0462
  0
LINE
  8
0
 10
-27.1601
 20
-24.0462
 11
-27.5
 21
-24.1
  0
LINE
  8
0
 10
-27.5
 20
-24.1
 11
-27.8399
 21
-24.0462
  0
LINE
  8
0
 10
319.66
 20
-24.0462
 11
319.353
 21
-23.8899
  0
LINE
  8
0
 10
319.353
 20
-23.8899
 11
319.11
 21
-23.6466
  0
LINE
  8
0
 10
319.11
 20
-23.6466
 11
318.954
 21
-23.3399
  0
LINE
  8
0
 10
318.954
 20
-23.3399
 11
318.9
 21
-23
  0
LINE
  8
0
 10
318.9
 20
-23
 11
318.954
 21
-22.6601
  0
LINE
  8
0
 10
318.954
 20
-22.6601
 11
319.11
 21
-22.3534
  0
LINE
  8
0
 10
319.11
 20
-22.3534
 11
319.353
 21
-22.1101
  0
LINE
  8
0
 10
319.353
 20
-22.1101
 11
319.66
 21
-21.9538
  0
LINE
  8
0
 10
319.66
 20
-21.9538
 11
320
 21
-21.9
  0
LINE
  8
0
 10
320
 20
-21.9
 11
320.34
 21
-21.9538
  0
LINE
  8
0
 10
320.34
 20
-21.9538
 11
320.647
 21
-22.1101
  0
LINE
  8
0
 10
320.647
 20
-22.1101
 11
320.89
 21
-22.3534
  0
LINE
  8
0
 10
320.89
 20
-22.3534
 11
321.046
 21
-22.6601
  0
LINE
  8
0
 10
321.046
 20
-22.6601
 11
321.1
 21
-23
  0
LINE
  8
0
 10
321.1
 20
-23
 11
321.046
 21
-23.3399
  0
LINE
  8
0
 10
321.046
 20
-23.3399
 11
320.89
 21
-23.6466
  0
LINE
  8
0
 10
320.89
 20
-23.6466
 11
320.647
 21
-23.8899
  0
LINE
  8
0
 10
320.647
 20
-23.8899
 11
320.34
 21
-24.0462
  0
LINE
  8
0
 10
320.34
 20
-24.0462
 11
320
 21
-24.1
  0
LINE
  8
0
 10
320
 20
-24.1
 11
319.66
 21
-24.0462
  0
LINE
  8
0
 10
92.9443
 20
-36.3066
 11
95.834
 21
-22.71
  0
LINE
  8
0
 10
95.834
 20
-22.71
 11
109.43
 21
-25.5996
  0
LINE
  8
0
 10
109.43
 20
-25.5996
 11
106.54
 21
-39.1963
  0
LINE
  8
0
 10
106.54
 20
-39.1963
 11
92.9443
 21
-36.3066
  0
LINE
  8
0
 10
142.877
 20
-25.9092
 11
156.473
 21
-23.0195
  0
LINE
  8
0
 10
156.473
 20
-23.0195
 11
159.363
 21
-36.6152
  0
LINE
  8
0
 10
159.363
 20
-36.6152
 11
145.767
 21
-39.5059
  0
LINE
  8
0
 10
145.767
 20
-39.5059
 11
142.877
 21
-25.9092
  0
LINE
  8
0
 10
297.721
 20
-40.2871
 11
297.721
 21
-26.3877
  0
LINE
  8
0
 10
297.721
 20
-26.3877
 11
311.621
 21
-26.3877
  0
LINE
  8
0
 10
311.621
 20
-26.3877
 11
311.621
 21
-40.2871
  0
LINE
  8
0
 10
311.621
 20
-40.2871
 11
297.721
 21
-40.2871
  0
LINE
  8
0
 10
124.243
 20
-29.8701
 11
137.839
 21
-26.9805
  0
LINE
  8
0
 10
137.839
 20
-26.9805
 11
140.729
 21
-40.5762
  0
LINE
  8
0
 10
140.729
 20
-40.5762
 11
127.133
 21
-43.4658
  0
LINE
  8
0
 10
127.133
 20
-43.4658
 11
124.243
 21
-29.8701
  0
LINE
  8
0
 10
252.824
 20
-48.4998
 11
252.471
 21
-48.3533
  0
LINE
  8
0
 10
252.471
 20
-48.3533
 11
252.324
 21
-47.9998
  0
LINE
  8
0
 10
252.324
 20
-47.9998
 11
252.324
 21
-28.8504
  0
LINE
  8
0
 10
252.324
 20
-28.8504
 11
252.471
 21
-28.4969
  0
LINE
  8
0
 10
252.471
 20
-28.4969
 11
252.824
 21
-28.3504
  0
LINE
  8
0
 10
252.824
 20
-28.3504
 11
258.824
 21
-28.3504
  0
LINE
  8
0
 10
258.824
 20
-28.3504
 11
259.178
 21
-28.4969
  0
LINE
  8
0
 10
259.178
 20
-28.4969
 11
259.324
 21
-28.8504
  0
LINE
  8
0
 10
259.324
 20
-28.8504
 11
259.324
 21
-44.9002
  0
LINE
  8
0
 10
259.324
 20
-44.9002
 11
260.863
 21
-44.9002
  0
LINE
  8
0
 10
260.863
 20
-44.9002
 11
260.762
 21
-44.6004
  0
LINE
  8
0
 10
260.762
 20
-44.6004
 11
260.762
 21
-31.6004
  0
LINE
  8
0
 10
260.762
 20
-31.6004
 11
260.908
 21
-31.2469
  0
LINE
  8
0
 10
260.908
 20
-31.2469
 11
261.262
 21
-31.1004
  0
LINE
  8
0
 10
261.262
 20
-31.1004
 11
274.262
 21
-31.1004
  0
LINE
  8
0
 10
274.262
 20
-31.1004
 11
274.615
 21
-31.2469
  0
LINE
  8
0
 10
274.615
 20
-31.2469
 11
274.762
 21
-31.6004
  0
LINE
  8
0
 10
274.762
 20
-31.6004
 11
274.762
 21
-44.6004
  0
LINE
  8
0
 10
274.762
 20
-44.6004
 11
274.662
 21
-44.9002
  0
LINE
  8
0
 10
274.662
 20
-44.9002
 11
276.2
 21
-44.9002
  0
LINE
  8
0
 10
276.2
 20
-44.9002
 11
276.2
 21
-28.8504
  0
LINE
  8
0
 10
276.2
 20
-28.8504
 11
276.347
 21
-28.4969
  0
LINE
  8
0
 10
276.347
 20
-28.4969
 11
276.7
 21
-28.3504
  0
LINE
  8
0
 10
276.7
 20
-28.3504
 11
282.7
 21
-28.3504
  0
LINE
  8
0
 10
282.7
 20
-28.3504
 11
283.054
 21
-28.4969
  0
LINE
  8
0
 10
283.054
 20
-28.4969
 11
283.2
 21
-28.8504
  0
LINE
  8
0
 10
283.2
 20
-28.8504
 11
283.2
 21
-47.9998
  0
LINE
  8
0
 10
283.2
 20
-47.9998
 11
283.054
 21
-48.3533
  0
LINE
  8
0
 10
283.054
 20
-48.3533
 11
282.7
 21
-48.4998
  0
LINE
  8
0
 10
282.7
 20
-48.4998
 11
252.824
 21
-48.4998
  0
LINE
  8
0
 10
37.7402
 20
-44.0479
 11
40.6309
 21
-30.4521
  0
LINE
  8
0
 10
40.6309
 20
-30.4521
 11
54.2266
 21
-33.3418
  0
LINE
  8
0
 10
54.2266
 20
-33.3418
 11
51.3369
 21
-46.9385
  0
LINE
  8
0
 10
51.3369
 20
-46.9385
 11
37.7402
 21
-44.0479
  0
LINE
  8
0
 10
229.856
 20
-45.0498
 11
229.856
 21
-31.1504
  0
LINE
  8
0
 10
229.856
 20
-31.1504
 11
243.756
 21
-31.1504
  0
LINE
  8
0
 10
243.756
 20
-31.1504
 11
243.756
 21
-45.0498
  0
LINE
  8
0
 10
243.756
 20
-45.0498
 11
229.856
 21
-45.0498
  0
LINE
  8
0
 10
18.0527
 20
-45.0498
 11
18.0527
 21
-31.1504
  0
LINE
  8
0
 10
18.0527
 20
-31.1504
 11
31.9531
 21
-31.1504
  0
LINE
  8
0
 10
31.9531
 20
-31.1504
 11
31.9531
 21
-45.0498
  0
LINE
  8
0
 10
31.9531
 20
-45.0498
 11
18.0527
 21
-45.0498
  0
LINE
  8
0
 10
-8.14062
 20
-45.0498
 11
-8.14062
 21
-31.1504
  0
LINE
  8
0
 10
-8.14062
 20
-31.1504
 11
5.75977
 21
-31.1504
  0
LINE
  8
0
 10
5.75977
 20
-31.1504
 11
5.75977
 21
-45.0498
  0
LINE
  8
0
 10
5.75977
 20
-45.0498
 11
-8.14062
 21
-45.0498
  0
LINE
  8
0
 10
210.806
 20
-45.0498
 11
210.806
 21
-31.1504
  0
LINE
  8
0
 10
210.806
 20
-31.1504
 11
224.706
 21
-31.1504
  0
LINE
  8
0
 10
224.706
 20
-31.1504
 11
224.706
 21
-45.0498
  0
LINE
  8
0
 10
224.706
 20
-45.0498
 11
210.806
 21
-45.0498
  0
LINE
  8
0
 10
188.763
 20
-35.6309
 11
202.36
 21
-32.7412
  0
LINE
  8
0
 10
202.36
 20
-32.7412
 11
205.25
 21
-46.3379
  0
LINE
  8
0
 10
205.25
 20
-46.3379
 11
191.653
 21
-49.2275
  0
LINE
  8
0
 10
191.653
 20
-49.2275
 11
188.763
 21
-35.6309
  0
LINE
  8
0
 10
56.374
 20
-48.0088
 11
59.2646
 21
-34.4121
  0
LINE
  8
0
 10
59.2646
 20
-34.4121
 11
72.8604
 21
-37.3027
  0
LINE
  8
0
 10
72.8604
 20
-37.3027
 11
69.9707
 21
-50.8984
  0
LINE
  8
0
 10
69.9707
 20
-50.8984
 11
56.374
 21
-48.0088
  0
LINE
  8
0
 10
170.13
 20
-39.5918
 11
183.726
 21
-36.7021
  0
LINE
  8
0
 10
183.726
 20
-36.7021
 11
186.616
 21
-50.2979
  0
LINE
  8
0
 10
186.616
 20
-50.2979
 11
173.02
 21
-53.1885
  0
LINE
  8
0
 10
173.02
 20
-53.1885
 11
170.13
 21
-39.5918
  0
LINE
  8
0
 10
75.0078
 20
-51.9697
 11
77.8975
 21
-38.373
  0
LINE
  8
0
 10
77.8975
 20
-38.373
 11
91.4941
 21
-41.2637
  0
LINE
  8
0
 10
91.4941
 20
-41.2637
 11
88.6045
 21
-54.8594
  0
LINE
  8
0
 10
88.6045
 20
-54.8594
 11
75.0078
 21
-51.9697
  0
LINE
  8
0
 10
151.496
 20
-43.5527
 11
165.092
 21
-40.6631
  0
LINE
  8
0
 10
165.092
 20
-40.6631
 11
167.982
 21
-54.2588
  0
LINE
  8
0
 10
167.982
 20
-54.2588
 11
154.386
 21
-57.1494
  0
LINE
  8
0
 10
154.386
 20
-57.1494
 11
151.496
 21
-43.5527
  0
LINE
  8
0
 10
93.6416
 20
-55.9307
 11
96.5312
 21
-42.334
  0
LINE
  8
0
 10
96.5312
 20
-42.334
 11
110.128
 21
-45.2236
  0
LINE
  8
0
 10
110.128
 20
-45.2236
 11
107.238
 21
-58.8203
  0
LINE
  8
0
 10
107.238
 20
-58.8203
 11
93.6416
 21
-55.9307
  0
LINE
  8
0
 10
132.862
 20
-47.5137
 11
146.458
 21
-44.623
  0
LINE
  8
0
 10
146.458
 20
-44.623
 11
149.348
 21
-58.2197
  0
LINE
  8
0
 10
149.348
 20
-58.2197
 11
135.752
 21
-61.1094
  0
LINE
  8
0
 10
135.752
 20
-61.1094
 11
132.862
 21
-47.5137
  0
LINE
  8
0
 10
-15.533
 20
-67.5498
 11
-15.8865
 21
-67.4033
  0
LINE
  8
0
 10
-15.8865
 20
-67.4033
 11
-16.033
 21
-67.0498
  0
LINE
  8
0
 10
-16.033
 20
-67.0498
 11
-16.033
 21
-47.9004
  0
LINE
  8
0
 10
-16.033
 20
-47.9004
 11
-15.8865
 21
-47.5469
  0
LINE
  8
0
 10
-15.8865
 20
-47.5469
 11
-15.533
 21
-47.4004
  0
LINE
  8
0
 10
-15.533
 20
-47.4004
 11
-9.533
 21
-47.4004
  0
LINE
  8
0
 10
-9.533
 20
-47.4004
 11
-9.17949
 21
-47.5469
  0
LINE
  8
0
 10
-9.17949
 20
-47.5469
 11
-9.033
 21
-47.9004
  0
LINE
  8
0
 10
-9.033
 20
-47.9004
 11
-9.033
 21
-63.9502
  0
LINE
  8
0
 10
-9.033
 20
-63.9502
 11
-7.49492
 21
-63.9502
  0
LINE
  8
0
 10
-7.49492
 20
-63.9502
 11
-7.5955
 21
-63.6504
  0
LINE
  8
0
 10
-7.5955
 20
-63.6504
 11
-7.5955
 21
-50.6504
  0
LINE
  8
0
 10
-7.5955
 20
-50.6504
 11
-7.44902
 21
-50.2969
  0
LINE
  8
0
 10
-7.44902
 20
-50.2969
 11
-7.0955
 21
-50.1504
  0
LINE
  8
0
 10
-7.0955
 20
-50.1504
 11
5.90448
 21
-50.1504
  0
LINE
  8
0
 10
5.90448
 20
-50.1504
 11
6.258
 21
-50.2969
  0
LINE
  8
0
 10
6.258
 20
-50.2969
 11
6.40448
 21
-50.6504
  0
LINE
  8
0
 10
6.40448
 20
-50.6504
 11
6.40448
 21
-63.6504
  0
LINE
  8
0
 10
6.40448
 20
-63.6504
 11
6.30487
 21
-63.9502
  0
LINE
  8
0
 10
6.30487
 20
-63.9502
 11
7.84296
 21
-63.9502
  0
LINE
  8
0
 10
7.84296
 20
-63.9502
 11
7.84296
 21
-47.9004
  0
LINE
  8
0
 10
7.84296
 20
-47.9004
 11
7.98944
 21
-47.5469
  0
LINE
  8
0
 10
7.98944
 20
-47.5469
 11
8.34296
 21
-47.4004
  0
LINE
  8
0
 10
8.34296
 20
-47.4004
 11
14.343
 21
-47.4004
  0
LINE
  8
0
 10
14.343
 20
-47.4004
 11
14.6965
 21
-47.5469
  0
LINE
  8
0
 10
14.6965
 20
-47.5469
 11
14.843
 21
-47.9004
  0
LINE
  8
0
 10
14.843
 20
-47.9004
 11
14.843
 21
-67.0498
  0
LINE
  8
0
 10
14.843
 20
-67.0498
 11
14.6965
 21
-67.4033
  0
LINE
  8
0
 10
14.6965
 20
-67.4033
 11
14.343
 21
-67.5498
  0
LINE
  8
0
 10
14.343
 20
-67.5498
 11
-15.533
 21
-67.5498
  0
LINE
  8
0
 10
246.525
 20
-64.0996
 11
246.525
 21
-50.2002
  0
LINE
  8
0
 10
246.525
 20
-50.2002
 11
260.425
 21
-50.2002
  0
LINE
  8
0
 10
260.425
 20
-50.2002
 11
260.425
 21
-64.0996
  0
LINE
  8
0
 10
260.425
 20
-64.0996
 11
246.525
 21
-64.0996
  0
LINE
  8
0
 10
23.4111
 20
-64.0996
 11
23.4111
 21
-50.2002
  0
LINE
  8
0
 10
23.4111
 20
-50.2002
 11
37.3105
 21
-50.2002
  0
LINE
  8
0
 10
37.3105
 20
-50.2002
 11
37.3105
 21
-64.0996
  0
LINE
  8
0
 10
37.3105
 20
-64.0996
 11
23.4111
 21
-64.0996
  0
LINE
  8
0
 10
220.331
 20
-64.0996
 11
220.331
 21
-50.2002
  0
LINE
  8
0
 10
220.331
 20
-50.2002
 11
234.231
 21
-50.2002
  0
LINE
  8
0
 10
234.231
 20
-50.2002
 11
234.231
 21
-64.0996
  0
LINE
  8
0
 10
234.231
 20
-64.0996
 11
220.331
 21
-64.0996
  0
LINE
  8
0
 10
197.382
 20
-53.2744
 11
210.979
 21
-50.3848
  0
LINE
  8
0
 10
210.979
 20
-50.3848
 11
213.869
 21
-63.9814
  0
LINE
  8
0
 10
213.869
 20
-63.9814
 11
200.272
 21
-66.8711
  0
LINE
  8
0
 10
200.272
 20
-66.8711
 11
197.382
 21
-53.2744
  0
LINE
  8
0
 10
43.0967
 20
-64.6621
 11
45.9863
 21
-51.0654
  0
LINE
  8
0
 10
45.9863
 20
-51.0654
 11
59.583
 21
-53.9561
  0
LINE
  8
0
 10
59.583
 20
-53.9561
 11
56.6934
 21
-67.5518
  0
LINE
  8
0
 10
56.6934
 20
-67.5518
 11
43.0967
 21
-64.6621
  0
LINE
  8
0
 10
-27.8399
 20
-54.0462
 11
-28.1466
 21
-53.8899
  0
LINE
  8
0
 10
-28.1466
 20
-53.8899
 11
-28.3899
 21
-53.6466
  0
LINE
  8
0
 10
-28.3899
 20
-53.6466
 11
-28.5462
 21
-53.3399
  0
LINE
  8
0
 10
-28.5462
 20
-53.3399
 11
-28.6
 21
-53
  0
LINE
  8
0
 10
-28.6
 20
-53
 11
-28.5462
 21
-52.6601
  0
LINE
  8
0
 10
-28.5462
 20
-52.6601
 11
-28.3899
 21
-52.3534
  0
LINE
  8
0
 10
-28.3899
 20
-52.3534
 11
-28.1466
 21
-52.1101
  0
LINE
  8
0
 10
-28.1466
 20
-52.1101
 11
-27.8399
 21
-51.9538
  0
LINE
  8
0
 10
-27.8399
 20
-51.9538
 11
-27.5
 21
-51.9
  0
LINE
  8
0
 10
-27.5
 20
-51.9
 11
-27.1601
 21
-51.9538
  0
LINE
  8
0
 10
-27.1601
 20
-51.9538
 11
-26.8534
 21
-52.1101
  0
LINE
  8
0
 10
-26.8534
 20
-52.1101
 11
-26.6101
 21
-52.3534
  0
LINE
  8
0
 10
-26.6101
 20
-52.3534
 11
-26.4538
 21
-52.6601
  0
LINE
  8
0
 10
-26.4538
 20
-52.6601
 11
-26.4
 21
-53
  0
LINE
  8
0
 10
-26.4
 20
-53
 11
-26.4538
 21
-53.3399
  0
LINE
  8
0
 10
-26.4538
 20
-53.3399
 11
-26.6101
 21
-53.6466
  0
LINE
  8
0
 10
-26.6101
 20
-53.6466
 11
-26.8534
 21
-53.8899
  0
LINE
  8
0
 10
-26.8534
 20
-53.8899
 11
-27.1601
 21
-54.0462
  0
LINE
  8
0
 10
-27.1601
 20
-54.0462
 11
-27.5
 21
-54.1
  0
LINE
  8
0
 10
-27.5
 20
-54.1
 11
-27.8399
 21
-54.0462
  0
LINE
  8
0
 10
319.66
 20
-54.0462
 11
319.353
 21
-53.8899
  0
LINE
  8
0
 10
319.353
 20
-53.8899
 11
319.11
 21
-53.6466
  0
LINE
  8
0
 10
319.11
 20
-53.6466
 11
318.954
 21
-53.3399
  0
LINE
  8
0
 10
318.954
 20
-53.3399
 11
318.9
 21
-53
  0
LINE
  8
0
 10
318.9
 20
-53
 11
318.954
 21
-52.6601
  0
LINE
  8
0
 10
318.954
 20
-52.6601
 11
319.11
 21
-52.3534
  0
LINE
  8
0
 10
319.11
 20
-52.3534
 11
319.353
 21
-52.1101
  0
LINE
  8
0
 10
319.353
 20
-52.1101
 11
319.66
 21
-51.9538
  0
LINE
  8
0
 10
319.66
 20
-51.9538
 11
320
 21
-51.9
  0
LINE
  8
0
 10
320
 20
-51.9
 11
320.34
 21
-51.9538
  0
LINE
  8
0
 10
320.34
 20
-51.9538
 11
320.647
 21
-52.1101
  0
LINE
  8
0
 10
320.647
 20
-52.1101
 11
320.89
 21
-52.3534
  0
LINE
  8
0
 10
320.89
 20
-52.3534
 11
321.046
 21
-52.6601
  0
LINE
  8
0
 10
321.046
 20
-52.6601
 11
321.1
 21
-53
  0
LINE
  8
0
 10
321.1
 20
-53
 11
321.046
 21
-53.3399
  0
LINE
  8
0
 10
321.046
 20
-53.3399
 11
320.89
 21
-53.6466
  0
LINE
  8
0
 10
320.89
 20
-53.6466
 11
320.647
 21
-53.8899
  0
LINE
  8
0
 10
320.647
 20
-53.8899
 11
320.34
 21
-54.0462
  0
LINE
  8
0
 10
320.34
 20
-54.0462
 11
320
 21
-54.1
  0
LINE
  8
0
 10
320
 20
-54.1
 11
319.66
 21
-54.0462
  0
LINE
  8
0
 10
178.749
 20
-57.2354
 11
192.345
 21
-54.3457
  0
LINE
  8
0
 10
192.345
 20
-54.3457
 11
195.235
 21
-67.9414
  0
LINE
  8
0
 10
195.235
 20
-67.9414
 11
181.639
 21
-70.832
  0
LINE
  8
0
 10
181.639
 20
-70.832
 11
178.749
 21
-57.2354
  0
LINE
  8
0
 10
277.481
 20
-68.8623
 11
277.481
 21
-54.9629
  0
LINE
  8
0
 10
277.481
 20
-54.9629
 11
291.381
 21
-54.9629
  0
LINE
  8
0
 10
291.381
 20
-54.9629
 11
291.381
 21
-68.8623
  0
LINE
  8
0
 10
291.381
 20
-68.8623
 11
277.481
 21
-68.8623
  0
LINE
  8
0
 10
61.7305
 20
-68.623
 11
64.6201
 21
-55.0264
  0
LINE
  8
0
 10
64.6201
 20
-55.0264
 11
78.2168
 21
-57.917
  0
LINE
  8
0
 10
78.2168
 20
-57.917
 11
75.3262
 21
-71.5127
  0
LINE
  8
0
 10
75.3262
 20
-71.5127
 11
61.7305
 21
-68.623
  0
LINE
  8
0
 10
160.115
 20
-61.1963
 11
173.711
 21
-58.3066
  0
LINE
  8
0
 10
173.711
 20
-58.3066
 11
176.601
 21
-71.9023
  0
LINE
  8
0
 10
176.601
 20
-71.9023
 11
163.005
 21
-74.793
  0
LINE
  8
0
 10
163.005
 20
-74.793
 11
160.115
 21
-61.1963
  0
LINE
  8
0
 10
80.3643
 20
-72.584
 11
83.2539
 21
-58.9873
  0
LINE
  8
0
 10
83.2539
 20
-58.9873
 11
96.8506
 21
-61.877
  0
LINE
  8
0
 10
96.8506
 20
-61.877
 11
93.96
 21
-75.4736
  0
LINE
  8
0
 10
93.96
 20
-75.4736
 11
80.3643
 21
-72.584
  0
LINE
  8
0
 10
141.481
 20
-65.1572
 11
155.078
 21
-62.2666
  0
LINE
  8
0
 10
155.078
 20
-62.2666
 11
157.968
 21
-75.8633
  0
LINE
  8
0
 10
157.968
 20
-75.8633
 11
144.371
 21
-78.7529
  0
LINE
  8
0
 10
144.371
 20
-78.7529
 11
141.481
 21
-65.1572
  0
LINE
  8
0
 10
98.998
 20
-76.5439
 11
101.888
 21
-62.9482
  0
LINE
  8
0
 10
101.888
 20
-62.9482
 11
115.484
 21
-65.8379
  0
LINE
  8
0
 10
115.484
 20
-65.8379
 11
112.594
 21
-79.4346
  0
LINE
  8
0
 10
112.594
 20
-79.4346
 11
98.998
 21
-76.5439
  0
LINE
  8
0
 10
-14.6895
 20
-83.1504
 11
-14.6895
 21
-69.25
  0
LINE
  8
0
 10
-14.6895
 20
-69.25
 11
-0.789062
 21
-69.25
  0
LINE
  8
0
 10
-0.789062
 20
-69.25
 11
-0.789062
 21
-83.1504
  0
LINE
  8
0
 10
-0.789062
 20
-83.1504
 11
-14.6895
 21
-83.1504
  0
LINE
  8
0
 10
43.7939
 20
-84.2861
 11
46.6846
 21
-70.6895
  0
LINE
  8
0
 10
46.6846
 20
-70.6895
 11
60.2803
 21
-73.5801
  0
LINE
  8
0
 10
60.2803
 20
-73.5801
 11
57.3906
 21
-87.1758
  0
LINE
  8
0
 10
57.3906
 20
-87.1758
 11
43.7939
 21
-84.2861
  0
LINE
  8
0
 10
192.026
 20
-73.8887
 11
205.623
 21
-70.999
  0
LINE
  8
0
 10
205.623
 20
-70.999
 11
208.513
 21
-84.5947
  0
LINE
  8
0
 10
208.513
 20
-84.5947
 11
194.916
 21
-87.4854
  0
LINE
  8
0
 10
194.916
 20
-87.4854
 11
192.026
 21
-73.8887
  0
LINE
  8
0
 10
91.3618
 20
-97.2589
 11
91.0464
 21
-97.0422
  0
LINE
  8
0
 10
91.0464
 20
-97.0422
 11
90.9767
 21
-96.6659
  0
LINE
  8
0
 10
90.9767
 20
-96.6659
 11
94.3136
 21
-80.9668
  0
LINE
  8
0
 10
94.3136
 20
-80.9668
 11
92.8091
 21
-80.647
  0
LINE
  8
0
 10
92.8091
 20
-80.647
 11
92.8452
 21
-80.9612
  0
LINE
  8
0
 10
92.8452
 20
-80.9612
 11
90.1423
 21
-93.6771
  0
LINE
  8
0
 10
90.1423
 20
-93.6771
 11
89.9255
 21
-93.9925
  0
LINE
  8
0
 10
89.9255
 20
-93.9925
 11
89.5493
 21
-94.0623
  0
LINE
  8
0
 10
89.5493
 20
-94.0623
 11
76.8334
 21
-91.3594
  0
LINE
  8
0
 10
76.8334
 20
-91.3594
 11
76.5181
 21
-91.1426
  0
LINE
  8
0
 10
76.5181
 20
-91.1426
 11
76.4483
 21
-90.7664
  0
LINE
  8
0
 10
76.4483
 20
-90.7664
 11
79.1511
 21
-78.0505
  0
LINE
  8
0
 10
79.1511
 20
-78.0505
 11
79.3109
 21
-77.7779
  0
LINE
  8
0
 10
79.3109
 20
-77.7779
 11
77.8064
 21
-77.4581
  0
LINE
  8
0
 10
77.8064
 20
-77.4581
 11
74.4695
 21
-93.1572
  0
LINE
  8
0
 10
74.4695
 20
-93.1572
 11
74.2527
 21
-93.4725
  0
LINE
  8
0
 10
74.2527
 20
-93.4725
 11
73.8764
 21
-93.5423
  0
LINE
  8
0
 10
73.8764
 20
-93.5423
 11
68.0076
 21
-92.2948
  0
LINE
  8
0
 10
68.0076
 20
-92.2948
 11
67.6922
 21
-92.0781
  0
LINE
  8
0
 10
67.6922
 20
-92.0781
 11
67.6224
 21
-91.7018
  0
LINE
  8
0
 10
67.6224
 20
-91.7018
 11
71.6038
 21
-72.9709
  0
LINE
  8
0
 10
71.6038
 20
-72.9709
 11
71.8206
 21
-72.6555
  0
LINE
  8
0
 10
71.8206
 20
-72.6555
 11
72.1968
 21
-72.5858
  0
LINE
  8
0
 10
72.1968
 20
-72.5858
 11
101.42
 21
-78.7973
  0
LINE
  8
0
 10
101.42
 20
-78.7973
 11
101.735
 21
-79.0141
  0
LINE
  8
0
 10
101.735
 20
-79.0141
 11
101.805
 21
-79.3904
  0
LINE
  8
0
 10
101.805
 20
-79.3904
 11
97.8237
 21
-98.1213
  0
LINE
  8
0
 10
97.8237
 20
-98.1213
 11
97.6069
 21
-98.4366
  0
LINE
  8
0
 10
97.6069
 20
-98.4366
 11
97.2307
 21
-98.5064
  0
LINE
  8
0
 10
97.2307
 20
-98.5064
 11
91.3618
 21
-97.2589
  0
LINE
  8
0
 10
258.431
 20
-87.9121
 11
258.431
 21
-74.0127
  0
LINE
  8
0
 10
258.431
 20
-74.0127
 11
272.331
 21
-74.0127
  0
LINE
  8
0
 10
272.331
 20
-74.0127
 11
272.331
 21
-87.9121
  0
LINE
  8
0
 10
272.331
 20
-87.9121
 11
258.431
 21
-87.9121
  0
LINE
  8
0
 10
277.481
 20
-87.9121
 11
277.481
 21
-74.0127
  0
LINE
  8
0
 10
277.481
 20
-74.0127
 11
291.381
 21
-74.0127
  0
LINE
  8
0
 10
291.381
 20
-74.0127
 11
291.381
 21
-87.9121
  0
LINE
  8
0
 10
291.381
 20
-87.9121
 11
277.481
 21
-87.9121
  0
LINE
  8
0
 10
296.531
 20
-87.9121
 11
296.531
 21
-74.0127
  0
LINE
  8
0
 10
296.531
 20
-74.0127
 11
310.431
 21
-74.0127
  0
LINE
  8
0
 10
310.431
 20
-74.0127
 11
310.431
 21
-87.9121
  0
LINE
  8
0
 10
310.431
 20
-87.9121
 11
296.531
 21
-87.9121
  0
LINE
  8
0
 10
147.712
 20
-100.231
 11
147.495
 21
-99.9158
  0
LINE
  8
0
 10
147.495
 20
-99.9158
 11
143.514
 21
-81.1849
  0
LINE
  8
0
 10
143.514
 20
-81.1849
 11
143.583
 21
-80.8087
  0
LINE
  8
0
 10
143.583
 20
-80.8087
 11
143.899
 21
-80.5919
  0
LINE
  8
0
 10
143.899
 20
-80.5919
 11
173.122
 21
-74.3803
  0
LINE
  8
0
 10
173.122
 20
-74.3803
 11
173.498
 21
-74.4501
  0
LINE
  8
0
 10
173.498
 20
-74.4501
 11
173.715
 21
-74.7654
  0
LINE
  8
0
 10
173.715
 20
-74.7654
 11
177.696
 21
-93.4964
  0
LINE
  8
0
 10
177.696
 20
-93.4964
 11
177.626
 21
-93.8726
  0
LINE
  8
0
 10
177.626
 20
-93.8726
 11
177.311
 21
-94.0894
  0
LINE
  8
0
 10
177.311
 20
-94.0894
 11
171.442
 21
-95.3369
  0
LINE
  8
0
 10
171.442
 20
-95.3369
 11
171.066
 21
-95.2671
  0
LINE
  8
0
 10
171.066
 20
-95.2671
 11
170.849
 21
-94.9518
  0
LINE
  8
0
 10
170.849
 20
-94.9518
 11
167.512
 21
-79.2527
  0
LINE
  8
0
 10
167.512
 20
-79.2527
 11
166.008
 21
-79.5725
  0
LINE
  8
0
 10
166.008
 20
-79.5725
 11
166.169
 21
-79.8448
  0
LINE
  8
0
 10
166.169
 20
-79.8448
 11
168.871
 21
-92.5607
  0
LINE
  8
0
 10
168.871
 20
-92.5607
 11
168.802
 21
-92.937
  0
LINE
  8
0
 10
168.802
 20
-92.937
 11
168.486
 21
-93.1537
  0
LINE
  8
0
 10
168.486
 20
-93.1537
 11
155.77
 21
-95.8566
  0
LINE
  8
0
 10
155.77
 20
-95.8566
 11
155.394
 21
-95.7868
  0
LINE
  8
0
 10
155.394
 20
-95.7868
 11
155.177
 21
-95.4715
  0
LINE
  8
0
 10
155.177
 20
-95.4715
 11
152.474
 21
-82.7556
  0
LINE
  8
0
 10
152.474
 20
-82.7556
 11
152.51
 21
-82.4416
  0
LINE
  8
0
 10
152.51
 20
-82.4416
 11
151.005
 21
-82.7614
  0
LINE
  8
0
 10
151.005
 20
-82.7614
 11
154.342
 21
-98.4605
  0
LINE
  8
0
 10
154.342
 20
-98.4605
 11
154.272
 21
-98.8367
  0
LINE
  8
0
 10
154.272
 20
-98.8367
 11
153.957
 21
-99.0535
  0
LINE
  8
0
 10
153.957
 20
-99.0535
 11
148.088
 21
-100.301
  0
LINE
  8
0
 10
148.088
 20
-100.301
 11
147.712
 21
-100.231
  0
LINE
  8
0
 10
104.354
 20
-97.1582
 11
107.244
 21
-83.5625
  0
LINE
  8
0
 10
107.244
 20
-83.5625
 11
120.84
 21
-86.4521
  0
LINE
  8
0
 10
120.84
 20
-86.4521
 11
117.95
 21
-100.048
  0
LINE
  8
0
 10
117.95
 20
-100.048
 11
104.354
 21
-97.1582
  0
LINE
  8
0
 10
-27.8399
 20
-96.5462
 11
-28.1466
 21
-96.3899
  0
LINE
  8
0
 10
-28.1466
 20
-96.3899
 11
-28.3899
 21
-96.1466
  0
LINE
  8
0
 10
-28.3899
 20
-96.1466
 11
-28.5462
 21
-95.8399
  0
LINE
  8
0
 10
-28.5462
 20
-95.8399
 11
-28.6
 21
-95.5
  0
LINE
  8
0
 10
-28.6
 20
-95.5
 11
-28.5462
 21
-95.1601
  0
LINE
  8
0
 10
-28.5462
 20
-95.1601
 11
-28.3899
 21
-94.8534
  0
LINE
  8
0
 10
-28.3899
 20
-94.8534
 11
-28.1466
 21
-94.6101
  0
LINE
  8
0
 10
-28.1466
 20
-94.6101
 11
-27.8399
 21
-94.4538
  0
LINE
  8
0
 10
-27.8399
 20
-94.4538
 11
-27.5
 21
-94.4
  0
LINE
  8
0
 10
-27.5
 20
-94.4
 11
-27.1601
 21
-94.4538
  0
LINE
  8
0
 10
-27.1601
 20
-94.4538
 11
-26.8534
 21
-94.6101
  0
LINE
  8
0
 10
-26.8534
 20
-94.6101
 11
-26.6101
 21
-94.8534
  0
LINE
  8
0
 10
-26.6101
 20
-94.8534
 11
-26.4538
 21
-95.1601
  0
LINE
  8
0
 10
-26.4538
 20
-95.1601
 11
-26.4
 21
-95.5
  0
LINE
  8
0
 10
-26.4
 20
-95.5
 11
-26.4538
 21
-95.8399
  0
LINE
  8
0
 10
-26.4538
 20
-95.8399
 11
-26.6101
 21
-96.1466
  0
LINE
  8
0
 10
-26.6101
 20
-96.1466
 11
-26.8534
 21
-96.3899
  0
LINE
  8
0
 10
-26.8534
 20
-96.3899
 11
-27.1601
 21
-96.5462
  0
LINE
  8
0
 10
-27.1601
 20
-96.5462
 11
-27.5
 21
-96.6
  0
LINE
  8
0
 10
-27.5
 20
-96.6
 11
-27.8399
 21
-96.5462
  0
LINE
  8
0
 10
47.6601
 20
-96.5462
 11
47.3534
 21
-96.3899
  0
LINE
  8
0
 10
47.3534
 20
-96.3899
 11
47.1101
 21
-96.1466
  0
LINE
  8
0
 10
47.1101
 20
-96.1466
 11
46.9538
 21
-95.8399
  0
LINE
  8
0
 10
46.9538
 20
-95.8399
 11
46.9
 21
-95.5
  0
LINE
  8
0
 10
46.9
 20
-95.5
 11
46.9538
 21
-95.1601
  0
LINE
  8
0
 10
46.9538
 20
-95.1601
 11
47.1101
 21
-94.8534
  0
LINE
  8
0
 10
47.1101
 20
-94.8534
 11
47.3534
 21
-94.6101
  0
LINE
  8
0
 10
47.3534
 20
-94.6101
 11
47.6601
 21
-94.4538
  0
LINE
  8
0
 10
47.6601
 20
-94.4538
 11
48
 21
-94.4
  0
LINE
  8
0
 10
48
 20
-94.4
 11
48.3399
 21
-94.4538
  0
LINE
  8
0
 10
48.3399
 20
-94.4538
 11
48.6466
 21
-94.6101
  0
LINE
  8
0
 10
48.6466
 20
-94.6101
 11
48.8899
 21
-94.8534
  0
LINE
  8
0
 10
48.8899
 20
-94.8534
 11
49.0462
 21
-95.1601
  0
LINE
  8
0
 10
49.0462
 20
-95.1601
 11
49.1
 21
-95.5
  0
LINE
  8
0
 10
49.1
 20
-95.5
 11
49.0462
 21
-95.8399
  0
LINE
  8
0
 10
49.0462
 20
-95.8399
 11
48.8899
 21
-96.1466
  0
LINE
  8
0
 10
48.8899
 20
-96.1466
 11
48.6466
 21
-96.3899
  0
LINE
  8
0
 10
48.6466
 20
-96.3899
 11
48.3399
 21
-96.5462
  0
LINE
  8
0
 10
48.3399
 20
-96.5462
 11
48
 21
-96.6
  0
LINE
  8
0
 10
48
 20
-96.6
 11
47.6601
 21
-96.5462
  0
LINE
  8
0
 10
199.66
 20
-96.5462
 11
199.353
 21
-96.3899
  0
LINE
  8
0
 10
199.353
 20
-96.3899
 11
199.11
 21
-96.1466
  0
LINE
  8
0
 10
199.11
 20
-96.1466
 11
198.954
 21
-95.8399
  0
LINE
  8
0
 10
198.954
 20
-95.8399
 11
198.9
 21
-95.5
  0
LINE
  8
0
 10
198.9
 20
-95.5
 11
198.954
 21
-95.1601
  0
LINE
  8
0
 10
198.954
 20
-95.1601
 11
199.11
 21
-94.8534
  0
LINE
  8
0
 10
199.11
 20
-94.8534
 11
199.353
 21
-94.6101
  0
LINE
  8
0
 10
199.353
 20
-94.6101
 11
199.66
 21
-94.4538
  0
LINE
  8
0
 10
199.66
 20
-94.4538
 11
200
 21
-94.4
  0
LINE
  8
0
 10
200
 20
-94.4
 11
200.34
 21
-94.4538
  0
LINE
  8
0
 10
200.34
 20
-94.4538
 11
200.647
 21
-94.6101
  0
LINE
  8
0
 10
200.647
 20
-94.6101
 11
200.89
 21
-94.8534
  0
LINE
  8
0
 10
200.89
 20
-94.8534
 11
201.046
 21
-95.1601
  0
LINE
  8
0
 10
201.046
 20
-95.1601
 11
201.1
 21
-95.5
  0
LINE
  8
0
 10
201.1
 20
-95.5
 11
201.046
 21
-95.8399
  0
LINE
  8
0
 10
201.046
 20
-95.8399
 11
200.89
 21
-96.1466
  0
LINE
  8
0
 10
200.89
 20
-96.1466
 11
200.647
 21
-96.3899
  0
LINE
  8
0
 10
200.647
 20
-96.3899
 11
200.34
 21
-96.5462
  0
LINE
  8
0
 10
200.34
 20
-96.5462
 11
200
 21
-96.6
  0
LINE
  8
0
 10
200
 20
-96.6
 11
199.66
 21
-96.5462
  0
LINE
  8
0
 10
319.66
 20
-96.5462
 11
319.353
 21
-96.3899
  0
LINE
  8
0
 10
319.353
 20
-96.3899
 11
319.11
 21
-96.1466
  0
LINE
  8
0
 10
319.11
 20
-96.1466
 11
318.954
 21
-95.8399
  0
LINE
  8
0
 10
318.954
 20
-95.8399
 11
318.9
 21
-95.5
  0
LINE
  8
0
 10
318.9
 20
-95.5
 11
318.954
 21
-95.1601
  0
LINE
  8
0
 10
318.954
 20
-95.1601
 11
319.11
 21
-94.8534
  0
LINE
  8
0
 10
319.11
 20
-94.8534
 11
319.353
 21
-94.6101
  0
LINE
  8
0
 10
319.353
 20
-94.6101
 11
319.66
 21
-94.4538
  0
LINE
  8
0
 10
319.66
 20
-94.4538
 11
320
 21
-94.4
  0
LINE
  8
0
 10
320
 20
-94.4
 11
320.34
 21
-94.4538
  0
LINE
  8
0
 10
320.34
 20
-94.4538
 11
320.647
 21
-94.6101
  0
LINE
  8
0
 10
320.647
 20
-94.6101
 11
320.89
 21
-94.8534
  0
LINE
  8
0
 10
320.89
 20
-94.8534
 11
321.046
 21
-95.1601
  0
LINE
  8
0
 10
321.046
 20
-95.1601
 11
321.1
 21
-95.5
  0
LINE
  8
0
 10
321.1
 20
-95.5
 11
321.046
 21
-95.8399
  0
LINE
  8
0
 10
321.046
 20
-95.8399
 11
320.89
 21
-96.1466
  0
LINE
  8
0
 10
320.89
 20
-96.1466
 11
320.647
 21
-96.3899
  0
LINE
  8
0
 10
320.647
 20
-96.3899
 11
320.34
 21
-96.5462
  0
LINE
  8
0
 10
320.34
 20
-96.5462
 11
320
 21
-96.6
  0
LINE
  8
0
 10
320
 20
-96.6
 11
319.66
 21
-96.5462
  0
ENDSEC
  0
SECTION
  2
OBJECTS
  0
DICTIONARY
  0
ENDSEC
  0
EOF
