  0
SECTION
  2
BLOCKS
  0
ENDSEC
  0
SECTION
  2
ENTITIES
  0
LINE
  8
0
 10
128.673
 20
-119.194
 11
195.771
 21
-105.525
  0
LINE
  8
0
 10
195.771
 20
-105.525
 11
313.639
 21
-105.525
  0
LINE
  8
0
 10
313.639
 20
-105.525
 11
316.757
 21
-105.198
  0
LINE
  8
0
 10
316.757
 20
-105.198
 11
319.74
 21
-104.229
  0
LINE
  8
0
 10
319.74
 20
-104.229
 11
322.455
 21
-102.661
  0
LINE
  8
0
 10
322.455
 20
-102.661
 11
324.786
 21
-100.562
  0
LINE
  8
0
 10
324.786
 20
-100.562
 11
326.629
 21
-98.0254
  0
LINE
  8
0
 10
326.629
 20
-98.0254
 11
327.905
 21
-95.1606
  0
LINE
  8
0
 10
327.905
 20
-95.1606
 11
328.639
 21
-90.5254
  0
LINE
  8
0
 10
328.639
 20
-90.5254
 11
328.639
 21
12.3447
  0
LINE
  8
0
 10
328.639
 20
12.3447
 11
328.311
 21
15.4634
  0
LINE
  8
0
 10
328.311
 20
15.4634
 11
327.342
 21
18.4458
  0
LINE
  8
0
 10
327.342
 20
18.4458
 11
325.774
 21
21.1615
  0
LINE
  8
0
 10
325.774
 20
21.1615
 11
323.676
 21
23.4919
  0
LINE
  8
0
 10
323.676
 20
23.4919
 11
321.139
 21
25.3351
  0
LINE
  8
0
 10
321.139
 20
25.3351
 11
318.274
 21
26.6106
  0
LINE
  8
0
 10
318.274
 20
26.6106
 11
313.639
 21
27.3447
  0
LINE
  8
0
 10
313.639
 20
27.3447
 11
-21.6406
 21
27.3447
  0
LINE
  8
0
 10
-21.6406
 20
27.3447
 11
-24.7593
 21
27.0169
  0
LINE
  8
0
 10
-24.7593
 20
27.0169
 11
-27.7417
 21
26.0479
  0
LINE
  8
0
 10
-27.7417
 20
26.0479
 11
-30.4574
 21
24.48
  0
LINE
  8
0
 10
-30.4574
 20
24.48
 11
-32.7878
 21
22.3817
  0
LINE
  8
0
 10
-32.7878
 20
22.3817
 11
-34.631
 21
19.8447
  0
LINE
  8
0
 10
-34.631
 20
19.8447
 11
-35.9065
 21
16.98
  0
LINE
  8
0
 10
-35.9065
 20
16.98
 11
-36.6406
 21
12.3447
  0
LINE
  8
0
 10
-36.6406
 20
12.3447
 11
-36.6406
 21
-90.5254
  0
LINE
  8
0
 10
-36.6406
 20
-90.5254
 11
-36.3128
 21
-93.6441
  0
LINE
  8
0
 10
-36.3128
 20
-93.6441
 11
-35.3438
 21
-96.6264
  0
LINE
  8
0
 10
-35.3438
 20
-96.6264
 11
-33.7759
 21
-99.3422
  0
LINE
  8
0
 10
-33.7759
 20
-99.3422
 11
-31.6776
 21
-101.673
  0
LINE
  8
0
 10
-31.6776
 20
-101.673
 11
-29.1406
 21
-103.516
  0
LINE
  8
0
 10
-29.1406
 20
-103.516
 11
-26.2759
 21
-104.791
  0
LINE
  8
0
 10
-26.2759
 20
-104.791
 11
-21.6406
 21
-105.525
  0
LINE
  8
0
 10
-21.6406
 20
-105.525
 11
58.7865
 21
-105.525
  0
LINE
  8
0
 10
58.7865
 20
-105.525
 11
122.541
 21
-119.164
  0
LINE
  8
0
 10
122.541
 20
-119.164
 11
125.659
 21
-119.496
  0
LINE
  8
0
 10
125.659
 20
-119.496
 11
128.673
 21
-119.194
  0
LINE
  8
0
 10
-27.8399
 20
16.9538
 11
-28.1466
 21
17.1101
  0
LINE
  8
0
 10
-28.1466
 20
17.1101
 11
-28.3899
 21
17.3534
  0
LINE
  8
0
 10
-28.3899
 20
17.3534
 11
-28.5462
 21
17.6601
  0
LINE
  8
0
 10
-28.5462
 20
17.6601
 11
-28.6
 21
18
  0
LINE
  8
0
 10
-28.6
 20
18
 11
-28.5462
 21
18.3399
  0
LINE
  8
0
 10
-28.5462
 20
18.3399
 11
-28.3899
 21
18.6466
  0
LINE
  8
0
 10
-28.3899
 20
18.6466
 11
-28.1466
 21
18.8899
  0
LINE
  8
0
 10
-28.1466
 20
18.8899
 11
-27.8399
 21
19.0462
  0
LINE
  8
0
 10
-27.8399
 20
19.0462
 11
-27.5
 21
19.1
  0
LINE
  8
0
 10
-27.5
 20
19.1
 11
-27.1601
 21
19.0462
  0
LINE
  8
0
 10
-27.1601
 20
19.0462
 11
-26.8534
 21
18.8899
  0
LINE
  8
0
 10
-26.8534
 20
18.8899
 11
-26.6101
 21
18.6466
  0
LINE
  8
0
 10
-26.6101
 20
18.6466
 11
-26.4538
 21
18.3399
  0
LINE
  8
0
 10
-26.4538
 20
18.3399
 11
-26.4
 21
18
  0
LINE
  8
0
 10
-26.4
 20
18
 11
-26.4538
 21
17.6601
  0
LINE
  8
0
 10
-26.4538
 20
17.6601
 11
-26.6101
 21
17.3534
  0
LINE
  8
0
 10
-26.6101
 20
17.3534
 11
-26.8534
 21
17.1101
  0
LINE
  8
0
 10
-26.8534
 20
17.1101
 11
-27.1601
 21
16.9538
  0
LINE
  8
0
 10
-27.1601
 20
16.9538
 11
-27.5
 21
16.9
  0
LINE
  8
0
 10
-27.5
 20
16.9
 11
-27.8399
 21
16.9538
  0
LINE
  8
0
 10
319.66
 20
16.9538
 11
319.353
 21
17.1101
  0
LINE
  8
0
 10
319.353
 20
17.1101
 11
319.11
 21
17.3534
  0
LINE
  8
0
 10
319.11
 20
17.3534
 11
318.954
 21
17.6601
  0
LINE
  8
0
 10
318.954
 20
17.6601
 11
318.9
 21
18
  0
LINE
  8
0
 10
318.9
 20
18
 11
318.954
 21
18.3399
  0
LINE
  8
0
 10
318.954
 20
18.3399
 11
319.11
 21
18.6466
  0
LINE
  8
0
 10
319.11
 20
18.6466
 11
319.353
 21
18.8899
  0
LINE
  8
0
 10
319.353
 20
18.8899
 11
319.66
 21
19.0462
  0
LINE
  8
0
 10
319.66
 20
19.0462
 11
320
 21
19.1
  0
LINE
  8
0
 10
320
 20
19.1
 11
320.34
 21
19.0462
  0
LINE
  8
0
 10
320.34
 20
19.0462
 11
320.647
 21
18.8899
  0
LINE
  8
0
 10
320.647
 20
18.8899
 11
320.89
 21
18.6466
  0
LINE
  8
0
 10
320.89
 20
18.6466
 11
321.046
 21
18.3399
  0
LINE
  8
0
 10
321.046
 20
18.3399
 11
321.1
 21
18
  0
LINE
  8
0
 10
321.1
 20
18
 11
321.046
 21
17.6601
  0
LINE
  8
0
 10
321.046
 20
17.6601
 11
320.89
 21
17.3534
  0
LINE
  8
0
 10
320.89
 20
17.3534
 11
320.647
 21
17.1101
  0
LINE
  8
0
 10
320.647
 20
17.1101
 11
320.34
 21
16.9538
  0
LINE
  8
0
 10
320.34
 20
16.9538
 11
320
 21
16.9
  0
LINE
  8
0
 10
320
 20
16.9
 11
319.66
 21
16.9538
  0
LINE
  8
0
 10
199.66
 20
16.9538
 11
199.353
 21
17.1101
  0
LINE
  8
0
 10
199.353
 20
17.1101
 11
199.11
 21
17.3534
  0
LINE
  8
0
 10
199.11
 20
17.3534
 11
198.954
 21
17.6601
  0
LINE
  8
0
 10
198.954
 20
17.6601
 11
198.9
 21
18
  0
LINE
  8
0
 10
198.9
 20
18
 11
198.954
 21
18.3399
  0
LINE
  8
0
 10
198.954
 20
18.3399
 11
199.11
 21
18.6466
  0
LINE
  8
0
 10
199.11
 20
18.6466
 11
199.353
 21
18.8899
  0
LINE
  8
0
 10
199.353
 20
18.8899
 11
199.66
 21
19.0462
  0
LINE
  8
0
 10
199.66
 20
19.0462
 11
200
 21
19.1
  0
LINE
  8
0
 10
200
 20
19.1
 11
200.34
 21
19.0462
  0
LINE
  8
0
 10
200.34
 20
19.0462
 11
200.647
 21
18.8899
  0
LINE
  8
0
 10
200.647
 20
18.8899
 11
200.89
 21
18.6466
  0
LINE
  8
0
 10
200.89
 20
18.6466
 11
201.046
 21
18.3399
  0
LINE
  8
0
 10
201.046
 20
18.3399
 11
201.1
 21
18
  0
LINE
  8
0
 10
201.1
 20
18
 11
201.046
 21
17.6601
  0
LINE
  8
0
 10
201.046
 20
17.6601
 11
200.89
 21
17.3534
  0
LINE
  8
0
 10
200.89
 20
17.3534
 11
200.647
 21
17.1101
  0
LINE
  8
0
 10
200.647
 20
17.1101
 11
200.34
 21
16.9538
  0
LINE
  8
0
 10
200.34
 20
16.9538
 11
200
 21
16.9
  0
LINE
  8
0
 10
200
 20
16.9
 11
199.66
 21
16.9538
  0
LINE
  8
0
 10
47.6601
 20
16.9538
 11
47.3534
 21
17.1101
  0
LINE
  8
0
 10
47.3534
 20
17.1101
 11
47.1101
 21
17.3534
  0
LINE
  8
0
 10
47.1101
 20
17.3534
 11
46.9538
 21
17.6601
  0
LINE
  8
0
 10
46.9538
 20
17.6601
 11
46.9
 21
18
  0
LINE
  8
0
 10
46.9
 20
18
 11
46.9538
 21
18.3399
  0
LINE
  8
0
 10
46.9538
 20
18.3399
 11
47.1101
 21
18.6466
  0
LINE
  8
0
 10
47.1101
 20
18.6466
 11
47.3534
 21
18.8899
  0
LINE
  8
0
 10
47.3534
 20
18.8899
 11
47.6601
 21
19.0462
  0
LINE
  8
0
 10
47.6601
 20
19.0462
 11
48
 21
19.1
  0
LINE
  8
0
 10
48
 20
19.1
 11
48.3399
 21
19.0462
  0
LINE
  8
0
 10
48.3399
 20
19.0462
 11
48.6466
 21
18.8899
  0
LINE
  8
0
 10
48.6466
 20
18.8899
 11
48.8899
 21
18.6466
  0
LINE
  8
0
 10
48.8899
 20
18.6466
 11
49.0462
 21
18.3399
  0
LINE
  8
0
 10
49.0462
 20
18.3399
 11
49.1
 21
18
  0
LINE
  8
0
 10
49.1
 20
18
 11
49.0462
 21
17.6601
  0
LINE
  8
0
 10
49.0462
 20
17.6601
 11
48.8899
 21
17.3534
  0
LINE
  8
0
 10
48.8899
 20
17.3534
 11
48.6466
 21
17.1101
  0
LINE
  8
0
 10
48.6466
 20
17.1101
 11
48.3399
 21
16.9538
  0
LINE
  8
0
 10
48.3399
 20
16.9538
 11
48
 21
16.9
  0
LINE
  8
0
 10
48
 20
16.9
 11
47.6601
 21
16.9538
  0
LINE
  8
0
 10
295.086
 20
-42.917
 11
295.086
 21
-23.8662
  0
LINE
  8
0
 10
295.086
 20
-23.8662
 11
290.336
 21
-23.8662
  0
LINE
  8
0
 10
290.336
 20
-23.8662
 11
290.336
 21
-4.81641
  0
LINE
  8
0
 10
290.336
 20
-4.81641
 11
285.576
 21
-4.81641
  0
LINE
  8
0
 10
285.576
 20
-4.81641
 11
285.596
 21
14.4434
  0
LINE
  8
0
 10
285.596
 20
14.4434
 11
304.736
 21
14.4434
  0
LINE
  8
0
 10
304.736
 20
14.4434
 11
304.736
 21
-4.69629
  0
LINE
  8
0
 10
304.736
 20
-4.69629
 11
309.496
 21
-4.69629
  0
LINE
  8
0
 10
309.496
 20
-4.69629
 11
309.496
 21
-23.7471
  0
LINE
  8
0
 10
309.496
 20
-23.7471
 11
314.246
 21
-23.7471
  0
LINE
  8
0
 10
314.246
 20
-23.7471
 11
314.246
 21
-42.917
  0
LINE
  8
0
 10
314.246
 20
-42.917
 11
295.086
 21
-42.917
  0
LINE
  8
0
 10
35.9766
 20
-85.3467
 11
39.9258
 21
-66.7471
  0
LINE
  8
0
 10
39.9258
 20
-66.7471
 11
6.63574
 21
-66.7471
  0
LINE
  8
0
 10
6.63574
 20
-66.7471
 11
6.62598
 21
-85.7861
  0
LINE
  8
0
 10
6.62598
 20
-85.7861
 11
-22.084
 21
-85.7666
  0
LINE
  8
0
 10
-22.084
 20
-85.7666
 11
-22.084
 21
-47.5469
  0
LINE
  8
0
 10
-22.084
 20
-47.5469
 11
-17.9336
 21
-47.5469
  0
LINE
  8
0
 10
-17.9336
 20
-47.5469
 11
-17.9336
 21
-28.4971
  0
LINE
  8
0
 10
-17.9336
 20
-28.4971
 11
-13.7637
 21
-28.4971
  0
LINE
  8
0
 10
-13.7637
 20
-28.4971
 11
-13.7637
 21
-9.44629
  0
LINE
  8
0
 10
-13.7637
 20
-9.44629
 11
-9.58398
 21
-9.44629
  0
LINE
  8
0
 10
-9.58398
 20
-9.44629
 11
-9.58398
 21
9.71387
  0
LINE
  8
0
 10
-9.58398
 20
9.71387
 11
31.7559
 21
9.71387
  0
LINE
  8
0
 10
31.7559
 20
9.71387
 11
32.4561
 21
13.0137
  0
LINE
  8
0
 10
32.4561
 20
13.0137
 11
125.956
 21
-6.88672
  0
LINE
  8
0
 10
125.956
 20
-6.88672
 11
121.956
 21
-25.6865
  0
LINE
  8
0
 10
121.956
 20
-25.6865
 11
112.556
 21
-23.6865
  0
LINE
  8
0
 10
112.556
 20
-23.6865
 11
108.606
 21
-42.1963
  0
LINE
  8
0
 10
108.606
 20
-42.1963
 11
113.266
 21
-43.1865
  0
LINE
  8
0
 10
113.266
 20
-43.1865
 11
109.296
 21
-61.8262
  0
LINE
  8
0
 10
109.296
 20
-61.8262
 11
118.626
 21
-63.8066
  0
LINE
  8
0
 10
118.626
 20
-63.8066
 11
114.656
 21
-82.4365
  0
LINE
  8
0
 10
114.656
 20
-82.4365
 11
123.976
 21
-84.417
  0
LINE
  8
0
 10
123.976
 20
-84.417
 11
119.996
 21
-103.217
  0
LINE
  8
0
 10
119.996
 20
-103.217
 11
35.9766
 21
-85.3467
  0
LINE
  8
0
 10
132.976
 20
-83.7266
 11
142.326
 21
-81.7363
  0
LINE
  8
0
 10
142.326
 20
-81.7363
 11
138.376
 21
-63.2363
  0
LINE
  8
0
 10
138.376
 20
-63.2363
 11
133.736
 21
-64.2266
  0
LINE
  8
0
 10
133.736
 20
-64.2266
 11
129.776
 21
-45.5967
  0
LINE
  8
0
 10
129.776
 20
-45.5967
 11
125.086
 21
-46.5967
  0
LINE
  8
0
 10
125.086
 20
-46.5967
 11
121.106
 21
-27.8467
  0
LINE
  8
0
 10
121.106
 20
-27.8467
 11
130.446
 21
-25.8564
  0
LINE
  8
0
 10
130.446
 20
-25.8564
 11
126.476
 21
-7.24707
  0
LINE
  8
0
 10
126.476
 20
-7.24707
 11
219.756
 21
12.623
  0
LINE
  8
0
 10
219.756
 20
12.623
 11
220.366
 21
9.63379
  0
LINE
  8
0
 10
220.366
 20
9.63379
 11
280.946
 21
9.66309
  0
LINE
  8
0
 10
280.946
 20
9.66309
 11
280.946
 21
-9.43652
  0
LINE
  8
0
 10
280.946
 20
-9.43652
 11
285.096
 21
-9.43652
  0
LINE
  8
0
 10
285.096
 20
-9.43652
 11
285.096
 21
-28.5068
  0
LINE
  8
0
 10
285.096
 20
-28.5068
 11
289.266
 21
-28.5068
  0
LINE
  8
0
 10
289.266
 20
-28.5068
 11
289.266
 21
-47.6865
  0
LINE
  8
0
 10
289.266
 20
-47.6865
 11
270.216
 21
-47.6865
  0
LINE
  8
0
 10
270.216
 20
-47.6865
 11
270.216
 21
-66.7363
  0
LINE
  8
0
 10
270.216
 20
-66.7363
 11
213.636
 21
-66.7363
  0
LINE
  8
0
 10
213.636
 20
-66.7363
 11
212.366
 21
-67.0068
  0
LINE
  8
0
 10
212.366
 20
-67.0068
 11
216.316
 21
-85.627
  0
LINE
  8
0
 10
216.316
 20
-85.627
 11
136.986
 21
-102.517
  0
LINE
  8
0
 10
136.986
 20
-102.517
 11
132.976
 21
-83.7266
  0
LINE
  8
0
 10
-27.8399
 20
-24.0462
 11
-28.1466
 21
-23.8899
  0
LINE
  8
0
 10
-28.1466
 20
-23.8899
 11
-28.3899
 21
-23.6466
  0
LINE
  8
0
 10
-28.3899
 20
-23.6466
 11
-28.5462
 21
-23.3399
  0
LINE
  8
0
 10
-28.5462
 20
-23.3399
 11
-28.6
 21
-23
  0
LINE
  8
0
 10
-28.6
 20
-23
 11
-28.5462
 21
-22.6601
  0
LINE
  8
0
 10
-28.5462
 20
-22.6601
 11
-28.3899
 21
-22.3534
  0
LINE
  8
0
 10
-28.3899
 20
-22.3534
 11
-28.1466
 21
-22.1101
  0
LINE
  8
0
 10
-28.1466
 20
-22.1101
 11
-27.8399
 21
-21.9538
  0
LINE
  8
0
 10
-27.8399
 20
-21.9538
 11
-27.5
 21
-21.9
  0
LINE
  8
0
 10
-27.5
 20
-21.9
 11
-27.1601
 21
-21.9538
  0
LINE
  8
0
 10
-27.1601
 20
-21.9538
 11
-26.8534
 21
-22.1101
  0
LINE
  8
0
 10
-26.8534
 20
-22.1101
 11
-26.6101
 21
-22.3534
  0
LINE
  8
0
 10
-26.6101
 20
-22.3534
 11
-26.4538
 21
-22.6601
  0
LINE
  8
0
 10
-26.4538
 20
-22.6601
 11
-26.4
 21
-23
  0
LINE
  8
0
 10
-26.4
 20
-23
 11
-26.4538
 21
-23.3399
  0
LINE
  8
0
 10
-26.4538
 20
-23.3399
 11
-26.6101
 21
-23.6466
  0
LINE
  8
0
 10
-26.6101
 20
-23.6466
 11
-26.8534
 21
-23.8899
  0
LINE
  8
0
 10
-26.8534
 20
-23.8899
 11
-27.1601
 21
-24.0462
  0
LINE
  8
0
 10
-27.1601
 20
-24.0462
 11
-27.5
 21
-24.1
  0
LINE
  8
0
 10
-27.5
 20
-24.1
 11
-27.8399
 21
-24.0462
  0
LINE
  8
0
 10
319.66
 20
-24.0462
 11
319.353
 21
-23.8899
  0
LINE
  8
0
 10
319.353
 20
-23.8899
 11
319.11
 21
-23.6466
  0
LINE
  8
0
 10
319.11
 20
-23.6466
 11
318.954
 21
-23.3399
  0
LINE
  8
0
 10
318.954
 20
-23.3399
 11
318.9
 21
-23
  0
LINE
  8
0
 10
318.9
 20
-23
 11
318.954
 21
-22.6601
  0
LINE
  8
0
 10
318.954
 20
-22.6601
 11
319.11
 21
-22.3534
  0
LINE
  8
0
 10
319.11
 20
-22.3534
 11
319.353
 21
-22.1101
  0
LINE
  8
0
 10
319.353
 20
-22.1101
 11
319.66
 21
-21.9538
  0
LINE
  8
0
 10
319.66
 20
-21.9538
 11
320
 21
-21.9
  0
LINE
  8
0
 10
320
 20
-21.9
 11
320.34
 21
-21.9538
  0
LINE
  8
0
 10
320.34
 20
-21.9538
 11
320.647
 21
-22.1101
  0
LINE
  8
0
 10
320.647
 20
-22.1101
 11
320.89
 21
-22.3534
  0
LINE
  8
0
 10
320.89
 20
-22.3534
 11
321.046
 21
-22.6601
  0
LINE
  8
0
 10
321.046
 20
-22.6601
 11
321.1
 21
-23
  0
LINE
  8
0
 10
321.1
 20
-23
 11
321.046
 21
-23.3399
  0
LINE
  8
0
 10
321.046
 20
-23.3399
 11
320.89
 21
-23.6466
  0
LINE
  8
0
 10
320.89
 20
-23.6466
 11
320.647
 21
-23.8899
  0
LINE
  8
0
 10
320.647
 20
-23.8899
 11
320.34
 21
-24.0462
  0
LINE
  8
0
 10
320.34
 20
-24.0462
 11
320
 21
-24.1
  0
LINE
  8
0
 10
320
 20
-24.1
 11
319.66
 21
-24.0462
  0
LINE
  8
0
 10
-27.8399
 20
-54.0462
 11
-28.1466
 21
-53.8899
  0
LINE
  8
0
 10
-28.1466
 20
-53.8899
 11
-28.3899
 21
-53.6466
  0
LINE
  8
0
 10
-28.3899
 20
-53.6466
 11
-28.5462
 21
-53.3399
  0
LINE
  8
0
 10
-28.5462
 20
-53.3399
 11
-28.6
 21
-53
  0
LINE
  8
0
 10
-28.6
 20
-53
 11
-28.5462
 21
-52.6601
  0
LINE
  8
0
 10
-28.5462
 20
-52.6601
 11
-28.3899
 21
-52.3534
  0
LINE
  8
0
 10
-28.3899
 20
-52.3534
 11
-28.1466
 21
-52.1101
  0
LINE
  8
0
 10
-28.1466
 20
-52.1101
 11
-27.8399
 21
-51.9538
  0
LINE
  8
0
 10
-27.8399
 20
-51.9538
 11
-27.5
 21
-51.9
  0
LINE
  8
0
 10
-27.5
 20
-51.9
 11
-27.1601
 21
-51.9538
  0
LINE
  8
0
 10
-27.1601
 20
-51.9538
 11
-26.8534
 21
-52.1101
  0
LINE
  8
0
 10
-26.8534
 20
-52.1101
 11
-26.6101
 21
-52.3534
  0
LINE
  8
0
 10
-26.6101
 20
-52.3534
 11
-26.4538
 21
-52.6601
  0
LINE
  8
0
 10
-26.4538
 20
-52.6601
 11
-26.4
 21
-53
  0
LINE
  8
0
 10
-26.4
 20
-53
 11
-26.4538
 21
-53.3399
  0
LINE
  8
0
 10
-26.4538
 20
-53.3399
 11
-26.6101
 21
-53.6466
  0
LINE
  8
0
 10
-26.6101
 20
-53.6466
 11
-26.8534
 21
-53.8899
  0
LINE
  8
0
 10
-26.8534
 20
-53.8899
 11
-27.1601
 21
-54.0462
  0
LINE
  8
0
 10
-27.1601
 20
-54.0462
 11
-27.5
 21
-54.1
  0
LINE
  8
0
 10
-27.5
 20
-54.1
 11
-27.8399
 21
-54.0462
  0
LINE
  8
0
 10
319.66
 20
-54.0462
 11
319.353
 21
-53.8899
  0
LINE
  8
0
 10
319.353
 20
-53.8899
 11
319.11
 21
-53.6466
  0
LINE
  8
0
 10
319.11
 20
-53.6466
 11
318.954
 21
-53.3399
  0
LINE
  8
0
 10
318.954
 20
-53.3399
 11
318.9
 21
-53
  0
LINE
  8
0
 10
318.9
 20
-53
 11
318.954
 21
-52.6601
  0
LINE
  8
0
 10
318.954
 20
-52.6601
 11
319.11
 21
-52.3534
  0
LINE
  8
0
 10
319.11
 20
-52.3534
 11
319.353
 21
-52.1101
  0
LINE
  8
0
 10
319.353
 20
-52.1101
 11
319.66
 21
-51.9538
  0
LINE
  8
0
 10
319.66
 20
-51.9538
 11
320
 21
-51.9
  0
LINE
  8
0
 10
320
 20
-51.9
 11
320.34
 21
-51.9538
  0
LINE
  8
0
 10
320.34
 20
-51.9538
 11
320.647
 21
-52.1101
  0
LINE
  8
0
 10
320.647
 20
-52.1101
 11
320.89
 21
-52.3534
  0
LINE
  8
0
 10
320.89
 20
-52.3534
 11
321.046
 21
-52.6601
  0
LINE
  8
0
 10
321.046
 20
-52.6601
 11
321.1
 21
-53
  0
LINE
  8
0
 10
321.1
 20
-53
 11
321.046
 21
-53.3399
  0
LINE
  8
0
 10
321.046
 20
-53.3399
 11
320.89
 21
-53.6466
  0
LINE
  8
0
 10
320.89
 20
-53.6466
 11
320.647
 21
-53.8899
  0
LINE
  8
0
 10
320.647
 20
-53.8899
 11
320.34
 21
-54.0462
  0
LINE
  8
0
 10
320.34
 20
-54.0462
 11
320
 21
-54.1
  0
LINE
  8
0
 10
320
 20
-54.1
 11
319.66
 21
-54.0462
  0
LINE
  8
0
 10
255.786
 20
-90.5566
 11
255.786
 21
-71.377
  0
LINE
  8
0
 10
255.786
 20
-71.377
 11
274.806
 21
-71.377
  0
LINE
  8
0
 10
274.806
 20
-71.377
 11
274.806
 21
-52.3262
  0
LINE
  8
0
 10
274.806
 20
-52.3262
 11
294.006
 21
-52.3262
  0
LINE
  8
0
 10
294.006
 20
-52.3262
 11
294.006
 21
-71.3867
  0
LINE
  8
0
 10
294.006
 20
-71.3867
 11
313.076
 21
-71.3867
  0
LINE
  8
0
 10
313.076
 20
-71.3867
 11
313.076
 21
-90.5566
  0
LINE
  8
0
 10
313.076
 20
-90.5566
 11
255.786
 21
-90.5566
  0
LINE
  8
0
 10
319.66
 20
-96.5462
 11
319.353
 21
-96.3899
  0
LINE
  8
0
 10
319.353
 20
-96.3899
 11
319.11
 21
-96.1466
  0
LINE
  8
0
 10
319.11
 20
-96.1466
 11
318.954
 21
-95.8399
  0
LINE
  8
0
 10
318.954
 20
-95.8399
 11
318.9
 21
-95.5
  0
LINE
  8
0
 10
318.9
 20
-95.5
 11
318.954
 21
-95.1601
  0
LINE
  8
0
 10
318.954
 20
-95.1601
 11
319.11
 21
-94.8534
  0
LINE
  8
0
 10
319.11
 20
-94.8534
 11
319.353
 21
-94.6101
  0
LINE
  8
0
 10
319.353
 20
-94.6101
 11
319.66
 21
-94.4538
  0
LINE
  8
0
 10
319.66
 20
-94.4538
 11
320
 21
-94.4
  0
LINE
  8
0
 10
320
 20
-94.4
 11
320.34
 21
-94.4538
  0
LINE
  8
0
 10
320.34
 20
-94.4538
 11
320.647
 21
-94.6101
  0
LINE
  8
0
 10
320.647
 20
-94.6101
 11
320.89
 21
-94.8534
  0
LINE
  8
0
 10
320.89
 20
-94.8534
 11
321.046
 21
-95.1601
  0
LINE
  8
0
 10
321.046
 20
-95.1601
 11
321.1
 21
-95.5
  0
LINE
  8
0
 10
321.1
 20
-95.5
 11
321.046
 21
-95.8399
  0
LINE
  8
0
 10
321.046
 20
-95.8399
 11
320.89
 21
-96.1466
  0
LINE
  8
0
 10
320.89
 20
-96.1466
 11
320.647
 21
-96.3899
  0
LINE
  8
0
 10
320.647
 20
-96.3899
 11
320.34
 21
-96.5462
  0
LINE
  8
0
 10
320.34
 20
-96.5462
 11
320
 21
-96.6
  0
LINE
  8
0
 10
320
 20
-96.6
 11
319.66
 21
-96.5462
  0
LINE
  8
0
 10
199.66
 20
-96.5462
 11
199.353
 21
-96.3899
  0
LINE
  8
0
 10
199.353
 20
-96.3899
 11
199.11
 21
-96.1466
  0
LINE
  8
0
 10
199.11
 20
-96.1466
 11
198.954
 21
-95.8399
  0
LINE
  8
0
 10
198.954
 20
-95.8399
 11
198.9
 21
-95.5
  0
LINE
  8
0
 10
198.9
 20
-95.5
 11
198.954
 21
-95.1601
  0
LINE
  8
0
 10
198.954
 20
-95.1601
 11
199.11
 21
-94.8534
  0
LINE
  8
0
 10
199.11
 20
-94.8534
 11
199.353
 21
-94.6101
  0
LINE
  8
0
 10
199.353
 20
-94.6101
 11
199.66
 21
-94.4538
  0
LINE
  8
0
 10
199.66
 20
-94.4538
 11
200
 21
-94.4
  0
LINE
  8
0
 10
200
 20
-94.4
 11
200.34
 21
-94.4538
  0
LINE
  8
0
 10
200.34
 20
-94.4538
 11
200.647
 21
-94.6101
  0
LINE
  8
0
 10
200.647
 20
-94.6101
 11
200.89
 21
-94.8534
  0
LINE
  8
0
 10
200.89
 20
-94.8534
 11
201.046
 21
-95.1601
  0
LINE
  8
0
 10
201.046
 20
-95.1601
 11
201.1
 21
-95.5
  0
LINE
  8
0
 10
201.1
 20
-95.5
 11
201.046
 21
-95.8399
  0
LINE
  8
0
 10
201.046
 20
-95.8399
 11
200.89
 21
-96.1466
  0
LINE
  8
0
 10
200.89
 20
-96.1466
 11
200.647
 21
-96.3899
  0
LINE
  8
0
 10
200.647
 20
-96.3899
 11
200.34
 21
-96.5462
  0
LINE
  8
0
 10
200.34
 20
-96.5462
 11
200
 21
-96.6
  0
LINE
  8
0
 10
200
 20
-96.6
 11
199.66
 21
-96.5462
  0
LINE
  8
0
 10
47.6601
 20
-96.5462
 11
47.3534
 21
-96.3899
  0
LINE
  8
0
 10
47.3534
 20
-96.3899
 11
47.1101
 21
-96.1466
  0
LINE
  8
0
 10
47.1101
 20
-96.1466
 11
46.9538
 21
-95.8399
  0
LINE
  8
0
 10
46.9538
 20
-95.8399
 11
46.9
 21
-95.5
  0
LINE
  8
0
 10
46.9
 20
-95.5
 11
46.9538
 21
-95.1601
  0
LINE
  8
0
 10
46.9538
 20
-95.1601
 11
47.1101
 21
-94.8534
  0
LINE
  8
0
 10
47.1101
 20
-94.8534
 11
47.3534
 21
-94.6101
  0
LINE
  8
0
 10
47.3534
 20
-94.6101
 11
47.6601
 21
-94.4538
  0
LINE
  8
0
 10
47.6601
 20
-94.4538
 11
48
 21
-94.4
  0
LINE
  8
0
 10
48
 20
-94.4
 11
48.3399
 21
-94.4538
  0
LINE
  8
0
 10
48.3399
 20
-94.4538
 11
48.6466
 21
-94.6101
  0
LINE
  8
0
 10
48.6466
 20
-94.6101
 11
48.8899
 21
-94.8534
  0
LINE
  8
0
 10
48.8899
 20
-94.8534
 11
49.0462
 21
-95.1601
  0
LINE
  8
0
 10
49.0462
 20
-95.1601
 11
49.1
 21
-95.5
  0
LINE
  8
0
 10
49.1
 20
-95.5
 11
49.0462
 21
-95.8399
  0
LINE
  8
0
 10
49.0462
 20
-95.8399
 11
48.8899
 21
-96.1466
  0
LINE
  8
0
 10
48.8899
 20
-96.1466
 11
48.6466
 21
-96.3899
  0
LINE
  8
0
 10
48.6466
 20
-96.3899
 11
48.3399
 21
-96.5462
  0
LINE
  8
0
 10
48.3399
 20
-96.5462
 11
48
 21
-96.6
  0
LINE
  8
0
 10
48
 20
-96.6
 11
47.6601
 21
-96.5462
  0
LINE
  8
0
 10
-27.8399
 20
-96.5462
 11
-28.1466
 21
-96.3899
  0
LINE
  8
0
 10
-28.1466
 20
-96.3899
 11
-28.3899
 21
-96.1466
  0
LINE
  8
0
 10
-28.3899
 20
-96.1466
 11
-28.5462
 21
-95.8399
  0
LINE
  8
0
 10
-28.5462
 20
-95.8399
 11
-28.6
 21
-95.5
  0
LINE
  8
0
 10
-28.6
 20
-95.5
 11
-28.5462
 21
-95.1601
  0
LINE
  8
0
 10
-28.5462
 20
-95.1601
 11
-28.3899
 21
-94.8534
  0
LINE
  8
0
 10
-28.3899
 20
-94.8534
 11
-28.1466
 21
-94.6101
  0
LINE
  8
0
 10
-28.1466
 20
-94.6101
 11
-27.8399
 21
-94.4538
  0
LINE
  8
0
 10
-27.8399
 20
-94.4538
 11
-27.5
 21
-94.4
  0
LINE
  8
0
 10
-27.5
 20
-94.4
 11
-27.1601
 21
-94.4538
  0
LINE
  8
0
 10
-27.1601
 20
-94.4538
 11
-26.8534
 21
-94.6101
  0
LINE
  8
0
 10
-26.8534
 20
-94.6101
 11
-26.6101
 21
-94.8534
  0
LINE
  8
0
 10
-26.6101
 20
-94.8534
 11
-26.4538
 21
-95.1601
  0
LINE
  8
0
 10
-26.4538
 20
-95.1601
 11
-26.4
 21
-95.5
  0
LINE
  8
0
 10
-26.4
 20
-95.5
 11
-26.4538
 21
-95.8399
  0
LINE
  8
0
 10
-26.4538
 20
-95.8399
 11
-26.6101
 21
-96.1466
  0
LINE
  8
0
 10
-26.6101
 20
-96.1466
 11
-26.8534
 21
-96.3899
  0
LINE
  8
0
 10
-26.8534
 20
-96.3899
 11
-27.1601
 21
-96.5462
  0
LINE
  8
0
 10
-27.1601
 20
-96.5462
 11
-27.5
 21
-96.6
  0
LINE
  8
0
 10
-27.5
 20
-96.6
 11
-27.8399
 21
-96.5462
  0
ENDSEC
  0
SECTION
  2
OBJECTS
  0
DICTIONARY
  0
ENDSEC
  0
EOF
