  0
SECTION
  2
BLOCKS
  0
ENDSEC
  0
SECTION
  2
ENTITIES
  0
LINE
  8
0
 10
189.783
 20
203.113
 11
316.756
 21
203.113
  0
LINE
  8
0
 10
316.756
 20
203.113
 11
318.669
 21
203.494
  0
LINE
  8
0
 10
318.669
 20
203.494
 11
320.291
 21
204.578
  0
LINE
  8
0
 10
320.291
 20
204.578
 11
321.375
 21
206.2
  0
LINE
  8
0
 10
321.375
 20
206.2
 11
321.756
 21
208.113
  0
LINE
  8
0
 10
321.756
 20
208.113
 11
321.756
 21
315.613
  0
LINE
  8
0
 10
321.756
 20
315.613
 11
321.375
 21
317.527
  0
LINE
  8
0
 10
321.375
 20
317.527
 11
320.291
 21
319.149
  0
LINE
  8
0
 10
320.291
 20
319.149
 11
318.669
 21
320.233
  0
LINE
  8
0
 10
318.669
 20
320.233
 11
316.756
 21
320.613
  0
LINE
  8
0
 10
316.756
 20
320.613
 11
-25.2441
 21
320.613
  0
LINE
  8
0
 10
-25.2441
 20
320.613
 11
-27.1576
 21
320.233
  0
LINE
  8
0
 10
-27.1576
 20
320.233
 11
-28.7797
 21
319.149
  0
LINE
  8
0
 10
-28.7797
 20
319.149
 11
-29.8635
 21
317.527
  0
LINE
  8
0
 10
-29.8635
 20
317.527
 11
-30.2441
 21
315.613
  0
LINE
  8
0
 10
-30.2441
 20
315.613
 11
-30.2441
 21
208.113
  0
LINE
  8
0
 10
-30.2441
 20
208.113
 11
-29.8635
 21
206.2
  0
LINE
  8
0
 10
-29.8635
 20
206.2
 11
-28.7797
 21
204.578
  0
LINE
  8
0
 10
-28.7797
 20
204.578
 11
-27.1576
 21
203.494
  0
LINE
  8
0
 10
-27.1576
 20
203.494
 11
-25.2441
 21
203.113
  0
LINE
  8
0
 10
-25.2441
 20
203.113
 11
61.228
 21
203.113
  0
LINE
  8
0
 10
61.228
 20
203.113
 11
124.412
 21
189.623
  0
LINE
  8
0
 10
124.412
 20
189.623
 11
126.499
 21
189.623
  0
LINE
  8
0
 10
126.499
 20
189.623
 11
189.783
 21
203.113
  0
LINE
  8
0
 10
-25.8899
 20
315.353
 11
-25.8899
 21
316.647
  0
LINE
  8
0
 10
-25.8899
 20
316.647
 11
-24.6601
 21
317.046
  0
LINE
  8
0
 10
-24.6601
 20
317.046
 11
-23.9
 21
316
  0
LINE
  8
0
 10
-23.9
 20
316
 11
-24.6601
 21
314.954
  0
LINE
  8
0
 10
-24.6601
 20
314.954
 11
-25.8899
 21
315.353
  0
LINE
  8
0
 10
316.61
 20
315.353
 11
316.61
 21
316.647
  0
LINE
  8
0
 10
316.61
 20
316.647
 11
317.84
 21
317.046
  0
LINE
  8
0
 10
317.84
 20
317.046
 11
318.6
 21
316
  0
LINE
  8
0
 10
318.6
 20
316
 11
317.84
 21
314.954
  0
LINE
  8
0
 10
317.84
 20
314.954
 11
316.61
 21
315.353
  0
LINE
  8
0
 10
199.11
 20
315.353
 11
199.11
 21
316.647
  0
LINE
  8
0
 10
199.11
 20
316.647
 11
200.34
 21
317.046
  0
LINE
  8
0
 10
200.34
 20
317.046
 11
201.1
 21
316
  0
LINE
  8
0
 10
201.1
 20
316
 11
200.34
 21
314.954
  0
LINE
  8
0
 10
200.34
 20
314.954
 11
199.11
 21
315.353
  0
LINE
  8
0
 10
47.1101
 20
315.353
 11
47.1101
 21
316.647
  0
LINE
  8
0
 10
47.1101
 20
316.647
 11
48.3399
 21
317.046
  0
LINE
  8
0
 10
48.3399
 20
317.046
 11
49.1
 21
316
  0
LINE
  8
0
 10
49.1
 20
316
 11
48.3399
 21
314.954
  0
LINE
  8
0
 10
48.3399
 20
314.954
 11
47.1101
 21
315.353
  0
LINE
  8
0
 10
295.086
 20
257.083
 11
295.086
 21
276.134
  0
LINE
  8
0
 10
295.086
 20
276.134
 11
290.336
 21
276.134
  0
LINE
  8
0
 10
290.336
 20
276.134
 11
290.336
 21
295.184
  0
LINE
  8
0
 10
290.336
 20
295.184
 11
285.576
 21
295.184
  0
LINE
  8
0
 10
285.576
 20
295.184
 11
285.596
 21
314.443
  0
LINE
  8
0
 10
285.596
 20
314.443
 11
304.736
 21
314.443
  0
LINE
  8
0
 10
304.736
 20
314.443
 11
304.736
 21
295.304
  0
LINE
  8
0
 10
304.736
 20
295.304
 11
309.496
 21
295.304
  0
LINE
  8
0
 10
309.496
 20
295.304
 11
309.496
 21
276.253
  0
LINE
  8
0
 10
309.496
 20
276.253
 11
314.246
 21
276.253
  0
LINE
  8
0
 10
314.246
 20
276.253
 11
314.246
 21
257.083
  0
LINE
  8
0
 10
314.246
 20
257.083
 11
295.086
 21
257.083
  0
LINE
  8
0
 10
35.9766
 20
214.653
 11
39.9258
 21
233.253
  0
LINE
  8
0
 10
39.9258
 20
233.253
 11
6.63574
 21
233.253
  0
LINE
  8
0
 10
6.63574
 20
233.253
 11
6.62598
 21
214.214
  0
LINE
  8
0
 10
6.62598
 20
214.214
 11
-22.084
 21
214.233
  0
LINE
  8
0
 10
-22.084
 20
214.233
 11
-22.084
 21
252.453
  0
LINE
  8
0
 10
-22.084
 20
252.453
 11
-17.9336
 21
252.453
  0
LINE
  8
0
 10
-17.9336
 20
252.453
 11
-17.9336
 21
271.503
  0
LINE
  8
0
 10
-17.9336
 20
271.503
 11
-13.7637
 21
271.503
  0
LINE
  8
0
 10
-13.7637
 20
271.503
 11
-13.7637
 21
290.554
  0
LINE
  8
0
 10
-13.7637
 20
290.554
 11
-9.58398
 21
290.554
  0
LINE
  8
0
 10
-9.58398
 20
290.554
 11
-9.58398
 21
309.714
  0
LINE
  8
0
 10
-9.58398
 20
309.714
 11
31.7559
 21
309.714
  0
LINE
  8
0
 10
31.7559
 20
309.714
 11
32.4561
 21
313.014
  0
LINE
  8
0
 10
32.4561
 20
313.014
 11
125.956
 21
293.113
  0
LINE
  8
0
 10
125.956
 20
293.113
 11
121.956
 21
274.313
  0
LINE
  8
0
 10
121.956
 20
274.313
 11
112.556
 21
276.313
  0
LINE
  8
0
 10
112.556
 20
276.313
 11
108.606
 21
257.804
  0
LINE
  8
0
 10
108.606
 20
257.804
 11
113.266
 21
256.813
  0
LINE
  8
0
 10
113.266
 20
256.813
 11
109.296
 21
238.174
  0
LINE
  8
0
 10
109.296
 20
238.174
 11
118.626
 21
236.193
  0
LINE
  8
0
 10
118.626
 20
236.193
 11
114.656
 21
217.563
  0
LINE
  8
0
 10
114.656
 20
217.563
 11
123.976
 21
215.583
  0
LINE
  8
0
 10
123.976
 20
215.583
 11
119.996
 21
196.783
  0
LINE
  8
0
 10
119.996
 20
196.783
 11
35.9766
 21
214.653
  0
LINE
  8
0
 10
132.976
 20
216.273
 11
142.326
 21
218.264
  0
LINE
  8
0
 10
142.326
 20
218.264
 11
138.376
 21
236.764
  0
LINE
  8
0
 10
138.376
 20
236.764
 11
133.736
 21
235.773
  0
LINE
  8
0
 10
133.736
 20
235.773
 11
129.776
 21
254.403
  0
LINE
  8
0
 10
129.776
 20
254.403
 11
125.086
 21
253.403
  0
LINE
  8
0
 10
125.086
 20
253.403
 11
121.106
 21
272.153
  0
LINE
  8
0
 10
121.106
 20
272.153
 11
130.446
 21
274.144
  0
LINE
  8
0
 10
130.446
 20
274.144
 11
126.476
 21
292.753
  0
LINE
  8
0
 10
126.476
 20
292.753
 11
219.756
 21
312.623
  0
LINE
  8
0
 10
219.756
 20
312.623
 11
220.366
 21
309.634
  0
LINE
  8
0
 10
220.366
 20
309.634
 11
280.946
 21
309.663
  0
LINE
  8
0
 10
280.946
 20
309.663
 11
280.946
 21
290.563
  0
LINE
  8
0
 10
280.946
 20
290.563
 11
285.096
 21
290.563
  0
LINE
  8
0
 10
285.096
 20
290.563
 11
285.096
 21
271.493
  0
LINE
  8
0
 10
285.096
 20
271.493
 11
289.266
 21
271.493
  0
LINE
  8
0
 10
289.266
 20
271.493
 11
289.266
 21
252.313
  0
LINE
  8
0
 10
289.266
 20
252.313
 11
270.216
 21
252.313
  0
LINE
  8
0
 10
270.216
 20
252.313
 11
270.216
 21
233.264
  0
LINE
  8
0
 10
270.216
 20
233.264
 11
213.636
 21
233.264
  0
LINE
  8
0
 10
213.636
 20
233.264
 11
212.366
 21
232.993
  0
LINE
  8
0
 10
212.366
 20
232.993
 11
216.316
 21
214.373
  0
LINE
  8
0
 10
216.316
 20
214.373
 11
136.986
 21
197.483
  0
LINE
  8
0
 10
136.986
 20
197.483
 11
132.976
 21
216.273
  0
LINE
  8
0
 10
255.786
 20
209.443
 11
255.786
 21
228.623
  0
LINE
  8
0
 10
255.786
 20
228.623
 11
274.806
 21
228.623
  0
LINE
  8
0
 10
274.806
 20
228.623
 11
274.806
 21
247.674
  0
LINE
  8
0
 10
274.806
 20
247.674
 11
294.006
 21
247.674
  0
LINE
  8
0
 10
294.006
 20
247.674
 11
294.006
 21
228.613
  0
LINE
  8
0
 10
294.006
 20
228.613
 11
313.076
 21
228.613
  0
LINE
  8
0
 10
313.076
 20
228.613
 11
313.076
 21
209.443
  0
LINE
  8
0
 10
313.076
 20
209.443
 11
255.786
 21
209.443
  0
LINE
  8
0
 10
47.1101
 20
205.853
 11
47.1101
 21
207.147
  0
LINE
  8
0
 10
47.1101
 20
207.147
 11
48.3399
 21
207.546
  0
LINE
  8
0
 10
48.3399
 20
207.546
 11
49.1
 21
206.5
  0
LINE
  8
0
 10
49.1
 20
206.5
 11
48.3399
 21
205.454
  0
LINE
  8
0
 10
48.3399
 20
205.454
 11
47.1101
 21
205.853
  0
LINE
  8
0
 10
199.11
 20
205.853
 11
199.11
 21
207.147
  0
LINE
  8
0
 10
199.11
 20
207.147
 11
200.34
 21
207.546
  0
LINE
  8
0
 10
200.34
 20
207.546
 11
201.1
 21
206.5
  0
LINE
  8
0
 10
201.1
 20
206.5
 11
200.34
 21
205.454
  0
LINE
  8
0
 10
200.34
 20
205.454
 11
199.11
 21
205.853
  0
LINE
  8
0
 10
316.61
 20
205.853
 11
316.61
 21
207.147
  0
LINE
  8
0
 10
316.61
 20
207.147
 11
317.84
 21
207.546
  0
LINE
  8
0
 10
317.84
 20
207.546
 11
318.6
 21
206.5
  0
LINE
  8
0
 10
318.6
 20
206.5
 11
317.84
 21
205.454
  0
LINE
  8
0
 10
317.84
 20
205.454
 11
316.61
 21
205.853
  0
LINE
  8
0
 10
-25.8899
 20
205.853
 11
-25.8899
 21
207.147
  0
LINE
  8
0
 10
-25.8899
 20
207.147
 11
-24.6601
 21
207.546
  0
LINE
  8
0
 10
-24.6601
 20
207.546
 11
-23.9
 21
206.5
  0
LINE
  8
0
 10
-23.9
 20
206.5
 11
-24.6601
 21
205.454
  0
LINE
  8
0
 10
-24.6601
 20
205.454
 11
-25.8899
 21
205.853
  0
ENDSEC
  0
SECTION
  2
OBJECTS
  0
DICTIONARY
  0
ENDSEC
  0
EOF
