  0
SECTION
  2
BLOCKS
  0
ENDSEC
  0
SECTION
  2
ENTITIES
  0
LINE
  8
0
 10
189.783
 20
53.1133
 11
316.756
 21
53.1133
  0
LINE
  8
0
 10
316.756
 20
53.1133
 11
318.669
 21
53.4939
  0
LINE
  8
0
 10
318.669
 20
53.4939
 11
320.291
 21
54.5777
  0
LINE
  8
0
 10
320.291
 20
54.5777
 11
321.375
 21
56.1999
  0
LINE
  8
0
 10
321.375
 20
56.1999
 11
321.756
 21
58.1133
  0
LINE
  8
0
 10
321.756
 20
58.1133
 11
321.756
 21
165.613
  0
LINE
  8
0
 10
321.756
 20
165.613
 11
321.375
 21
167.527
  0
LINE
  8
0
 10
321.375
 20
167.527
 11
320.291
 21
169.149
  0
LINE
  8
0
 10
320.291
 20
169.149
 11
318.669
 21
170.233
  0
LINE
  8
0
 10
318.669
 20
170.233
 11
316.756
 21
170.613
  0
LINE
  8
0
 10
316.756
 20
170.613
 11
-25.2441
 21
170.613
  0
LINE
  8
0
 10
-25.2441
 20
170.613
 11
-27.1576
 21
170.233
  0
LINE
  8
0
 10
-27.1576
 20
170.233
 11
-28.7797
 21
169.149
  0
LINE
  8
0
 10
-28.7797
 20
169.149
 11
-29.8635
 21
167.527
  0
LINE
  8
0
 10
-29.8635
 20
167.527
 11
-30.2441
 21
165.613
  0
LINE
  8
0
 10
-30.2441
 20
165.613
 11
-30.2441
 21
58.1133
  0
LINE
  8
0
 10
-30.2441
 20
58.1133
 11
-29.8635
 21
56.1999
  0
LINE
  8
0
 10
-29.8635
 20
56.1999
 11
-28.7797
 21
54.5777
  0
LINE
  8
0
 10
-28.7797
 20
54.5777
 11
-27.1576
 21
53.4939
  0
LINE
  8
0
 10
-27.1576
 20
53.4939
 11
-25.2441
 21
53.1133
  0
LINE
  8
0
 10
-25.2441
 20
53.1133
 11
61.228
 21
53.1133
  0
LINE
  8
0
 10
61.228
 20
53.1133
 11
124.412
 21
39.6229
  0
LINE
  8
0
 10
124.412
 20
39.6229
 11
126.499
 21
39.6226
  0
LINE
  8
0
 10
126.499
 20
39.6226
 11
189.783
 21
53.1133
  0
LINE
  8
0
 10
-25.8899
 20
165.353
 11
-25.8899
 21
166.647
  0
LINE
  8
0
 10
-25.8899
 20
166.647
 11
-24.6601
 21
167.046
  0
LINE
  8
0
 10
-24.6601
 20
167.046
 11
-23.9
 21
166
  0
LINE
  8
0
 10
-23.9
 20
166
 11
-24.6601
 21
164.954
  0
LINE
  8
0
 10
-24.6601
 20
164.954
 11
-25.8899
 21
165.353
  0
LINE
  8
0
 10
316.61
 20
165.353
 11
316.61
 21
166.647
  0
LINE
  8
0
 10
316.61
 20
166.647
 11
317.84
 21
167.046
  0
LINE
  8
0
 10
317.84
 20
167.046
 11
318.6
 21
166
  0
LINE
  8
0
 10
318.6
 20
166
 11
317.84
 21
164.954
  0
LINE
  8
0
 10
317.84
 20
164.954
 11
316.61
 21
165.353
  0
LINE
  8
0
 10
199.11
 20
165.353
 11
199.11
 21
166.647
  0
LINE
  8
0
 10
199.11
 20
166.647
 11
200.34
 21
167.046
  0
LINE
  8
0
 10
200.34
 20
167.046
 11
201.1
 21
166
  0
LINE
  8
0
 10
201.1
 20
166
 11
200.34
 21
164.954
  0
LINE
  8
0
 10
200.34
 20
164.954
 11
199.11
 21
165.353
  0
LINE
  8
0
 10
47.1101
 20
165.353
 11
47.1101
 21
166.647
  0
LINE
  8
0
 10
47.1101
 20
166.647
 11
48.3399
 21
167.046
  0
LINE
  8
0
 10
48.3399
 20
167.046
 11
49.1
 21
166
  0
LINE
  8
0
 10
49.1
 20
166
 11
48.3399
 21
164.954
  0
LINE
  8
0
 10
48.3399
 20
164.954
 11
47.1101
 21
165.353
  0
LINE
  8
0
 10
288.197
 20
147.812
 11
288.197
 21
161.713
  0
LINE
  8
0
 10
288.197
 20
161.713
 11
302.096
 21
161.713
  0
LINE
  8
0
 10
302.096
 20
161.713
 11
302.096
 21
147.812
  0
LINE
  8
0
 10
302.096
 20
147.812
 11
288.197
 21
147.812
  0
LINE
  8
0
 10
31.6865
 20
146.189
 11
34.5762
 21
159.786
  0
LINE
  8
0
 10
34.5762
 20
159.786
 11
48.1729
 21
156.896
  0
LINE
  8
0
 10
48.1729
 20
156.896
 11
45.2832
 21
143.3
  0
LINE
  8
0
 10
45.2832
 20
143.3
 11
31.6865
 21
146.189
  0
LINE
  8
0
 10
204.134
 20
156.587
 11
217.73
 21
159.477
  0
LINE
  8
0
 10
217.73
 20
159.477
 11
220.62
 21
145.881
  0
LINE
  8
0
 10
220.62
 20
145.881
 11
207.024
 21
142.991
  0
LINE
  8
0
 10
207.024
 20
142.991
 11
204.134
 21
156.587
  0
LINE
  8
0
 10
245.334
 20
143.05
 11
245.334
 21
156.95
  0
LINE
  8
0
 10
245.334
 20
156.95
 11
259.234
 21
156.95
  0
LINE
  8
0
 10
259.234
 20
156.95
 11
259.234
 21
143.05
  0
LINE
  8
0
 10
259.234
 20
143.05
 11
245.334
 21
143.05
  0
LINE
  8
0
 10
264.384
 20
143.05
 11
264.384
 21
156.95
  0
LINE
  8
0
 10
264.384
 20
156.95
 11
278.284
 21
156.95
  0
LINE
  8
0
 10
278.284
 20
156.95
 11
278.284
 21
143.05
  0
LINE
  8
0
 10
278.284
 20
143.05
 11
264.384
 21
143.05
  0
LINE
  8
0
 10
226.284
 20
143.05
 11
226.284
 21
156.95
  0
LINE
  8
0
 10
226.284
 20
156.95
 11
240.184
 21
156.95
  0
LINE
  8
0
 10
240.184
 20
156.95
 11
240.184
 21
143.05
  0
LINE
  8
0
 10
240.184
 20
143.05
 11
226.284
 21
143.05
  0
LINE
  8
0
 10
12.0996
 20
143.05
 11
12.0996
 21
156.95
  0
LINE
  8
0
 10
12.0996
 20
156.95
 11
26
 21
156.95
  0
LINE
  8
0
 10
26
 20
156.95
 11
26
 21
143.05
  0
LINE
  8
0
 10
26
 20
143.05
 11
12.0996
 21
143.05
  0
LINE
  8
0
 10
-6.9502
 20
143.05
 11
-6.9502
 21
156.95
  0
LINE
  8
0
 10
-6.9502
 20
156.95
 11
6.9502
 21
156.95
  0
LINE
  8
0
 10
6.9502
 20
156.95
 11
6.9502
 21
143.05
  0
LINE
  8
0
 10
6.9502
 20
143.05
 11
-6.9502
 21
143.05
  0
LINE
  8
0
 10
50.3203
 20
142.229
 11
53.21
 21
155.825
  0
LINE
  8
0
 10
53.21
 20
155.825
 11
66.8066
 21
152.936
  0
LINE
  8
0
 10
66.8066
 20
152.936
 11
63.917
 21
139.339
  0
LINE
  8
0
 10
63.917
 20
139.339
 11
50.3203
 21
142.229
  0
LINE
  8
0
 10
185.5
 20
152.626
 11
199.097
 21
155.517
  0
LINE
  8
0
 10
199.097
 20
155.517
 11
201.987
 21
141.92
  0
LINE
  8
0
 10
201.987
 20
141.92
 11
188.39
 21
139.03
  0
LINE
  8
0
 10
188.39
 20
139.03
 11
185.5
 21
152.626
  0
LINE
  8
0
 10
68.9541
 20
138.269
 11
71.8438
 21
151.864
  0
LINE
  8
0
 10
71.8438
 20
151.864
 11
85.4404
 21
148.975
  0
LINE
  8
0
 10
85.4404
 20
148.975
 11
82.5508
 21
135.379
  0
LINE
  8
0
 10
82.5508
 20
135.379
 11
68.9541
 21
138.269
  0
LINE
  8
0
 10
166.867
 20
148.666
 11
180.463
 21
151.556
  0
LINE
  8
0
 10
180.463
 20
151.556
 11
183.353
 21
137.959
  0
LINE
  8
0
 10
183.353
 20
137.959
 11
169.757
 21
135.069
  0
LINE
  8
0
 10
169.757
 20
135.069
 11
166.867
 21
148.666
  0
LINE
  8
0
 10
87.5879
 20
134.308
 11
90.4775
 21
147.904
  0
LINE
  8
0
 10
90.4775
 20
147.904
 11
104.074
 21
145.014
  0
LINE
  8
0
 10
104.074
 20
145.014
 11
101.184
 21
131.418
  0
LINE
  8
0
 10
101.184
 20
131.418
 11
87.5879
 21
134.308
  0
LINE
  8
0
 10
148.233
 20
144.705
 11
161.829
 21
147.595
  0
LINE
  8
0
 10
161.829
 20
147.595
 11
164.719
 21
133.999
  0
LINE
  8
0
 10
164.719
 20
133.999
 11
151.123
 21
131.108
  0
LINE
  8
0
 10
151.123
 20
131.108
 11
148.233
 21
144.705
  0
LINE
  8
0
 10
106.221
 20
130.347
 11
109.111
 21
143.943
  0
LINE
  8
0
 10
109.111
 20
143.943
 11
122.708
 21
141.054
  0
LINE
  8
0
 10
122.708
 20
141.054
 11
119.818
 21
127.457
  0
LINE
  8
0
 10
119.818
 20
127.457
 11
106.221
 21
130.347
  0
LINE
  8
0
 10
129.599
 20
140.744
 11
143.195
 21
143.634
  0
LINE
  8
0
 10
143.195
 20
143.634
 11
146.085
 21
130.038
  0
LINE
  8
0
 10
146.085
 20
130.038
 11
132.489
 21
127.147
  0
LINE
  8
0
 10
132.489
 20
127.147
 11
129.599
 21
140.744
  0
LINE
  8
0
 10
292.959
 20
128.763
 11
292.959
 21
142.662
  0
LINE
  8
0
 10
292.959
 20
142.662
 11
306.859
 21
142.662
  0
LINE
  8
0
 10
306.859
 20
142.662
 11
306.859
 21
128.763
  0
LINE
  8
0
 10
306.859
 20
128.763
 11
292.959
 21
128.763
  0
LINE
  8
0
 10
37.043
 20
125.576
 11
39.9326
 21
139.172
  0
LINE
  8
0
 10
39.9326
 20
139.172
 11
53.5293
 21
136.282
  0
LINE
  8
0
 10
53.5293
 20
136.282
 11
50.6387
 21
122.686
  0
LINE
  8
0
 10
50.6387
 20
122.686
 11
37.043
 21
125.576
  0
LINE
  8
0
 10
198.778
 20
135.973
 11
212.374
 21
138.863
  0
LINE
  8
0
 10
212.374
 20
138.863
 11
215.264
 21
125.267
  0
LINE
  8
0
 10
215.264
 20
125.267
 11
201.668
 21
122.377
  0
LINE
  8
0
 10
201.668
 20
122.377
 11
198.778
 21
135.973
  0
LINE
  8
0
 10
239.976
 20
124
 11
239.976
 21
137.9
  0
LINE
  8
0
 10
239.976
 20
137.9
 11
253.876
 21
137.9
  0
LINE
  8
0
 10
253.876
 20
137.9
 11
253.876
 21
124
  0
LINE
  8
0
 10
253.876
 20
124
 11
239.976
 21
124
  0
LINE
  8
0
 10
220.926
 20
124
 11
220.926
 21
137.9
  0
LINE
  8
0
 10
220.926
 20
137.9
 11
234.826
 21
137.9
  0
LINE
  8
0
 10
234.826
 20
137.9
 11
234.826
 21
124
  0
LINE
  8
0
 10
234.826
 20
124
 11
220.926
 21
124
  0
LINE
  8
0
 10
-6.35449
 20
124
 11
-6.35449
 21
137.9
  0
LINE
  8
0
 10
-6.35449
 20
137.9
 11
7.54492
 21
137.9
  0
LINE
  8
0
 10
7.54492
 20
137.9
 11
7.54492
 21
124
  0
LINE
  8
0
 10
7.54492
 20
124
 11
-6.35449
 21
124
  0
LINE
  8
0
 10
17.458
 20
124
 11
17.458
 21
137.9
  0
LINE
  8
0
 10
17.458
 20
137.9
 11
31.3574
 21
137.9
  0
LINE
  8
0
 10
31.3574
 20
137.9
 11
31.3574
 21
124
  0
LINE
  8
0
 10
31.3574
 20
124
 11
17.458
 21
124
  0
LINE
  8
0
 10
263.789
 20
124
 11
263.789
 21
137.9
  0
LINE
  8
0
 10
263.789
 20
137.9
 11
277.689
 21
137.9
  0
LINE
  8
0
 10
277.689
 20
137.9
 11
277.689
 21
124
  0
LINE
  8
0
 10
277.689
 20
124
 11
263.789
 21
124
  0
LINE
  8
0
 10
55.6768
 20
121.615
 11
58.5664
 21
135.211
  0
LINE
  8
0
 10
58.5664
 20
135.211
 11
72.1631
 21
132.321
  0
LINE
  8
0
 10
72.1631
 20
132.321
 11
69.2725
 21
118.726
  0
LINE
  8
0
 10
69.2725
 20
118.726
 11
55.6768
 21
121.615
  0
LINE
  8
0
 10
180.144
 20
132.012
 11
193.74
 21
134.902
  0
LINE
  8
0
 10
193.74
 20
134.902
 11
196.63
 21
121.306
  0
LINE
  8
0
 10
196.63
 20
121.306
 11
183.034
 21
118.416
  0
LINE
  8
0
 10
183.034
 20
118.416
 11
180.144
 21
132.012
  0
LINE
  8
0
 10
74.3105
 20
117.654
 11
77.2002
 21
131.251
  0
LINE
  8
0
 10
77.2002
 20
131.251
 11
90.7969
 21
128.36
  0
LINE
  8
0
 10
90.7969
 20
128.36
 11
87.9062
 21
114.765
  0
LINE
  8
0
 10
87.9062
 20
114.765
 11
74.3105
 21
117.654
  0
LINE
  8
0
 10
161.51
 20
128.052
 11
175.107
 21
130.941
  0
LINE
  8
0
 10
175.107
 20
130.941
 11
177.997
 21
117.345
  0
LINE
  8
0
 10
177.997
 20
117.345
 11
164.4
 21
114.455
  0
LINE
  8
0
 10
164.4
 20
114.455
 11
161.51
 21
128.052
  0
LINE
  8
0
 10
92.9443
 20
113.693
 11
95.834
 21
127.29
  0
LINE
  8
0
 10
95.834
 20
127.29
 11
109.43
 21
124.4
  0
LINE
  8
0
 10
109.43
 20
124.4
 11
106.54
 21
110.804
  0
LINE
  8
0
 10
106.54
 20
110.804
 11
92.9443
 21
113.693
  0
LINE
  8
0
 10
142.877
 20
124.091
 11
156.473
 21
126.98
  0
LINE
  8
0
 10
156.473
 20
126.98
 11
159.363
 21
113.385
  0
LINE
  8
0
 10
159.363
 20
113.385
 11
145.767
 21
110.494
  0
LINE
  8
0
 10
145.767
 20
110.494
 11
142.877
 21
124.091
  0
LINE
  8
0
 10
297.721
 20
109.713
 11
297.721
 21
123.612
  0
LINE
  8
0
 10
297.721
 20
123.612
 11
311.621
 21
123.612
  0
LINE
  8
0
 10
311.621
 20
123.612
 11
311.621
 21
109.713
  0
LINE
  8
0
 10
311.621
 20
109.713
 11
297.721
 21
109.713
  0
LINE
  8
0
 10
124.243
 20
120.13
 11
137.839
 21
123.02
  0
LINE
  8
0
 10
137.839
 20
123.02
 11
140.729
 21
109.424
  0
LINE
  8
0
 10
140.729
 20
109.424
 11
127.133
 21
106.534
  0
LINE
  8
0
 10
127.133
 20
106.534
 11
124.243
 21
120.13
  0
LINE
  8
0
 10
252.824
 20
101.5
 11
252.471
 21
101.647
  0
LINE
  8
0
 10
252.471
 20
101.647
 11
252.324
 21
102
  0
LINE
  8
0
 10
252.324
 20
102
 11
252.324
 21
121.15
  0
LINE
  8
0
 10
252.324
 20
121.15
 11
252.471
 21
121.503
  0
LINE
  8
0
 10
252.471
 20
121.503
 11
252.824
 21
121.65
  0
LINE
  8
0
 10
252.824
 20
121.65
 11
258.824
 21
121.65
  0
LINE
  8
0
 10
258.824
 20
121.65
 11
259.178
 21
121.503
  0
LINE
  8
0
 10
259.178
 20
121.503
 11
259.324
 21
121.15
  0
LINE
  8
0
 10
259.324
 20
121.15
 11
259.324
 21
105.1
  0
LINE
  8
0
 10
259.324
 20
105.1
 11
260.863
 21
105.1
  0
LINE
  8
0
 10
260.863
 20
105.1
 11
260.762
 21
105.4
  0
LINE
  8
0
 10
260.762
 20
105.4
 11
260.762
 21
118.4
  0
LINE
  8
0
 10
260.762
 20
118.4
 11
260.908
 21
118.753
  0
LINE
  8
0
 10
260.908
 20
118.753
 11
261.262
 21
118.9
  0
LINE
  8
0
 10
261.262
 20
118.9
 11
274.262
 21
118.9
  0
LINE
  8
0
 10
274.262
 20
118.9
 11
274.615
 21
118.753
  0
LINE
  8
0
 10
274.615
 20
118.753
 11
274.762
 21
118.4
  0
LINE
  8
0
 10
274.762
 20
118.4
 11
274.762
 21
105.4
  0
LINE
  8
0
 10
274.762
 20
105.4
 11
274.662
 21
105.1
  0
LINE
  8
0
 10
274.662
 20
105.1
 11
276.2
 21
105.1
  0
LINE
  8
0
 10
276.2
 20
105.1
 11
276.2
 21
121.15
  0
LINE
  8
0
 10
276.2
 20
121.15
 11
276.347
 21
121.503
  0
LINE
  8
0
 10
276.347
 20
121.503
 11
276.7
 21
121.65
  0
LINE
  8
0
 10
276.7
 20
121.65
 11
282.7
 21
121.65
  0
LINE
  8
0
 10
282.7
 20
121.65
 11
283.054
 21
121.503
  0
LINE
  8
0
 10
283.054
 20
121.503
 11
283.2
 21
121.15
  0
LINE
  8
0
 10
283.2
 20
121.15
 11
283.2
 21
102
  0
LINE
  8
0
 10
283.2
 20
102
 11
283.054
 21
101.647
  0
LINE
  8
0
 10
283.054
 20
101.647
 11
282.7
 21
101.5
  0
LINE
  8
0
 10
282.7
 20
101.5
 11
252.824
 21
101.5
  0
LINE
  8
0
 10
37.7402
 20
105.952
 11
40.6309
 21
119.548
  0
LINE
  8
0
 10
40.6309
 20
119.548
 11
54.2266
 21
116.658
  0
LINE
  8
0
 10
54.2266
 20
116.658
 11
51.3369
 21
103.062
  0
LINE
  8
0
 10
51.3369
 20
103.062
 11
37.7402
 21
105.952
  0
LINE
  8
0
 10
229.856
 20
104.95
 11
229.856
 21
118.85
  0
LINE
  8
0
 10
229.856
 20
118.85
 11
243.756
 21
118.85
  0
LINE
  8
0
 10
243.756
 20
118.85
 11
243.756
 21
104.95
  0
LINE
  8
0
 10
243.756
 20
104.95
 11
229.856
 21
104.95
  0
LINE
  8
0
 10
18.0527
 20
104.95
 11
18.0527
 21
118.85
  0
LINE
  8
0
 10
18.0527
 20
118.85
 11
31.9531
 21
118.85
  0
LINE
  8
0
 10
31.9531
 20
118.85
 11
31.9531
 21
104.95
  0
LINE
  8
0
 10
31.9531
 20
104.95
 11
18.0527
 21
104.95
  0
LINE
  8
0
 10
-8.14062
 20
104.95
 11
-8.14062
 21
118.85
  0
LINE
  8
0
 10
-8.14062
 20
118.85
 11
5.75977
 21
118.85
  0
LINE
  8
0
 10
5.75977
 20
118.85
 11
5.75977
 21
104.95
  0
LINE
  8
0
 10
5.75977
 20
104.95
 11
-8.14062
 21
104.95
  0
LINE
  8
0
 10
210.806
 20
104.95
 11
210.806
 21
118.85
  0
LINE
  8
0
 10
210.806
 20
118.85
 11
224.706
 21
118.85
  0
LINE
  8
0
 10
224.706
 20
118.85
 11
224.706
 21
104.95
  0
LINE
  8
0
 10
224.706
 20
104.95
 11
210.806
 21
104.95
  0
LINE
  8
0
 10
188.763
 20
114.369
 11
202.36
 21
117.259
  0
LINE
  8
0
 10
202.36
 20
117.259
 11
205.25
 21
103.662
  0
LINE
  8
0
 10
205.25
 20
103.662
 11
191.653
 21
100.772
  0
LINE
  8
0
 10
191.653
 20
100.772
 11
188.763
 21
114.369
  0
LINE
  8
0
 10
56.374
 20
101.991
 11
59.2646
 21
115.588
  0
LINE
  8
0
 10
59.2646
 20
115.588
 11
72.8604
 21
112.697
  0
LINE
  8
0
 10
72.8604
 20
112.697
 11
69.9707
 21
99.1016
  0
LINE
  8
0
 10
69.9707
 20
99.1016
 11
56.374
 21
101.991
  0
LINE
  8
0
 10
170.13
 20
110.408
 11
183.726
 21
113.298
  0
LINE
  8
0
 10
183.726
 20
113.298
 11
186.616
 21
99.7021
  0
LINE
  8
0
 10
186.616
 20
99.7021
 11
173.02
 21
96.8115
  0
LINE
  8
0
 10
173.02
 20
96.8115
 11
170.13
 21
110.408
  0
LINE
  8
0
 10
75.0078
 20
98.0303
 11
77.8975
 21
111.627
  0
LINE
  8
0
 10
77.8975
 20
111.627
 11
91.4941
 21
108.736
  0
LINE
  8
0
 10
91.4941
 20
108.736
 11
88.6045
 21
95.1406
  0
LINE
  8
0
 10
88.6045
 20
95.1406
 11
75.0078
 21
98.0303
  0
LINE
  8
0
 10
151.496
 20
106.447
 11
165.092
 21
109.337
  0
LINE
  8
0
 10
165.092
 20
109.337
 11
167.982
 21
95.7412
  0
LINE
  8
0
 10
167.982
 20
95.7412
 11
154.386
 21
92.8506
  0
LINE
  8
0
 10
154.386
 20
92.8506
 11
151.496
 21
106.447
  0
LINE
  8
0
 10
93.6416
 20
94.0693
 11
96.5312
 21
107.666
  0
LINE
  8
0
 10
96.5312
 20
107.666
 11
110.128
 21
104.776
  0
LINE
  8
0
 10
110.128
 20
104.776
 11
107.238
 21
91.1797
  0
LINE
  8
0
 10
107.238
 20
91.1797
 11
93.6416
 21
94.0693
  0
LINE
  8
0
 10
132.862
 20
102.486
 11
146.458
 21
105.377
  0
LINE
  8
0
 10
146.458
 20
105.377
 11
149.348
 21
91.7803
  0
LINE
  8
0
 10
149.348
 20
91.7803
 11
135.752
 21
88.8906
  0
LINE
  8
0
 10
135.752
 20
88.8906
 11
132.862
 21
102.486
  0
LINE
  8
0
 10
-15.533
 20
82.4502
 11
-15.8865
 21
82.5967
  0
LINE
  8
0
 10
-15.8865
 20
82.5967
 11
-16.033
 21
82.9502
  0
LINE
  8
0
 10
-16.033
 20
82.9502
 11
-16.033
 21
102.1
  0
LINE
  8
0
 10
-16.033
 20
102.1
 11
-15.8865
 21
102.453
  0
LINE
  8
0
 10
-15.8865
 20
102.453
 11
-15.533
 21
102.6
  0
LINE
  8
0
 10
-15.533
 20
102.6
 11
-9.533
 21
102.6
  0
LINE
  8
0
 10
-9.533
 20
102.6
 11
-9.17949
 21
102.453
  0
LINE
  8
0
 10
-9.17949
 20
102.453
 11
-9.033
 21
102.1
  0
LINE
  8
0
 10
-9.033
 20
102.1
 11
-9.033
 21
86.0498
  0
LINE
  8
0
 10
-9.033
 20
86.0498
 11
-7.49492
 21
86.0498
  0
LINE
  8
0
 10
-7.49492
 20
86.0498
 11
-7.5955
 21
86.3496
  0
LINE
  8
0
 10
-7.5955
 20
86.3496
 11
-7.5955
 21
99.3496
  0
LINE
  8
0
 10
-7.5955
 20
99.3496
 11
-7.44902
 21
99.7031
  0
LINE
  8
0
 10
-7.44902
 20
99.7031
 11
-7.0955
 21
99.8496
  0
LINE
  8
0
 10
-7.0955
 20
99.8496
 11
5.90448
 21
99.8496
  0
LINE
  8
0
 10
5.90448
 20
99.8496
 11
6.258
 21
99.7031
  0
LINE
  8
0
 10
6.258
 20
99.7031
 11
6.40448
 21
99.3496
  0
LINE
  8
0
 10
6.40448
 20
99.3496
 11
6.40448
 21
86.3496
  0
LINE
  8
0
 10
6.40448
 20
86.3496
 11
6.30487
 21
86.0498
  0
LINE
  8
0
 10
6.30487
 20
86.0498
 11
7.84296
 21
86.0498
  0
LINE
  8
0
 10
7.84296
 20
86.0498
 11
7.84296
 21
102.1
  0
LINE
  8
0
 10
7.84296
 20
102.1
 11
7.98944
 21
102.453
  0
LINE
  8
0
 10
7.98944
 20
102.453
 11
8.34296
 21
102.6
  0
LINE
  8
0
 10
8.34296
 20
102.6
 11
14.343
 21
102.6
  0
LINE
  8
0
 10
14.343
 20
102.6
 11
14.6965
 21
102.453
  0
LINE
  8
0
 10
14.6965
 20
102.453
 11
14.843
 21
102.1
  0
LINE
  8
0
 10
14.843
 20
102.1
 11
14.843
 21
82.9502
  0
LINE
  8
0
 10
14.843
 20
82.9502
 11
14.6965
 21
82.5967
  0
LINE
  8
0
 10
14.6965
 20
82.5967
 11
14.343
 21
82.4502
  0
LINE
  8
0
 10
14.343
 20
82.4502
 11
-15.533
 21
82.4502
  0
LINE
  8
0
 10
246.525
 20
85.9004
 11
246.525
 21
99.7998
  0
LINE
  8
0
 10
246.525
 20
99.7998
 11
260.425
 21
99.7998
  0
LINE
  8
0
 10
260.425
 20
99.7998
 11
260.425
 21
85.9004
  0
LINE
  8
0
 10
260.425
 20
85.9004
 11
246.525
 21
85.9004
  0
LINE
  8
0
 10
23.4111
 20
85.9004
 11
23.4111
 21
99.7998
  0
LINE
  8
0
 10
23.4111
 20
99.7998
 11
37.3105
 21
99.7998
  0
LINE
  8
0
 10
37.3105
 20
99.7998
 11
37.3105
 21
85.9004
  0
LINE
  8
0
 10
37.3105
 20
85.9004
 11
23.4111
 21
85.9004
  0
LINE
  8
0
 10
220.331
 20
85.9004
 11
220.331
 21
99.7998
  0
LINE
  8
0
 10
220.331
 20
99.7998
 11
234.231
 21
99.7998
  0
LINE
  8
0
 10
234.231
 20
99.7998
 11
234.231
 21
85.9004
  0
LINE
  8
0
 10
234.231
 20
85.9004
 11
220.331
 21
85.9004
  0
LINE
  8
0
 10
197.382
 20
96.7256
 11
210.979
 21
99.6152
  0
LINE
  8
0
 10
210.979
 20
99.6152
 11
213.869
 21
86.0186
  0
LINE
  8
0
 10
213.869
 20
86.0186
 11
200.272
 21
83.1289
  0
LINE
  8
0
 10
200.272
 20
83.1289
 11
197.382
 21
96.7256
  0
LINE
  8
0
 10
43.0967
 20
85.3379
 11
45.9863
 21
98.9346
  0
LINE
  8
0
 10
45.9863
 20
98.9346
 11
59.583
 21
96.0439
  0
LINE
  8
0
 10
59.583
 20
96.0439
 11
56.6934
 21
82.4482
  0
LINE
  8
0
 10
56.6934
 20
82.4482
 11
43.0967
 21
85.3379
  0
LINE
  8
0
 10
178.749
 20
92.7646
 11
192.345
 21
95.6543
  0
LINE
  8
0
 10
192.345
 20
95.6543
 11
195.235
 21
82.0586
  0
LINE
  8
0
 10
195.235
 20
82.0586
 11
181.639
 21
79.168
  0
LINE
  8
0
 10
181.639
 20
79.168
 11
178.749
 21
92.7646
  0
LINE
  8
0
 10
277.481
 20
81.1377
 11
277.481
 21
95.0371
  0
LINE
  8
0
 10
277.481
 20
95.0371
 11
291.381
 21
95.0371
  0
LINE
  8
0
 10
291.381
 20
95.0371
 11
291.381
 21
81.1377
  0
LINE
  8
0
 10
291.381
 20
81.1377
 11
277.481
 21
81.1377
  0
LINE
  8
0
 10
61.7305
 20
81.377
 11
64.6201
 21
94.9736
  0
LINE
  8
0
 10
64.6201
 20
94.9736
 11
78.2168
 21
92.083
  0
LINE
  8
0
 10
78.2168
 20
92.083
 11
75.3262
 21
78.4873
  0
LINE
  8
0
 10
75.3262
 20
78.4873
 11
61.7305
 21
81.377
  0
LINE
  8
0
 10
160.115
 20
88.8037
 11
173.711
 21
91.6934
  0
LINE
  8
0
 10
173.711
 20
91.6934
 11
176.601
 21
78.0977
  0
LINE
  8
0
 10
176.601
 20
78.0977
 11
163.005
 21
75.207
  0
LINE
  8
0
 10
163.005
 20
75.207
 11
160.115
 21
88.8037
  0
LINE
  8
0
 10
80.3643
 20
77.416
 11
83.2539
 21
91.0127
  0
LINE
  8
0
 10
83.2539
 20
91.0127
 11
96.8506
 21
88.123
  0
LINE
  8
0
 10
96.8506
 20
88.123
 11
93.96
 21
74.5264
  0
LINE
  8
0
 10
93.96
 20
74.5264
 11
80.3643
 21
77.416
  0
LINE
  8
0
 10
141.481
 20
84.8428
 11
155.078
 21
87.7334
  0
LINE
  8
0
 10
155.078
 20
87.7334
 11
157.968
 21
74.1367
  0
LINE
  8
0
 10
157.968
 20
74.1367
 11
144.371
 21
71.2471
  0
LINE
  8
0
 10
144.371
 20
71.2471
 11
141.481
 21
84.8428
  0
LINE
  8
0
 10
98.998
 20
73.4561
 11
101.888
 21
87.0518
  0
LINE
  8
0
 10
101.888
 20
87.0518
 11
115.484
 21
84.1621
  0
LINE
  8
0
 10
115.484
 20
84.1621
 11
112.594
 21
70.5654
  0
LINE
  8
0
 10
112.594
 20
70.5654
 11
98.998
 21
73.4561
  0
LINE
  8
0
 10
-14.6895
 20
66.8496
 11
-14.6895
 21
80.75
  0
LINE
  8
0
 10
-14.6895
 20
80.75
 11
-0.789062
 21
80.75
  0
LINE
  8
0
 10
-0.789062
 20
80.75
 11
-0.789062
 21
66.8496
  0
LINE
  8
0
 10
-0.789062
 20
66.8496
 11
-14.6895
 21
66.8496
  0
LINE
  8
0
 10
43.7939
 20
65.7139
 11
46.6846
 21
79.3105
  0
LINE
  8
0
 10
46.6846
 20
79.3105
 11
60.2803
 21
76.4199
  0
LINE
  8
0
 10
60.2803
 20
76.4199
 11
57.3906
 21
62.8242
  0
LINE
  8
0
 10
57.3906
 20
62.8242
 11
43.7939
 21
65.7139
  0
LINE
  8
0
 10
192.026
 20
76.1113
 11
205.623
 21
79.001
  0
LINE
  8
0
 10
205.623
 20
79.001
 11
208.513
 21
65.4053
  0
LINE
  8
0
 10
208.513
 20
65.4053
 11
194.916
 21
62.5146
  0
LINE
  8
0
 10
194.916
 20
62.5146
 11
192.026
 21
76.1113
  0
LINE
  8
0
 10
91.3618
 20
52.7411
 11
91.0464
 21
52.9578
  0
LINE
  8
0
 10
91.0464
 20
52.9578
 11
90.9767
 21
53.3341
  0
LINE
  8
0
 10
90.9767
 20
53.3341
 11
94.3136
 21
69.0332
  0
LINE
  8
0
 10
94.3136
 20
69.0332
 11
92.8091
 21
69.353
  0
LINE
  8
0
 10
92.8091
 20
69.353
 11
92.8452
 21
69.0388
  0
LINE
  8
0
 10
92.8452
 20
69.0388
 11
90.1423
 21
56.3229
  0
LINE
  8
0
 10
90.1423
 20
56.3229
 11
89.9255
 21
56.0075
  0
LINE
  8
0
 10
89.9255
 20
56.0075
 11
89.5493
 21
55.9377
  0
LINE
  8
0
 10
89.5493
 20
55.9377
 11
76.8334
 21
58.6406
  0
LINE
  8
0
 10
76.8334
 20
58.6406
 11
76.5181
 21
58.8574
  0
LINE
  8
0
 10
76.5181
 20
58.8574
 11
76.4483
 21
59.2336
  0
LINE
  8
0
 10
76.4483
 20
59.2336
 11
79.1511
 21
71.9495
  0
LINE
  8
0
 10
79.1511
 20
71.9495
 11
79.3109
 21
72.2221
  0
LINE
  8
0
 10
79.3109
 20
72.2221
 11
77.8064
 21
72.5419
  0
LINE
  8
0
 10
77.8064
 20
72.5419
 11
74.4695
 21
56.8428
  0
LINE
  8
0
 10
74.4695
 20
56.8428
 11
74.2527
 21
56.5275
  0
LINE
  8
0
 10
74.2527
 20
56.5275
 11
73.8764
 21
56.4577
  0
LINE
  8
0
 10
73.8764
 20
56.4577
 11
68.0076
 21
57.7052
  0
LINE
  8
0
 10
68.0076
 20
57.7052
 11
67.6922
 21
57.9219
  0
LINE
  8
0
 10
67.6922
 20
57.9219
 11
67.6224
 21
58.2982
  0
LINE
  8
0
 10
67.6224
 20
58.2982
 11
71.6038
 21
77.0291
  0
LINE
  8
0
 10
71.6038
 20
77.0291
 11
71.8206
 21
77.3445
  0
LINE
  8
0
 10
71.8206
 20
77.3445
 11
72.1968
 21
77.4142
  0
LINE
  8
0
 10
72.1968
 20
77.4142
 11
101.42
 21
71.2027
  0
LINE
  8
0
 10
101.42
 20
71.2027
 11
101.735
 21
70.9859
  0
LINE
  8
0
 10
101.735
 20
70.9859
 11
101.805
 21
70.6096
  0
LINE
  8
0
 10
101.805
 20
70.6096
 11
97.8237
 21
51.8787
  0
LINE
  8
0
 10
97.8237
 20
51.8787
 11
97.6069
 21
51.5634
  0
LINE
  8
0
 10
97.6069
 20
51.5634
 11
97.2307
 21
51.4936
  0
LINE
  8
0
 10
97.2307
 20
51.4936
 11
91.3618
 21
52.7411
  0
LINE
  8
0
 10
258.431
 20
62.0879
 11
258.431
 21
75.9873
  0
LINE
  8
0
 10
258.431
 20
75.9873
 11
272.331
 21
75.9873
  0
LINE
  8
0
 10
272.331
 20
75.9873
 11
272.331
 21
62.0879
  0
LINE
  8
0
 10
272.331
 20
62.0879
 11
258.431
 21
62.0879
  0
LINE
  8
0
 10
277.481
 20
62.0879
 11
277.481
 21
75.9873
  0
LINE
  8
0
 10
277.481
 20
75.9873
 11
291.381
 21
75.9873
  0
LINE
  8
0
 10
291.381
 20
75.9873
 11
291.381
 21
62.0879
  0
LINE
  8
0
 10
291.381
 20
62.0879
 11
277.481
 21
62.0879
  0
LINE
  8
0
 10
296.531
 20
62.0879
 11
296.531
 21
75.9873
  0
LINE
  8
0
 10
296.531
 20
75.9873
 11
310.431
 21
75.9873
  0
LINE
  8
0
 10
310.431
 20
75.9873
 11
310.431
 21
62.0879
  0
LINE
  8
0
 10
310.431
 20
62.0879
 11
296.531
 21
62.0879
  0
LINE
  8
0
 10
147.712
 20
49.7688
 11
147.495
 21
50.0842
  0
LINE
  8
0
 10
147.495
 20
50.0842
 11
143.514
 21
68.8151
  0
LINE
  8
0
 10
143.514
 20
68.8151
 11
143.583
 21
69.1913
  0
LINE
  8
0
 10
143.583
 20
69.1913
 11
143.899
 21
69.4081
  0
LINE
  8
0
 10
143.899
 20
69.4081
 11
173.122
 21
75.6197
  0
LINE
  8
0
 10
173.122
 20
75.6197
 11
173.498
 21
75.5499
  0
LINE
  8
0
 10
173.498
 20
75.5499
 11
173.715
 21
75.2346
  0
LINE
  8
0
 10
173.715
 20
75.2346
 11
177.696
 21
56.5036
  0
LINE
  8
0
 10
177.696
 20
56.5036
 11
177.626
 21
56.1274
  0
LINE
  8
0
 10
177.626
 20
56.1274
 11
177.311
 21
55.9106
  0
LINE
  8
0
 10
177.311
 20
55.9106
 11
171.442
 21
54.6631
  0
LINE
  8
0
 10
171.442
 20
54.6631
 11
171.066
 21
54.7329
  0
LINE
  8
0
 10
171.066
 20
54.7329
 11
170.849
 21
55.0482
  0
LINE
  8
0
 10
170.849
 20
55.0482
 11
167.512
 21
70.7473
  0
LINE
  8
0
 10
167.512
 20
70.7473
 11
166.008
 21
70.4275
  0
LINE
  8
0
 10
166.008
 20
70.4275
 11
166.169
 21
70.1552
  0
LINE
  8
0
 10
166.169
 20
70.1552
 11
168.871
 21
57.4393
  0
LINE
  8
0
 10
168.871
 20
57.4393
 11
168.802
 21
57.063
  0
LINE
  8
0
 10
168.802
 20
57.063
 11
168.486
 21
56.8463
  0
LINE
  8
0
 10
168.486
 20
56.8463
 11
155.77
 21
54.1434
  0
LINE
  8
0
 10
155.77
 20
54.1434
 11
155.394
 21
54.2132
  0
LINE
  8
0
 10
155.394
 20
54.2132
 11
155.177
 21
54.5285
  0
LINE
  8
0
 10
155.177
 20
54.5285
 11
152.474
 21
67.2444
  0
LINE
  8
0
 10
152.474
 20
67.2444
 11
152.51
 21
67.5584
  0
LINE
  8
0
 10
152.51
 20
67.5584
 11
151.005
 21
67.2386
  0
LINE
  8
0
 10
151.005
 20
67.2386
 11
154.342
 21
51.5395
  0
LINE
  8
0
 10
154.342
 20
51.5395
 11
154.272
 21
51.1633
  0
LINE
  8
0
 10
154.272
 20
51.1633
 11
153.957
 21
50.9465
  0
LINE
  8
0
 10
153.957
 20
50.9465
 11
148.088
 21
49.699
  0
LINE
  8
0
 10
148.088
 20
49.699
 11
147.712
 21
49.7688
  0
LINE
  8
0
 10
104.354
 20
52.8418
 11
107.244
 21
66.4375
  0
LINE
  8
0
 10
107.244
 20
66.4375
 11
120.84
 21
63.5479
  0
LINE
  8
0
 10
120.84
 20
63.5479
 11
117.95
 21
49.9521
  0
LINE
  8
0
 10
117.95
 20
49.9521
 11
104.354
 21
52.8418
  0
LINE
  8
0
 10
-25.8899
 20
55.8534
 11
-25.8899
 21
57.1466
  0
LINE
  8
0
 10
-25.8899
 20
57.1466
 11
-24.6601
 21
57.5462
  0
LINE
  8
0
 10
-24.6601
 20
57.5462
 11
-23.9
 21
56.5
  0
LINE
  8
0
 10
-23.9
 20
56.5
 11
-24.6601
 21
55.4538
  0
LINE
  8
0
 10
-24.6601
 20
55.4538
 11
-25.8899
 21
55.8534
  0
LINE
  8
0
 10
47.1101
 20
55.8534
 11
47.1101
 21
57.1466
  0
LINE
  8
0
 10
47.1101
 20
57.1466
 11
48.3399
 21
57.5462
  0
LINE
  8
0
 10
48.3399
 20
57.5462
 11
49.1
 21
56.5
  0
LINE
  8
0
 10
49.1
 20
56.5
 11
48.3399
 21
55.4538
  0
LINE
  8
0
 10
48.3399
 20
55.4538
 11
47.1101
 21
55.8534
  0
LINE
  8
0
 10
199.11
 20
55.8534
 11
199.11
 21
57.1466
  0
LINE
  8
0
 10
199.11
 20
57.1466
 11
200.34
 21
57.5462
  0
LINE
  8
0
 10
200.34
 20
57.5462
 11
201.1
 21
56.5
  0
LINE
  8
0
 10
201.1
 20
56.5
 11
200.34
 21
55.4538
  0
LINE
  8
0
 10
200.34
 20
55.4538
 11
199.11
 21
55.8534
  0
LINE
  8
0
 10
316.61
 20
55.8534
 11
316.61
 21
57.1466
  0
LINE
  8
0
 10
316.61
 20
57.1466
 11
317.84
 21
57.5462
  0
LINE
  8
0
 10
317.84
 20
57.5462
 11
318.6
 21
56.5
  0
LINE
  8
0
 10
318.6
 20
56.5
 11
317.84
 21
55.4538
  0
LINE
  8
0
 10
317.84
 20
55.4538
 11
316.61
 21
55.8534
  0
ENDSEC
  0
SECTION
  2
OBJECTS
  0
DICTIONARY
  0
ENDSEC
  0
EOF
