  0
SECTION
  2
BLOCKS
  0
ENDSEC
  0
SECTION
  2
ENTITIES
  0
LINE
  8
0
 10
189.783
 20
-246.887
 11
316.756
 21
-246.887
  0
LINE
  8
0
 10
316.756
 20
-246.887
 11
318.669
 21
-246.506
  0
LINE
  8
0
 10
318.669
 20
-246.506
 11
320.291
 21
-245.422
  0
LINE
  8
0
 10
320.291
 20
-245.422
 11
321.375
 21
-243.8
  0
LINE
  8
0
 10
321.375
 20
-243.8
 11
321.756
 21
-241.887
  0
LINE
  8
0
 10
321.756
 20
-241.887
 11
321.756
 21
-134.387
  0
LINE
  8
0
 10
321.756
 20
-134.387
 11
321.375
 21
-132.473
  0
LINE
  8
0
 10
321.375
 20
-132.473
 11
320.291
 21
-130.851
  0
LINE
  8
0
 10
320.291
 20
-130.851
 11
318.669
 21
-129.767
  0
LINE
  8
0
 10
318.669
 20
-129.767
 11
316.756
 21
-129.387
  0
LINE
  8
0
 10
316.756
 20
-129.387
 11
132
 21
-129.387
  0
LINE
  8
0
 10
132
 20
-129.387
 11
132
 21
-137.155
  0
LINE
  8
0
 10
132
 20
-137.155
 11
313.639
 21
-137.155
  0
LINE
  8
0
 10
313.639
 20
-137.155
 11
314.139
 21
-137.655
  0
LINE
  8
0
 10
314.139
 20
-137.655
 11
314.139
 21
-240.525
  0
LINE
  8
0
 10
314.139
 20
-240.525
 11
313.639
 21
-241.025
  0
LINE
  8
0
 10
313.639
 20
-241.025
 11
194.309
 21
-241.025
  0
LINE
  8
0
 10
194.309
 20
-241.025
 11
125.779
 21
-254.986
  0
LINE
  8
0
 10
125.779
 20
-254.986
 11
125.574
 21
-254.985
  0
LINE
  8
0
 10
125.574
 20
-254.985
 11
36.7263
 21
-235.945
  0
LINE
  8
0
 10
36.7263
 20
-235.945
 11
-21.6406
 21
-235.945
  0
LINE
  8
0
 10
-21.6406
 20
-235.945
 11
-22.1406
 21
-235.445
  0
LINE
  8
0
 10
-22.1406
 20
-235.445
 11
-22.1406
 21
-137.655
  0
LINE
  8
0
 10
-22.1406
 20
-137.655
 11
-21.6406
 21
-137.155
  0
LINE
  8
0
 10
-21.6406
 20
-137.155
 11
104
 21
-137.155
  0
LINE
  8
0
 10
104
 20
-137.155
 11
104
 21
-129.387
  0
LINE
  8
0
 10
104
 20
-129.387
 11
-25.2441
 21
-129.387
  0
LINE
  8
0
 10
-25.2441
 20
-129.387
 11
-27.1576
 21
-129.767
  0
LINE
  8
0
 10
-27.1576
 20
-129.767
 11
-28.7797
 21
-130.851
  0
LINE
  8
0
 10
-28.7797
 20
-130.851
 11
-29.8635
 21
-132.473
  0
LINE
  8
0
 10
-29.8635
 20
-132.473
 11
-30.2441
 21
-134.387
  0
LINE
  8
0
 10
-30.2441
 20
-134.387
 11
-30.2441
 21
-241.887
  0
LINE
  8
0
 10
-30.2441
 20
-241.887
 11
-29.8635
 21
-243.8
  0
LINE
  8
0
 10
-29.8635
 20
-243.8
 11
-28.7797
 21
-245.422
  0
LINE
  8
0
 10
-28.7797
 20
-245.422
 11
-27.1576
 21
-246.506
  0
LINE
  8
0
 10
-27.1576
 20
-246.506
 11
-25.2441
 21
-246.887
  0
LINE
  8
0
 10
-25.2441
 20
-246.887
 11
61.228
 21
-246.887
  0
LINE
  8
0
 10
61.228
 20
-246.887
 11
124.412
 21
-260.377
  0
LINE
  8
0
 10
124.412
 20
-260.377
 11
126.499
 21
-260.377
  0
LINE
  8
0
 10
126.499
 20
-260.377
 11
189.783
 21
-246.887
  0
LINE
  8
0
 10
-25.8899
 20
-134.647
 11
-25.8899
 21
-133.353
  0
LINE
  8
0
 10
-25.8899
 20
-133.353
 11
-24.6601
 21
-132.954
  0
LINE
  8
0
 10
-24.6601
 20
-132.954
 11
-23.9
 21
-134
  0
LINE
  8
0
 10
-23.9
 20
-134
 11
-24.6601
 21
-135.046
  0
LINE
  8
0
 10
-24.6601
 20
-135.046
 11
-25.8899
 21
-134.647
  0
LINE
  8
0
 10
316.61
 20
-134.647
 11
316.61
 21
-133.353
  0
LINE
  8
0
 10
316.61
 20
-133.353
 11
317.84
 21
-132.954
  0
LINE
  8
0
 10
317.84
 20
-132.954
 11
318.6
 21
-134
  0
LINE
  8
0
 10
318.6
 20
-134
 11
317.84
 21
-135.046
  0
LINE
  8
0
 10
317.84
 20
-135.046
 11
316.61
 21
-134.647
  0
LINE
  8
0
 10
199.11
 20
-134.647
 11
199.11
 21
-133.353
  0
LINE
  8
0
 10
199.11
 20
-133.353
 11
200.34
 21
-132.954
  0
LINE
  8
0
 10
200.34
 20
-132.954
 11
201.1
 21
-134
  0
LINE
  8
0
 10
201.1
 20
-134
 11
200.34
 21
-135.046
  0
LINE
  8
0
 10
200.34
 20
-135.046
 11
199.11
 21
-134.647
  0
LINE
  8
0
 10
47.1101
 20
-134.647
 11
47.1101
 21
-133.353
  0
LINE
  8
0
 10
47.1101
 20
-133.353
 11
48.3399
 21
-132.954
  0
LINE
  8
0
 10
48.3399
 20
-132.954
 11
49.1
 21
-134
  0
LINE
  8
0
 10
49.1
 20
-134
 11
48.3399
 21
-135.046
  0
LINE
  8
0
 10
48.3399
 20
-135.046
 11
47.1101
 21
-134.647
  0
LINE
  8
0
 10
-25.8899
 20
-244.147
 11
-25.8899
 21
-242.853
  0
LINE
  8
0
 10
-25.8899
 20
-242.853
 11
-24.6601
 21
-242.454
  0
LINE
  8
0
 10
-24.6601
 20
-242.454
 11
-23.9
 21
-243.5
  0
LINE
  8
0
 10
-23.9
 20
-243.5
 11
-24.6601
 21
-244.546
  0
LINE
  8
0
 10
-24.6601
 20
-244.546
 11
-25.8899
 21
-244.147
  0
LINE
  8
0
 10
47.1101
 20
-244.147
 11
47.1101
 21
-242.853
  0
LINE
  8
0
 10
47.1101
 20
-242.853
 11
48.3399
 21
-242.454
  0
LINE
  8
0
 10
48.3399
 20
-242.454
 11
49.1
 21
-243.5
  0
LINE
  8
0
 10
49.1
 20
-243.5
 11
48.3399
 21
-244.546
  0
LINE
  8
0
 10
48.3399
 20
-244.546
 11
47.1101
 21
-244.147
  0
LINE
  8
0
 10
199.11
 20
-244.147
 11
199.11
 21
-242.853
  0
LINE
  8
0
 10
199.11
 20
-242.853
 11
200.34
 21
-242.454
  0
LINE
  8
0
 10
200.34
 20
-242.454
 11
201.1
 21
-243.5
  0
LINE
  8
0
 10
201.1
 20
-243.5
 11
200.34
 21
-244.546
  0
LINE
  8
0
 10
200.34
 20
-244.546
 11
199.11
 21
-244.147
  0
LINE
  8
0
 10
316.61
 20
-244.147
 11
316.61
 21
-242.853
  0
LINE
  8
0
 10
316.61
 20
-242.853
 11
317.84
 21
-242.454
  0
LINE
  8
0
 10
317.84
 20
-242.454
 11
318.6
 21
-243.5
  0
LINE
  8
0
 10
318.6
 20
-243.5
 11
317.84
 21
-244.546
  0
LINE
  8
0
 10
317.84
 20
-244.546
 11
316.61
 21
-244.147
  0
ENDSEC
  0
SECTION
  2
OBJECTS
  0
DICTIONARY
  0
ENDSEC
  0
EOF
