  0
SECTION
  2
BLOCKS
  0
ENDSEC
  0
SECTION
  2
ENTITIES
  0
LINE
  8
0
 10
189.783
 20
-396.887
 11
316.756
 21
-396.887
  0
LINE
  8
0
 10
316.756
 20
-396.887
 11
318.669
 21
-396.506
  0
LINE
  8
0
 10
318.669
 20
-396.506
 11
320.291
 21
-395.422
  0
LINE
  8
0
 10
320.291
 20
-395.422
 11
321.375
 21
-393.8
  0
LINE
  8
0
 10
321.375
 20
-393.8
 11
321.756
 21
-391.887
  0
LINE
  8
0
 10
321.756
 20
-391.887
 11
321.756
 21
-284.387
  0
LINE
  8
0
 10
321.756
 20
-284.387
 11
321.375
 21
-282.473
  0
LINE
  8
0
 10
321.375
 20
-282.473
 11
320.291
 21
-280.851
  0
LINE
  8
0
 10
320.291
 20
-280.851
 11
318.669
 21
-279.767
  0
LINE
  8
0
 10
318.669
 20
-279.767
 11
316.756
 21
-279.387
  0
LINE
  8
0
 10
316.756
 20
-279.387
 11
132
 21
-279.387
  0
LINE
  8
0
 10
132
 20
-279.387
 11
132
 21
-300
  0
LINE
  8
0
 10
132
 20
-300
 11
124
 21
-300
  0
LINE
  8
0
 10
124
 20
-300
 11
124
 21
-321.5
  0
LINE
  8
0
 10
124
 20
-321.5
 11
104
 21
-321.5
  0
LINE
  8
0
 10
104
 20
-321.5
 11
104
 21
-279.387
  0
LINE
  8
0
 10
104
 20
-279.387
 11
-25.2441
 21
-279.387
  0
LINE
  8
0
 10
-25.2441
 20
-279.387
 11
-27.1576
 21
-279.767
  0
LINE
  8
0
 10
-27.1576
 20
-279.767
 11
-28.7797
 21
-280.851
  0
LINE
  8
0
 10
-28.7797
 20
-280.851
 11
-29.8635
 21
-282.473
  0
LINE
  8
0
 10
-29.8635
 20
-282.473
 11
-30.2441
 21
-284.387
  0
LINE
  8
0
 10
-30.2441
 20
-284.387
 11
-30.2441
 21
-391.887
  0
LINE
  8
0
 10
-30.2441
 20
-391.887
 11
-29.8635
 21
-393.8
  0
LINE
  8
0
 10
-29.8635
 20
-393.8
 11
-28.7797
 21
-395.422
  0
LINE
  8
0
 10
-28.7797
 20
-395.422
 11
-27.1576
 21
-396.506
  0
LINE
  8
0
 10
-27.1576
 20
-396.506
 11
-25.2441
 21
-396.887
  0
LINE
  8
0
 10
-25.2441
 20
-396.887
 11
61.228
 21
-396.887
  0
LINE
  8
0
 10
61.228
 20
-396.887
 11
124.412
 21
-410.377
  0
LINE
  8
0
 10
124.412
 20
-410.377
 11
126.499
 21
-410.377
  0
LINE
  8
0
 10
126.499
 20
-410.377
 11
189.783
 21
-396.887
  0
LINE
  8
0
 10
-25.8899
 20
-284.647
 11
-25.8899
 21
-283.353
  0
LINE
  8
0
 10
-25.8899
 20
-283.353
 11
-24.6601
 21
-282.954
  0
LINE
  8
0
 10
-24.6601
 20
-282.954
 11
-23.9
 21
-284
  0
LINE
  8
0
 10
-23.9
 20
-284
 11
-24.6601
 21
-285.046
  0
LINE
  8
0
 10
-24.6601
 20
-285.046
 11
-25.8899
 21
-284.647
  0
LINE
  8
0
 10
316.61
 20
-284.647
 11
316.61
 21
-283.353
  0
LINE
  8
0
 10
316.61
 20
-283.353
 11
317.84
 21
-282.954
  0
LINE
  8
0
 10
317.84
 20
-282.954
 11
318.6
 21
-284
  0
LINE
  8
0
 10
318.6
 20
-284
 11
317.84
 21
-285.046
  0
LINE
  8
0
 10
317.84
 20
-285.046
 11
316.61
 21
-284.647
  0
LINE
  8
0
 10
199.11
 20
-284.647
 11
199.11
 21
-283.353
  0
LINE
  8
0
 10
199.11
 20
-283.353
 11
200.34
 21
-282.954
  0
LINE
  8
0
 10
200.34
 20
-282.954
 11
201.1
 21
-284
  0
LINE
  8
0
 10
201.1
 20
-284
 11
200.34
 21
-285.046
  0
LINE
  8
0
 10
200.34
 20
-285.046
 11
199.11
 21
-284.647
  0
LINE
  8
0
 10
47.1101
 20
-284.647
 11
47.1101
 21
-283.353
  0
LINE
  8
0
 10
47.1101
 20
-283.353
 11
48.3399
 21
-282.954
  0
LINE
  8
0
 10
48.3399
 20
-282.954
 11
49.1
 21
-284
  0
LINE
  8
0
 10
49.1
 20
-284
 11
48.3399
 21
-285.046
  0
LINE
  8
0
 10
48.3399
 20
-285.046
 11
47.1101
 21
-284.647
  0
LINE
  8
0
 10
-25.8899
 20
-394.147
 11
-25.8899
 21
-392.853
  0
LINE
  8
0
 10
-25.8899
 20
-392.853
 11
-24.6601
 21
-392.454
  0
LINE
  8
0
 10
-24.6601
 20
-392.454
 11
-23.9
 21
-393.5
  0
LINE
  8
0
 10
-23.9
 20
-393.5
 11
-24.6601
 21
-394.546
  0
LINE
  8
0
 10
-24.6601
 20
-394.546
 11
-25.8899
 21
-394.147
  0
LINE
  8
0
 10
47.1101
 20
-394.147
 11
47.1101
 21
-392.853
  0
LINE
  8
0
 10
47.1101
 20
-392.853
 11
48.3399
 21
-392.454
  0
LINE
  8
0
 10
48.3399
 20
-392.454
 11
49.1
 21
-393.5
  0
LINE
  8
0
 10
49.1
 20
-393.5
 11
48.3399
 21
-394.546
  0
LINE
  8
0
 10
48.3399
 20
-394.546
 11
47.1101
 21
-394.147
  0
LINE
  8
0
 10
199.11
 20
-394.147
 11
199.11
 21
-392.853
  0
LINE
  8
0
 10
199.11
 20
-392.853
 11
200.34
 21
-392.454
  0
LINE
  8
0
 10
200.34
 20
-392.454
 11
201.1
 21
-393.5
  0
LINE
  8
0
 10
201.1
 20
-393.5
 11
200.34
 21
-394.546
  0
LINE
  8
0
 10
200.34
 20
-394.546
 11
199.11
 21
-394.147
  0
LINE
  8
0
 10
316.61
 20
-394.147
 11
316.61
 21
-392.853
  0
LINE
  8
0
 10
316.61
 20
-392.853
 11
317.84
 21
-392.454
  0
LINE
  8
0
 10
317.84
 20
-392.454
 11
318.6
 21
-393.5
  0
LINE
  8
0
 10
318.6
 20
-393.5
 11
317.84
 21
-394.546
  0
LINE
  8
0
 10
317.84
 20
-394.546
 11
316.61
 21
-394.147
  0
ENDSEC
  0
SECTION
  2
OBJECTS
  0
DICTIONARY
  0
ENDSEC
  0
EOF
